<mxfile host="65bd71144e">
    <diagram id="NNonvOCgVJvKltmu8nIU" name="Page-1">
        <mxGraphModel dx="235" dy="457" grid="1" gridSize="10" guides="1" tooltips="1" connect="1" arrows="1" fold="1" page="1" pageScale="1" pageWidth="850" pageHeight="1100" math="0" shadow="0">
            <root>
                <mxCell id="0"/>
                <mxCell id="1" parent="0"/>
                <mxCell id="2" value="" style="shape=image;verticalLabelPosition=bottom;labelBackgroundColor=default;verticalAlign=top;aspect=fixed;imageAspect=0;image=data:image/png,iVBORw0KGgoAAAANSUhEUgAABpwAAAJiCAYAAADaCmFOAAABXmlDQ1BJQ0MgUHJvZmlsZQAAKJFtkE9IAlEQxj9FCCLIg3XoD9gh7GARq+Sli1lIsIFogXWJdbU10O21uxHdu3SOolvXAqFzt6B7CIVI5w6dCyQq2r6nlVrNY978+N7MvGEAr18TouQDUDYdK52cC2ZX14I9j/BhGAHeEU23RTyVUpmC79htjRo8Mt5Oyl7jh2q19nJ6vL3uvXi9MS7/5ndZb75g64zv9BldWA7giZJTu46QvE8OWByKfCLZaHFFcq7FV82c5XSCfEf260UtT34gh3MdutHB5dKO/jWDnL6vYK5kGIfoI5jHAlSeIDJQEKMr1JJY4p7+r4s26xLYgsAeLGzCQBEOO8SpCJRQIC/ChI4phMkKpulRue/fe2xrtgHErvnVQVvLRYDKETCRbWtjs8DwGXCuCs3SfrbrafjsjYjS4lET6B903ecqMHAPPIVc9y3guh91PoaAev4Tpchje2unrTUAAABWZVhJZk1NACoAAAAIAAGHaQAEAAAAAQAAABoAAAAAAAOShgAHAAAAEgAAAESgAgAEAAAAAQAABpygAwAEAAAAAQAAAmIAAAAAQVNDSUkAAABTY3JlZW5zaG90nKfxIwAAAddpVFh0WE1MOmNvbS5hZG9iZS54bXAAAAAAADx4OnhtcG1ldGEgeG1sbnM6eD0iYWRvYmU6bnM6bWV0YS8iIHg6eG1wdGs9IlhNUCBDb3JlIDYuMC4wIj4KICAgPHJkZjpSREYgeG1sbnM6cmRmPSJodHRwOi8vd3d3LnczLm9yZy8xOTk5LzAyLzIyLXJkZi1zeW50YXgtbnMjIj4KICAgICAgPHJkZjpEZXNjcmlwdGlvbiByZGY6YWJvdXQ9IiIKICAgICAgICAgICAgeG1sbnM6ZXhpZj0iaHR0cDovL25zLmFkb2JlLmNvbS9leGlmLzEuMC8iPgogICAgICAgICA8ZXhpZjpQaXhlbFlEaW1lbnNpb24+NjEwPC9leGlmOlBpeGVsWURpbWVuc2lvbj4KICAgICAgICAgPGV4aWY6UGl4ZWxYRGltZW5zaW9uPjE2OTI8L2V4aWY6UGl4ZWxYRGltZW5zaW9uPgogICAgICAgICA8ZXhpZjpVc2VyQ29tbWVudD5TY3JlZW5zaG90PC9leGlmOlVzZXJDb21tZW50PgogICAgICA8L3JkZjpEZXNjcmlwdGlvbj4KICAgPC9yZGY6UkRGPgo8L3g6eG1wbWV0YT4KuJcCxgAAQABJREFUeAHs3QWcVFUbx/GH7u6UFANQkTIwAEUUFBFRQCwUFbHrVTFQ7A7sDuzABiREQFBEkZIGQbqRDt/zP8u9zA4zu7MFy/o7n8/u3Ln33Pqee2fhPvOck2vN2rX/GgUBBBBAAAEEEEAAAQQQQAABBBBAAAEEEEAAAQQQQACBdArkTud6rIYAAggggAACCCCAAAIIIIAAAggggAACCCCAAAIIIICAFyDgxIWAAAIIIIAAAggggAACCCCAAAIIIIAAAggggAACCCCQIQECThniY2UEEEAAAQQQQAABBBBAAAEEEEAAAQQQQAABBBBAAAECTlwDCCCAAAIIIIAAAggggAACCCCAAAIIIIAAAggggAACGRIg4JQhPlZGAAEEEEAAAQQQQAABBBBAAAEEEEAAAQQQQAABBBAg4MQ1gAACCCCAAAIIIIAAAggggAACCCCAAAIIIIAAAgggkCEBAk4Z4mNlBBBAAAEEEEAAAQQQQAABBBBAAAEEEEAAAQQQQAABAk5cAwgggAACCCCAAAIIIIAAAggggAACCCCAAAIIIIAAAhkSIOCUIT5WRgABBBBAAAEEEEAAAQQQQAABBBBAAAEEEEAAAQQQIODENYAAAggggAACCCCAAAIIIIAAAggggAACCCCAAAIIIJAhAQJOGeJjZQQQQAABBBBAAAEEEEAAAQQQQAABBBBAAAEEEEAAAQJOXAMIIIAAAggggAACCCCAAAIIIIAAAggggAACCCCAAAIZEiDglCE+VkYAAQQQQAABBBBAAAEEEEAAAQQQQAABBBBAAAEEECDgtI+vgZmz5+7jI/hv7h73/2a7c9YIIIAAAggggAACCCCAAAIIIIAAAggggAACWSNAwClrXBPa6reDhtkzz73qfxJagUqZIoB7pjCyEQQQQAABBBBAAAEEEEAAAQQQQAABBBBAAAEEQoH/ZMDpuzHL7ftxK0KERCaGj19p345ZlkjVhOu0bdPS6tauacq2UeApp5Zlq7bYv/9mn7PLCe6Tp/xpH3/2la1Zuy77wKbhSJYuW26fDvzGvvr2+zSslX2r5rTz2bFjh28ftdH69f9kX3iODAEEEEAAAQQQQAABBBBAAAEEEEAAAQSyjUDe7HIk1z8+1epWK2JXnH1Alh/St6OXWaECeax1s7IJ72vw2OW29p/t1vbo8gmvk0jFq3r18MGmIOik9xktr3+xwEb8unKPzdzeo64dWL3IHvMza8b27f/ajAUbrE7VwpY/X1Isc+ykNXZ7/z/tlgtr28nNy2XWrjK8naxwz/BBpWEDb777oW3ZstXy5ctnZ7Rrk4Y1E686eOgPNvyH0VbzgGrWs0f3cEUFIX759XdrWP9g69L5zHB+WiaWL19pI0aOsXx581q7tq1TXXXjxk22cNFiK1m8uJUvn9h9O3LUWPt28DCrVLGCXZ0J91VKB5nW84m3rT59HzIFe1Ry58pldevUsiOPaGj1Dz3Icrn3e6vs2LHTt4/217zpkVasWNG9tWv2gwACCCCAAAIIIIAAAggggAACCCCAAAL7qUC2yXCav3iTrVy7dT9lzNhhK/iRmZlOy1dvtYVLN9tZLSsl+ylTIl/GDjSVtf9ausmuemiyLVy2OaxZ1wW4up9WxRrUKR7Oyy4Tme2+N8+r4xmnWuNGh1nTxkdk2W43/LPBNmzYuEcW1bp16/38tWvXZ9m+ozc8fsJEe/b51+y7IcOjF8V9ryCVjn/16jVx62S3BYFtqZIlrFSpkjbh90n28uvv2tc5JBMsu3lzPAgggAACCCCAAAIIIIAAAggggAACCCCQeQLZJsMppVP66sdl9tWPS+3vXYEMZcpcemZ1K1ggt02fv8Ge/2iedWpdyb4etcxmuPdVyxe0a7rWtJETVrqfVbZ1207rcGJF69SqUribNf9ss/4fzrMff1tlBfLntvbHVUi2/AeXIfTZ8CW2wAVujjy4hC1ducXtL49ff8WarfbcR/Nt6hz34H3TDqtRqZALqlS1pvVLhttP60RmZ9wULpjHTj++wh6HoXP6ddpa69erXrjs1mf/tOYNStkZrr6yv/6Ytd6ObljKn78CgYcfWNwu7lDNqpQr6NdRQOuVz/+yKbPXW/Gi+ezUY8r5jLEvfljqlz/w2iwrUiiPXdm5hs90+n36OjuqYWmrVLaA71rvk2GLbZDr1nCJMz24ZlG7xLVlkHmV2v63bN1pA77727fbjp3/+kBWb7cfXQvpKZnlruDG1999b5MmT7NNmzfbAdWr2VkdTvXZNQp6fPDxQJs+Y7Zt377datY8wM7v2smKFy9m3wwaahN+m2Qd2p9ik6f+aVOnzbDzupxlH37ypT+dK3peYGVKl7K1ruu8Z1zAReXyS8+3aX/OtEWLl9riJUvdPpKy7pTRo5+169ZZ1SqVrf2pJ1ktt69Fi5fYex9+bosWLbG8LqPoyEYN3bGdZnnyJF3PfqMZ+BWcw+END7WJk6ba8hUrrWyZ0v48arjsKBWd9/sfDXTLp/j35cslz1LSOlq+cOEi27J1q7sn89sxRzWx0132VpCppBUn/jHF+i342449uqmdcNzRGTq3lNplyrTp9uXXg23lqtU+k0zBn9NPO9lnG+k4Ujsf1UnJPTCLbHddi0FR5li1qpXto0+/tB9Hj/PXRjvXniobN23y18f0GbNsq8tyq+ja/5xOZ1j1alX88iEuM23UT7/YP64rvB07d/rtaHnVKpX89aUMtaaND7f8zljbbnPSCT5wqWy274eNtM2bt1iNGtX9tviFAAIIIIAAAggggAACCCCAAAIIIIAAAggkKpC+p/SJbj2T6i1YsskOquECEx2qW6umZe3zEUts3OTVfusbNm63SS5A8tAbs61MifzW1gU/JrtAyKX3/mGjf19tJzYu64Miz7sA0Zr128IjmvnXBpsy5x8XLCnvurD61wWt5tvEGUnj4Uyf94/d8/JMHxDpfFIlHzRR4CUo6lpPQSyte2H7qrbOHUN/F/TKaNkbGTeLV2wJzzM43p8nr7FFu4J5S1dttcE/LbeH35xt1SsWstbOW93zfTd6ua+ugM/l90/yY2DVrlrEB+M2bt5peXLnsmJFkuKXtV2Xege5QJICeRs37/Dts84F+FQ+GbrYW+dzXe4pIDZt7j92hdueglgqqe3/02FL7J1v/rZTXNeGHV0Gl9ute6iesQGiMsNd4ynp4f0695BfQZ0ZM2fbMtdtnMqTz75sv7tAiYIUKlqm7upUVqxY5eqtsJdee8fGjB3vs4nUfZnGzdH8KVOn+3pTXCBK7zds3OiDOX+74JHeKyNGRV3H6Rg0T13tzZ4zz+bMnW//uCylhx9/zub/tdAfl4Jho8b87ANWfsVM+BWcg85JYxntdEEOHUfkuGQKoP08/jd/bNu2bbcFLrAUWXQ+M2fN8cGmfPny+qDd98N/tKVLl3s7BYdUtjlDbVuBoIyeW0rtosChAno7XddyuXPn9llS73/0uQuYJl1rqZ1PascWmEW2e3B96DyXu3P8c/osH8DU+wPr1taLL0/3f8UFKf/w2VvykOWjTz5vq9es9csVbFJWl65DtYXa/qtvhvhlOi75aewsBZ4U6NvggqW/TZxsn33xra13yxWkUltQEEAAAQQQQAABBBBAAAEEEEAAAQQQQACBtAjsFxlOkeM66Xnv2EmrXcBpjR1/ZJnwXB+46iCrX7uYfz9m4mor4jJ8nrmlvn9f74AipiweZT8FWUhH1Ctuj153iF9+bpvK1vaqn+236WvtMJfNo0wplVfuaGhFCycRrXABEQWWVBRQicwQUpbPg6/Psr+Xbw6zgHzFdPzKtIwbF+hpdfnY8Ah6ubGxzorI8AoXxJn4+JEjrUAwDpML7v0xMykYN2z8Ch+463NJXRfM2+2vzeTLm8t++mO1dT65stWqUthvWQGlyPLmVwtN3ew997+ktmnZpKz17PeHM1/qgndJ2TCqH2//6ravXKn8duaJFdz+Mi9emlH3v1zWjUrbk1v6jBEFD3a6QJgCPwrCFCiQ3x645zY/Ps9Nt91rv7qAQacz2/l19KtY0SJ2jMvaKV2qlJVw4xQ1a9rIj6GjrKfjjm1uk6dM83U1nk50UVBh0JARfrayjDp1bO8zhBQcUdBGyw+qV8d69bzQZcpMt5defdvURZ3GBcrMUu/A2nb5Jef7833w0Wd9cEiBpIoVytnYn3/1u2p5wrF+zKlxv0ywAR98Fu6+Tq0a1ud/11q5smX8WEX9X3zdZ4RNmDjJel9+kb3x9gc+8NTo8AbW3WWHaTyjbwYNS/e5pdYurVseZ23btHJtUcwHmW78X18fLJs3f4HPJErtfEb8+FNCxxbd7gHIG+98GEz6ca5OOflE/15BRAXCVC69qJvPWnr4ied88EnZSWe7tr+sx3n+OipYsIDPslJbTP1zRhgs07oKoum6qlyposvGq2rvvPexZvvp3pdfbBtdYPOufo/6efxCAAEEEEAAAQQQQAABBBBAAAEEEEAAAQQSEdgvAk4KMqn7ugl/rrNSxfNa3jy5fIZR5Am6RJewlC2Z32VK7AzflyyeNHZRZCJM3jy7gxX5XWBFwaqxk9b4oMeshRt9wCQINmlDuXZX99tVltOYP1bZ6nXb7J+NO/y87dszlmnjN5KJv64+t2a4NWUcpaUEwSatU9l1pafzVVmwJGl8poZ1k4J7fmaCv9Zv2O4znhTUC0qNyoX85PxFuzPINCPe/o87orTPwLro7onW+aTK1ubocsnqBtvd268K3gwbMcp3qzfh9z/sLBdMOrBOrTA4oKyex556ITwsZexs2bIlfF/XZbCc6gIcQTmq2ZE+4DRj5hwfuFB3fCrNXSAquqxy2SwKKqkoUFLcZUgFZbHrTk9l/vyF9tBjLgjkjsO/d1kvmV2KFCniu+lTEEPdACoLaYoLmCljKSjNmhzhg0VFXd3IUtQF3JR5oywvdU+oTBwVTSs4ksv9qGg66AowI+cWBG3itYu6BFRQcOasuS5TKI/PFlI20aZNm/15+YNxv+KdT6LHFt3uwXYbuOtJnpNcoFHXyv0PP2333nmzKYCnks9lLzWof7CfrndgHZ/xFCwrU7q0KaCnIGjhwkn3lyoG14imCxUqaBoHLCiyV2l0REMfHFVAj4IAAggggAACCCCAAAIIIIAAAggggAACCKRFYPeT4LSstZfr3v3iDBv1+yrffVseF2xSt3D1Dtj9UD0zDqdo4Ty2cF5SMGXDpu2+e75421V3fOpWTpk2h9QqZrMXJj0c39XbVrzVEpqvbshmzp5rdWvXNGXdpLdoDKczTqiQ3tXjrqcu8lSKFkr7pbPFdUMYva664itZLJ9t3rXMV0jh11FubKlHrjnY3vn2b3vqvbm+e8UnbzzUiu/qzi+FVVNclFH3M9xYQwULFLDvhgx34yots2fdeEsXdj/HBXh2d+MYBHs0fpGCGBpDJ16pVLGCadwgdY2mIIyCHcr+qVC+3B6rbHFj7gRF3fFFli1bk/a/89+dYbBJ+9fYTqmVAu58VDR+VGQJum7LGxFIilyuaWV0qWx0AZrt25OuGb3X2EyxyoTfJ/ksJl/HratuAVMrGTm31NpF3efJXaVQwYK+i7/geBI5n4wcm/ZzisuU0xhO69efZLff/aDvOlEBpOC48+/yVd3CLnikstWNfaWstgcffSYMigXt4Cuk8EtdB6rEa58UVmURAggggAACCCCAAAIIIIAAAggggAACCCDgBdIeNdjLcH+7sYUUbOrZsbqd47pqU7nmkSkuSyLzDkRdn/0xc73vKk9b1dhEP7hxi7Zt3xmz2zaNQ6TyZt/D/ThFE/5cazc9OS3Dx5TRoIc/qAR+KWikcY8U7ElrqVgmKQihrvIOd90SxirxAm+ld2WaTZ2bNO6Q1tXYTRpbq3LZpIfmsbYXPa/RwSVMPxOmOfenppnGoGrdrGx0tYTfZ4a7MkLU7dmJxx9jb737octM+dN+/uU3O/qoJv448rjMnFtvuirMzknk4I5p3tiPtfOZG2tHpbnLeopVypYtHc7W2EPqKi0o5cuV8WNGVa9W1a664uJgdkKvFVxXeCoa10fBjurVqvjAx9x5f/n5VSpX9K/Rv9Sd4BI39pKK6lQov7ttZs2eZ01d9lN0GTlqrJ91cqvjrd2pJ/nxqDQvyLQJXje7MaiCkpFzK+uCdyqx2kWZQGN/nuCXX+2CvnVc8Lffg0/6DCxzt0wi55ORY/M73vVr+47dwTqN16Wgo4qyntQu6pJP3QOqKJCodlJmmTLBHr6vj3+9/pa7/fKUfpV3baQMqRlu7Kaj3XVHQQABBBBAAAEEEEAAAQQQQAABBBBAAAEE0iqQrQJOCj6MduMvRZYDKiV1CbVk5RZbuXarDwzN+Xujzy6KrJfW6Smui75XBy6wxi5wMein5b6rN3XPptL00JI+4PTg67Ot3XEVbMrs9TZ51nqrVjHpWMq4LvtUNGaTuvf76sekMZ/8zHT+yoygRyK7rlYhKbAz2J3zAZUL2w/jVyayWljnmMNL2cuf/WUvfDLfdWlXySq5QNEmF8BSAKiS63pPZbgb52nLttIWBKeClXO7AFfbY8rbt6OX2fuDFln9OsXsw8GL/OITGic9SA/qxnvVGFFFCuWxqhUK2T+7sq3UJWJ6S2a5P/rk867ruHw+wBIEW8qUKWX1XFd56v5MGUp9+j5k6v5sw4YNvsu4W27oneJhN23SyAectK5Ks8ZHxKyvTKTabgwkBR4+/uwrl5nziw9sNXPr62fUmJ9d13Bz7N4HnrCaNar7MZaqVqlk53Q6I+b2gpn1D6nnM5WUbaTzU7Bj+Yrd10vTqOOZ4LqgW7lylQs2LfPdt+m8D3Lnqy7wNE7QfNeN3zvvf2I/jhlni3Z1DRfsq0SJpODltOkz/T7VJVxkObBOTd9tnMageuKZl+wIN5ZTouemAMxNt90TuTm749br4rbLzddf6bucU1BHgac/XBAv6HJOG0nkfBI9tmQHFfFmwAef+gw4mamUdD6HuvZQdpWyltQmd9/7iJUsWSJsE40BpgCUioJmGkdq3q7goJ+Zwi91z6eAk9rw778X+zGcUqjOIgQQQAABBBBAAAEEEEAAAQQQQAABBBBAYA+B9D+p32NTGZ8x2QV27nx+erKftS77pftpVe2LH5Za51sm2EffL7Yq5Qu6rqOS9pcrRpZObpdtEisDKrJq3epFbLTLnLr+8ak+4NThhIp2UrOkgNMpLvDUqXUlG+GynG58YqoPPql+UE51QRMFwi699w/TWEIF8icxBscU1Ev0NbOCHons7+jDSrlgTUF79O05dtVDk22189X7oEQaBfMiX6u5QE+fS+qaMs/ue3WW9XbbGLYraFWrSmFr1bSsvffdIr/tOW4srOjtXdKhmjVvUNIHrZSppgBjr7MPsAYu+KQSXT9y35oeP3Wt3d5/up1986/W13W12Pbo8tbCjeuUnpKZ7iWKFzNl/igrR0EZBVhOa9vaBweu6HmBG4+nsM9K0QN9jccUdK+X0nEryKDAkIqyi4q7fcQrF5zX2e9TyzU+0YKFi3x2i46jkxtPShkvOq6fx//mAz/BOEjxtqf5CmT1vvxi37Wf3gfBJnUxd9kl3f04TZofFM1XgETBEJ1vj4u6WtDFX8+Lz/MZOKqrYFP9XeMPBeu2OuFY33WdjvvLb4aYxlBSURdxKoc1ONQH8zQtZ2X7pHZuQVaU1tExRf7kz5ff4rWL1mvX9iRvJq/RLmCn7g192fW5k9r5pHZsSRuL/1vBH52nxuM6vsVRvh3Uhvnz57NePS/0vgpEBm3Sof0pvhvO0i57rMmRh/sNf+UcF7rgkQJ/YYmT1NjWdeHXsMEhvtrSZS4Y7a6bYL1Ix3A7TCCAAAIIIIAAAggggAACCCCAAAIIIIAAAlECudasXbvrEWrUkmz2dtOWHbZ5y04rtatbtsw6vHUbtlsBlyETBI0it6su9TZs2uHHGIqcH0wrI6uUG38ob944T3GDiim8ZmbQI4Xd7LFI2Vnq4q5QgTx7LEt0xqp123y2kfwiy5at6oowl3tgH99lvXNf8882q1SmYJr91AXiYpfxVt6NoZUvb/J9Rx5HStNZ4a7giLJ7SrvgRDD+UeQxrHFjIf3jukFTcCoIxEQuz4zprW7Mpn9cBlVRF/CJHCNKGS8rXPaRMmR0fAULFrBZbqywhVGZRsExVHOBLmVNBUUBHmUKKQimrJrIIMRb735k4ydMtEZHNLTuXc5y+9/ozzFYN/JV51+4cCEfzImcr2n5afyrMqVj+6mOso507JEBs1jnprqJlnjtoq4Bly5bYRVd14KR+4vcbkrno3oZPbbIfUVPayytzW78LnXfF318ctJPObcssq2itxH9PmkcqN1jcEUv5z0CCCCAAAIIIIAAAggggAACCCCAAAIIIBBPIOKr7/GqZI/5CoxkJDgS7yyKF4lPoGBGyWLxAxrlXMAjI2Wme+Cvn7q1a9pVbqyYvVmq7Or+LiP7DMZkit5GrOBddJ1izl0/6SkKZGXk+LPKXQ/2K1WsEPeUfLBmV9dxcStlcIEyYErn35WNE7EtZcdojJ/IMtZ1W6dxpmKVpk2OSBZwUnZVShlWwTYU+FBALV4puqvLt1jL5Ve5Unw/raPMqegS69yi66T0Pl675HWZQfHGqQq2l9L5qE5Gjy3YT6zXUi7wF6/IKZZVvPrB/MggZTCPVwQQQAABBBBAAAEEEEAAAQQQQAABBBBAIBGB9D3xT2TL1ElVQIEmdWXVtk3LVOtSIfMEcE+ybHF0Mzuwdq2YsBVcVk+iRYENjSukrCoKAggggAACCCCAAAIIIIAAAggggAACCCCAwH9TYL/pUu+/2TycNQIIIIAAAggggAACCCCAAAIIIIAAAggggAACCCCQ/QWyRYZTq8vHZn+pBI/w9bsPs+oVCyVYO/OrXXj377ZgyebM33A23mLzBiXtvisPysZHyKEhgAACCCCAAAIIIIAAAggggAACCCCAAAIIIJCzBchwytnty9khgAACCCCAAAIIIIAAAggggAACCCCAAAIIIIAAAlkukDvL98AOEEAAAQQQQAABBBBAAAEEEEAAAQQQQAABBBBAAAEEcrQAAacc3bycHAIIIIAAAggggAACCCCAAAIIIIAAAggggAACCCCQ9QIEnLLemD0ggAACCCCAAAIIIIAAAggggAACCCCAAAIIIIAAAjlagIBTjm5eTg4BBBBAAAEEEEAAAQQQQAABBBBAAAEEEEAAAQQQyHoBAk5Zb8weEEAAAQQQQAABBBBAAAEEEEAAAQQQQAABBBBAAIEcLUDAKUc3LyeHAAIIIIAAAggggAACCCCAAAIIIIAAAggggAACCGS9AAGnrDdmDwgggAACCCCAAAIIIIAAAggggAACCCCAAAIIIIBAjhYg4JSjm5eTQwABBBBAAAEEEEAAAQQQQAABBBBAAAEEEEAAAQSyXoCAU9YbswcEEEAAAQQQQAABBBBAAAEEEEAAAQQQQAABBBBAIEcLEHDK0c3LySGAAAIIIIAAAggggAACCCCAAAIIIIAAAggggAACWS9AwCnrjdkDAggggAACCCCAAAIIIIAAAggggAACCCCAAAIIIJCjBQg45ejm5eQQQAABBBBAAAEEEEAAAQQQQAABBBBAAAEEEEAAgawXIOCU9cbsAQEEEEAAAQQQQAABBBBAAAEEEEAAAQQQQAABBBDI0QIEnHJ083JyCCCAAAIIIIAAAggggAACCCCAAAIIIIAAAggggEDWCxBwynpj9oAAAggggAACCCCAAAIIIIAAAggggAACCCCAAAII5GgBAk45unk5OQQQQAABBBBAAAEEEEAAAQQQQAABBBBAAAEEEEAg6wUIOGW9MXtAAAEEEEAAAQQQQAABBBBAAAEEEEAAAQQQQAABBHK0AAGnHN28nBwCCCCAAAIIIIAAAggggAACCCCAAAIIIIAAAgggkPUCBJyy3pg9IIAAAggggAACCCCAAAIIIIAAAggggAACCCCAAAI5WoCAU45uXk4OAQQQQAABBBBAAAEEEEAAAQQQQAABBBBAAAEEEMh6AQJOWW/MHhBAAAEEEEAAAQQQQAABBBBAAAEEEEAAAQQQQACBHC1AwClHNy8nhwACCCCAAAIIIIAAAggggAACCCCAAAIIIIAAAghkvQABp6w3Zg8IIIAAAggggAACCCCAAAIIIIAAAggggAACCCCAQI4WIOCUo5uXk0MAAQQQQAABBBBAAAEEEEAAAQQQQAABBBBAAAEEsl4gb9bvgj0ggAACCCCAAAIIIIAAAggggAACCCCAwN4UGPnjT/beB5/ZunXr9+Zu2dcugeLFi1mXc86041oclaIJ7ZQiT45eyDWSo5vXn1yibZyTJAg45aTW5FwQQAABBBBAAAEEEEAAAQQQQAABBBBwAgo29b3zZqtbpxYe+0Bg5qw5dtc9D6cacKKd9kHjZJNdco1kk4bIwsNItI2z8BD2+qYJOO11cna4NwS2bdtm27fv8LsqWLCA5cqVa2/sln2kIECbpICzDxbRHvsAnV0igAACCCCAAAIIIIAAAntRQJlNBJv2InjUrmSfSHYZ7RQF9x96yzWS8xs70TbOSRIEnLKwNf/991+bOPEP27hxozVr1tTy5MmThXtj05ECTZseaxs2bPCzRo8ebuXKlYtczPQ+EKBN9gF6CrukPVLAYRECCCCAAAIIIIAAAggggAACCCCAAAIIpFmAgFOayRJf4cUXX7HHH3/Kr9C+/Wn22GMPJb5yNql5003/s/Xr//FHc8MN11rdunVSPLLhw3+wDz74yNdp1OgI69mzR4r1s2phEGzKqu1n5XYHDRpin3020O+iRYtjrVu3c7Nyd3tt2/u6TSJdo0+6SJEiVqPGAVanTm1r3bql5cuXL7pKjnu/r9sjx4FyQggggAACCCCAAAIIIIAAAggggAACCPzHBQg4ZeEFMHr0mHDrw4aNCKf3p4nvvx8eZgolEjyaM2euBeeqruxyYnn99Td9d32HH97QmjRpnOmnOHny1NCwUqWKmb79/+oGI11TMqhWrar17XunHXvs0SlVYxkCCCCAAAIIIIAAAggggAACCCCAAAIIIIBAhAABpwiMzJ487bS2Nm7cL36zZ53VIbM3z/b2gcCmTZvtgQce8Xvu2LFDlgSc9sFp/ed2WbFiBatatao/7507d9qiRYtsyZKl/v2CBQvt4ot72pdffmr16h34n7PhhBFAAAEEEEAAAQQQQAABBBBAAAEEEEAAgfQIEHBKj1qC65x7bmc7/vjjbOvWrXbAAdUTXItq2VlgxYoV2fnwOLYEBS666Hy76KILktWeMWOm9e59nc2bN8/Pv+OOvvbhh+8mq8MbBBBAAAEEEEAAAQQQQAABBBBAAAEEEEAAgdgCuWPPZm5mCahLNIJNmaW577ezfDkBp33fCllzBAceWNcefLBfuPHff59oW7ZsCd8zgQACCCCAAAIIIIAAAggggAACCCCAAAIIIBBfIFtlOP377782dOhw++yzgTZ37jxbvHiJ6/aqimlMleOOO9ZatTrRypUrt8fZLFu2zD766FNThsLkyVNs27ZtdtBB9eywwxrahRd2tyJFiiRbR92iaRwelfr1D/Xb1rxBgwbbzJmzTNPnnnu2zZ//l3+verVq1bRTTjlZkzHLxx9/ZjoOlZNPbm116tQ2PbAeM2asn9ekyZFxu1/Tehr3aNas2e4cZlm+fHntiCMOt4YNG7if+layZEm/jeCXHoJ//PGnNmnSFJsyZaop60b7U/dfF154vjcL6manV43v9N13g/0hyahmzRr26acDbfz4X+233yba5s2b/Hk3anSEdenS2fLnzx/38Ddu3Ojb/Pvvh3q3YsWK2yGH1HPj7hxrZ555etz1tGDt2rU2atQYGzv2Z1u4cKH9/fdiW758uWnMqQYN6vustM6dz3LtkC/cjq6tRYsW28iRo8J5Y8b8ZM8992L4vkqVKnbGGe3C98HE4MHf+31NnTrNXVPzrXLlyla3bh1Tl3xNm2b+GFDab1rvCa3z118L7McfR/nrViZLly61VatWW+nSpezwww+zdu1OtRNPPF5VY5aMtEmwwbQed+Q11abNSVa7di133MtsyJDvXabSfMuTJ49dc01vK1y4cLCLFF/r1z8k2XK1ec2aNZLNC96MGDHS3d8/2bRpf/prUO160EEHeqszzzzD8uaN/fGaXmdds3/8McnvXtlZhQoV9Pf/6NE/uc/Kxabr75JLLgoOzzKjPcKNMYEAAggggAACCCCAAAIIIIAAAvuNwID3P7EB73+a6vF2PbejdT33rFTrUQEBBBBIVCD2E9FE187Eegqi9Op1tXvgPTrZVqdPn2H6+f77Ye6h/Th78snHki3Xw/xbbrndNmzYkGy+xmPRA+EPPvjIXnjhWReMODhcrsDGk08+49+fdFIr92A4j1155bXJttG8eVNbv359WE9BK9XVA+zosnbtOrvttjvC2a1bt/TTCqIE++nW7dyYAaeBA7+yu+++N9m+tXLg0LZtG3vqqd3nLIvrrrvJP+AOd+gmVq5c5ceLeuutd+3RRx+000/fM/ARWX9fTCs4EHjoPPRer5Hl228HWfDz9NOPWfny5SMX+2kFBM8557xk6+r81RXaN98Mstdee2OPdYIZCkY2aXJM8DbZq64hXTP6GTjwSxsw4E0fNNixY4cLtpyZrK7e6BoLzkfva9SokSzgtHr1ate2/fz5aHlQdKyTJk12wbbP7fzzu1mfPrcGizLlNT33xIQJv7sg63kx9y+XBQsWujGNvrZLL73Ybrrp+j3qZaRNgo2l57gjr6kSJYr7tnvooUeDTfrXSy/tkXDAad269cnWrVq1SrL3eqM6/frdb59//mWyZUG7Kvj9/vsf+fuwZs0ayepkxFnBwNdff8tvr3nzZvbee++76/SrcPu6/oKAU2a0R7hhJhBAAAEEEEAAAQQQQAABBBBIg8Co0eNs2p8z3Jcy61qLY5qnYc3Mrzp7zjwbNvxH0zODzp3OyPwdZNMtJhJs0qGrXnoDThoTO1euXP4nmzJwWPtI4J9/Ntj7H31utWpUt5YntthHR8Fu95VAtgk4vfzya2GQRRjKqDj44Ho++2TKlCk+oBKNNHLkj27MlWvD2VpHGSoq33zzrV9HQYHbb7/LZQS9FzNYNGTIUJcNMTTcRuSEMppuvTUpkKSH7uPG/WxHH31UZBU/PXz4iHCejkFdcyVS9PD4gQceTla1TJnSVrZs2WTBlKDC8uUrrH37jsHbMPNLmTi//PKrz3bQwhtv/J/LnGliFStWCOtmtwkFlYKijKbixYvZ7NlzfGBD8ydM+M2uuOJq32764xVZ7rqrbzIfZXcpY0gZccoqU6ZYvPLvv/+Gi+Sj9eT977873bqTfNBKFbSd9977wLp37xbWT21Cgcug6I/uJZdc4QNLmqeA5cknt7ZSpUr5fSijTUUBQgU3W7du5d9n9Fd67wmNMxYUeVavXs10Leq6/+GHUWFAVPfpqaeeYocemjwTKCNtov2m97iDY9Zr3773Rb5N1/SAAe+H6ylwrHsrsuj6ufzy3j4rL5ivDExlVCobShmHKgoodux4jguADXb/qC0RVPXjuQVv0uMcrBsvOBgsz2h7BNvhFQEEEEAAAQQQQAABBBBAAIFIgct73+R6jlkXOSvZ9B23XW9jx423ESPH2Oo1a7Mk4LTYPetbtmyFG8KimpV0gaSgxJo/b94CG/jld1asWNH/VMApMPnq83eDyT1e23VI/JlXsPL27dvt7Xc/sh9c+65wX6hWqVChnF195aV2WMNDg2r75LXfA0/YlKl/Wp7cue3lF57wPcMEB/Ll14OSZXypl6Njj25mrVwwpIYLiqjMmTvfbr/zfj99XtdOdlrbk/y0voh+3oW9/PR7b7/oX3Par88HfmMffDzQn9YtN15lhx+W9Hw9kfOMdd+NGjPOtE2V41ocFbcXoES2T539TyDbBJy++OLrUO+RRx5MlimiBcoWWb/+n7CObvZ+/R4K39911+3Wteu5YVRd3Wh163aBD0zoIbCCQik91G/f/jRr0eJY/6BdG1Wwq1ChQr5rt/fe+9Dv5+uvv40ZcFLmR1DOOadTMJniq4JHkcGm445r4R6Y9/HdYmlFPdhW12CRpX//58O3HTq0d/XvCj88d+zYaXfeebfvZk6V1GXgrbfeHNbPjhPXXXe1z/CJ7PLwnXcG2D33JH2466G9sjpkExRlj0RmlvTv/5TPPAuW6zpRUOSVV14PZiV7VQDhmWee8BlvChREFgWJ+vV70HQMKupyTwEnZbXNmDHZz9O1cNdd9/hpdYkXOeaPn7nrl7oO1PGrqKvDl19+PlkA8PPPv7Cbb77NL3/88adTvDZ9pQR+ZeSeOPjgg1z3gE9b48aN9ujCUdkyXbueHwZTFIyLDDhltE0yctyxWJSFpcBzlSqVTdsuW7bMHtVmz57ru1XUgp07d/h/qA4bNtxnUmqerskgW0jvg6JMS3UBGZToz6rJk6e4LLArfLBbwbrnnnvJ3Yc3BdXd50r6ncON7JpQQPDiiy/cFTQtYwUKFPBLMtoe0fvhPQIIIIAAAggggAACCCCAAAKBQNGIYSsWLlzkZyvoU9QFdFTy5s36R40vvvSmjZ8w0W647go78fhj/X71K978sEIOn4jVjV6soFJ6u9HbvHmLXXnNLe555XIvWbBgQavogk3KZtHPvixr163zgc7gGEb++JO1OfnE4K0/Pj1Xzp8/n9WtU8uWueeyn7mAiH763HqdNW/W2H9JOHj2/NIrb/tgqb4gr6+uB/PDDeawiYFffRee47ffDU1TwCnWfde08RE+s6maeza3Nz4T0tIct/XpZ39MnpbiKum9R1Lc6H9oYdb/FUgQU93cBaVBgz0j4soM0U9Q9OB3nutCTaVFi2NccKmLnw5+6QPhyisvt6uvTur+a/r0mXEf6n/44bs+oypYN/L1rLPOdJkuSQEnddd21119ko0ttGLFymSZWSmN8xS53TfeSOoaS/MU+HjxxWeTZWApqycyQ0lj2wwY8IHfhB6G9+lzWxhs0sw8eXLbtddeFQacNF5Qdi7HHHOUy2DqucchnndeV/9AX9Yqb775TrKA06BBQ8J1eve+IlmwSQt0jdx88w1xA05ybdMm6RsK4YZ2TeR234DQ2F1BwGnmzPiZUtHrRr9/8slnw1l9+96ZrC214Iwz2vtghK7hWS4jSxlGKY1ZFW4shYmM3BNKLVdGT6yisYLOPvusMOCk8dUiS0bbJCPHHXkcuo/eeecNq1SpYuTsmNMffvix6SdeeeWV502Zd9HliSeeDmf17Nljj8C4xoS7//577bLLrvT1FPhVPQWHVDLi7Dew65e62lSwU0Hx6JLR9ojeHu8RQAABBBBAAAEEEEAAAQQQCAQefejuYNKCYEavyy+2o49qEs4PJhYtWmL33v+YTfxjqhV2zxa6nNPR2p6S1MPLu+99YgoK9Lioq437ZYL9+utEe6BfH/f8pLy998FnNnjIcJ8hVb58WevS+cywW66nnn3JfpuY9AVfBQXe/+Bzu/bqnjb4+xEx5wfHEvm6033h+J0BH9v3Q3+wta7b/EqVKtg1vS+1g924zPtzyepu9F5+7W0fbFLQ5qXnHov5BV8Fnp578XX7zfUipOFTqrtnNVdecbEP8sh2/K+/28uvvmP16x/khqpY5rteVBCzixtLqm2bVm7Z267ORGt85GF2aY/uvjl0XsqoUtbNFZdd6OdF/xo+YrSfVa5cGTdO+0r7bsiwZAGnoH7NGgfYQ/ff6d8qm2niH1Ps20HDfMApqKNXfYH5JXcsN16XlNkUuSynTc//a6E3K+ueXSlrbezPv7rnlNt8cC44VwXonnv+NZvunpUWyJ/feR1pl/e80OLdj0qMmD59lusNaImd3el0vxklV6R0bwfXhratTLofR421je5L8Cccd7T17tXDb0PH+r77fPjFXUf6TKlXr47dfEPvPXooCo471mv9+genGnCanEpAKtZ2mbdbIPfuyX07deKJx4cHoAySGTNmhu9jTcycOSucfeqpp4TTkRO1a9cK386fPz+cjp447LCG0bPC9w0bNjB1faWijIUxY8aGyzQxdOiw8P0555ztMyPCGSlMTJo0JVzao8dFyYJN4YKIibkurTMoJ53U0ndBF7wPXsuVKxfuX0GM/bV07twpPPTowNmvv04IlykYmNmlXLmy4SZ37NgeTqdlQn9Qg2CoAg2NGh2+x+oKfB1ySL1wvrpjy2jJzHsi+ljKly8XztKHfmTJaJtk1nGrG8BEgk2Rxx5vukuX8/cYC0xBwcj7Svd7rKKMvMhgcXAtxKobPS8l58i6GpMuVrBJdTLaHpH7YRoBBBBAAAEEEEAAAQQQQACB9ArMcr2LjPt5gm3evNlWrV5jL7z8pn+QrO1pWIS/3bOQe+57zAYNHu4fdG/dts1ee2OA6/rsE/9eD/0XL15qjz/1gg9Oab1hw0f5YICmlXWibWzYsDHufNWLLq+89o596LoP0zEVLlzIlKmlfeSUom704v1k5Bwn/PaHX/3k1ifEDDZp4f9uv9e3ldpGQQtdA9fdeIfpC/sqa9eu922mNlewR3XUDv1dMEPtUL16Vb/820FDfe9PWuc7N612rl69it7GLAo4qqhrP5WZM+e43rLW+OlYvxT8WLlqtV9UOeqLy0UKF/bPaUf8MNpmzpoTa/UcNW/ILjtlhMlf9526xQzKxo2b7PIrb/RZhWpXBaUUpFOJdz8q8Kg2mxPxpfXU7u3g2vjks698N5i6LvTZ8d3gYfanC16pPP3sy/bj6KRn8wpG/TR2vG3blvw5pa+Ywq8G9Q9JYWnSoi7nnpVqHSrEF8g2GU6nnXZqmEk0btwv1q7dmdasWRPTQ91WrVomy+bR6fz111/hWal7Mo2vFF0i0zkVWU1vUfZU3779/OoaG+qEE44LN/XVV0n9UWrGWWd1COenNjFz5u6AWq1aNVOrHo5tpIoaa+jmm2+NuY6CYipKc91fS/Xq1cNDX+k+xILsH3VDGJyfKlSuXCmsl9YJ+YwaNcrmz1/gulNbZqVLl/aZZkWLFknrpvaoHxk80n7itdWECb+H6+rbNRktmXFPLF++3H76aZy/3ta5dORKlSp5l+nTZ8Q8vMxok8w47pgHl8LMyy671Dp33v3HQ0G0JUuW2ODB39u77yaN4/Tgg4+6z53CvltNbSqyXfW+atXY/9BRtuGBBx7otrdU1dw19pcdeWQjPx38SqtzsF5qr5nRHqntg+UIIIAAAggggAACCCCAAAIIJCJQt24tu6vPTb7b+Wuuv90/yJ4/f6HVrl0jXF3d8bU9pbVVcJlM6hVEXZyptD+tjXXvdrb1e+Bx+2PSVHt7wEd+LJhPPnzdurvxdPTg+5rePe3EE4/1Y/bEm68H4pFlu3uY/sVXSb3qPPvUg1bDjQN1Wa8b/cNxBUVidcsfuf5/eXrVqqQATuSXbCM9pk6bbvPcczaVPrdeb7Vr1bCrr7/Nt9XHn37pM2KC+uqO781Xn7Ft7nnMdTf28Rk2P4//zU51GXDP9H/FB6LmzJnvejIq4QNSWu/4FkcHqyd7XbpsuXtOvNBn5CgLStedAk7DXcCoY4fTktVVAOyW2+5xXxRfYBs2bvSBpZNa706CUOWixYpYxzNP82NVPfbk8/bME/cn20ZOezN0+I/+lNStoJ6fy3KQyzDU2Esqul8UGNSQI3ffcZMfq2vNrnHc4t13CjRHFgWxUru3g/rKoHvq8ftcd43l7Zxul/p9T5o81V1PB9j0GUmBp/vvvc0OrFvbB5vVM1NaSgOX4aQu8+JlBGqZ6lDSL5BtAk5NmzZ2Xca96cY/6RUGFRR40o+6kLvqqivsggu6h5lAuviDojqpFWX/pLe0a9c2DDhp/KBg7CSNsRTsW1lQhx9+WEK7UBBCgZSgRGY1BPOiXxctWhTOUsZEalkT8R6GhxvJogl9QyCjpXTp3V0naluyUubKnDlzw03rj5uyhNJThgwZ6sa76pusDdKznXjrLF68O1tJAbLIMafirRN0uRZveSLzM3JPqN3693/Bnn66fyK7CutkRptk5LjDA0njROnSJX0gLXK1mjVr2FFHNXeBzMr2yCOP+0UPP/yYDySru8PIezC1608DZgYlMlCVXudgW6m9ZkZ7pLYPliOAAAIIIIAAAggggAACCCCQiEAl9+xGAaUSbtiLoOz8N/kXbhs2PNS6dUn6QqiymYKibAtlH7U68TgfcFq2bIVflNc99A5K3nx5LHgfvGpZ5PygbvC6fNd29P6xJ57zs5evSNr2DBekIOAUSO35qi/YKnAQ70vuc+clJQcoYKBu0VSOOLyBz3iaE9Fzk+bny5fXPe8trElr7HoGUkbTONeVmwJEzZo28plx6mqxvOsiT6Vhg0Ms3pfEvx860tc5qF5dl0G1zhocerAPOCmLKjrgpOOfMnW6r69f9979P6tV84DwfTCh9T797GufdaUMm5xapk6b4QOCarNSJUu4biXr+lNV9pkyB9VGs3c9jz3IdV+n9lQpXaqkf030vgvuX60U7972G3S/NEZ5tV1f8lb2mYKYep6WL18+HyDW++tvutNdN4e5LhYvCq+jYP1EXru6DCZ1mxc9llNDH4za/QX1RLZFnT0Fsk3ASYfWuPGRrou679wD+oH2/vsfh0EVPbRXtoHGYXroofv8WWiMpqC0b3+ayyhIuiGCedGvTZokfdBFz0/kfYkSJaxDh/Zh4ODHH0fZySe3tiFDvg9X79r1nHA6tQndIJFFqYmplcgPVQW2WrU6McVVqrhB2TKjKHAVZLcoeyK1ElmnTJnd3dOltl7k8sgsJs0Pxu4qtmsASs3TN1nSU375Zbwb2+uaZKs2aFDfBR+quKyev31QK3r/ySon8KZo0aJhLQVLL7/80vB9rAkFzooXLx5rUZrmZeSeeOmlV/YINmmcrcIujfivvxaE10D0AWVGm2TkuKOPJzPed+7cKQw46VpYuPBvUxZisWK7P3NSu/4ir6HI9dLrnOh5ZUZ7JLov6iGAAAIIIIAAAggggAACCCCQmQIaoiAo6tZMpUiRpLGLFSjQQ+f0fvk42O7miH0oa0OlXNmk51caP4oSX0BO6ibtzz9j94ITeCpgEJQgqLRly9Zg1h6vBQsm1VeAQ0UZb8qQUQBKWS4qClLEK0GXcMqEO89lvwVFx7rY9T6jwGdQlP30wL23uy7ibvJdw40Z+4sPZgXLg1c9u73s0vN9V4uvvPZuMDvHvQ4ZOsKfk9ou0k4zR476yY+rFTy3Ll0qeYKAXzHBX4nc24lsSuNvPd3/ZRs95mffxV/PXjfYS88/5jIkd3/xO5HtqI66zfujT79k1elKLxlHut9kq4CTzkLZLRdffKH/UZdjzzzT30aP/smf4GefDbTbbrvZpdiWsBpukLegtGhxrA8IBe+z4rVTp7PCgNPXX3/rA06fffZFuKvTTmsbTqc2oW8E1KhRIwyoLVmy2A2Wd0iKq1WrVi1cXqdOLbvsskvC91k5oUBeEHCaN29+qruaO3d3FlIiXQXG2uDSpcvD2cr8Cf7wRI7JpQf6mzZtijuOTbiBqInXX38rnNOo0RH24ov9fcp2MHPt2rXWpMkxwdt0vVapsrurNR373mqr9N4T6k7uhRdeCc9V9991113lv1EQzBw2bIQLnPUO3oavmdEm6T3u8CAyeSIyaKNNK4iqazkyazDp+tu8R1efwaFoUMSgaGwplYw4B9tK7TUz2iO1fbAcAQQQQAABBBBAAAEEEEAAgawQiAz4TP1zuh1f7mibvCsbRf9Xjw42bdgQ+wvcsebv3DXURqWIoNLNN/b23b5lxblk922269AtzYfY6IiGPuA0fsJEP45Oi2Oa+20oEKiAQhDY0Zd01eWastuCbKLKlSvG3d/kqX/6ZTVqJA2xcaTbj7rcmz3H9fDkslnUldtRbtiVWGWey6rSmEIq9Q6sE14jGntJQUplP6lrxqDkzpXbb/vynhe47hqfsK++HmxndWhn5XZlUgX19HriCcfaex9+5scRi5yfU6Y1vMcPI8f406nihi0JnocpUKc2VIZY2zatTFlGynjSGF7qkjIyqynSItZ9FyxP670drBf9qgDmrTdf47tgvPm2vv513Lhf7fT2p0RXTfV9dNd6dKWXKlnCFXInXHMfVGzkUipff/1la926Zbj3H38c7aerVasazhszJunmCGdkwUTjxo3CLri+/XaQTZ06zSZNmuz3pAyrIAsn0V0raBSUIUNST82MzFgaNWqMH9coWD8rX2vWrBFu/sMPP/Z/QMIZURMaq2bEiJHh3JoxUlLDhSlMDB48JFxat27dcFrfkKhX78Dw/eDBQ8PpRCe+/3639YUXdk8WbEp0G0E9/UGNVSK7BFR3gHPnzotVLdPnpfeemDVrdtiNpQ7q4ovPTxZsSulAM6NN0nvcKR1XRpYtWLAw2epBOr3ucWWsBWXkyKQ+boP3wasGPv3994nB2zBQlRHncGOpTGRGe6SyCxYjgAACCCCAAAIIIIAAAgggkCUCCjJoDB6VRx7rb9fe0Mc+3zWm0yltdj8brH/oQb7Oa2+868fjCYIasebXqJH0JVCN13P7nff7YMOhh9Tz66tbrr79HrX7HnzCelx2rc+G8Qv+Q7/0kD3R0rVLx3Cok4ceecY6dr7QLuxxlXXodIEfD0fdrakNVS6+9Gq79Irr/XhAen+qy1qKLApoaLl+NN6SyonHJ30BXIHF1q2O8/MUNGra5Ag/PpOfEfVr8Pcj/JxKlSrYYw/3tUcfutv/HL9r/KEg+ylqNdflX2OrXj3p2fJLr74Vvdi/13Fc1WvvfOE/5gFk8UwFkIKstMcfuSe0u+yS8/2eNd7VqtVrrFXLpLbQPdS5Sw9/H6ndghLrvguWBa+J3ttB/VivOpbzL7rS7r7nYTce1Ne++0TVS2Somljb0zx1rZfUjV5HPx2vHvPTJpA7bdX3Te3g4tfe//knqSu15s2bhQejMXLGjh0Xvs+Kidy5c1vXrueGm77qquvC6U6dzgynE51Ql3xBUebWmDFJWVzBvOhXZS4Eg/ItcemgL730anSVLHnfsuUJ4Xb1IP6hhx6LGexSYOXWW+8I6yoz6bDDGobvoydmz55jM2bMjJ7tu7R7++0B4fzOnZP3mxm5TY05tHz57myoYKXx438NJvd4jQwYbN26ZzrvlClT91gnckahQkmp3Jr3009jIxeF0/qDpCBkUPr1eyCmWbA8s17Te09Ed/G4bdv2ZIekAQNTcslom6T3uJMdZCa92bRpsz3wwMPh1nTPRWYNqWvNoDz77PPh51EwT98OefbZ54K3prHdgky/jDqHG01lIqPtkcrmWYwAAggggAACCCCAAAIIIIBAMoHcuXMle+/STJK/j3inDBNf4tS5/torTN2eqeiBt0qLY5tbl867AyMdTj/VZ8/oeaGCTZs3b/b1Ys2vXauGHebGiVKZtqsruJuuv9Lq1K7pM2B+Gf+b/TR2vK12D7Pz5snr6/0Xfn31+bumHz1wT7QUc0NIvND/EQsCdvJXdpF6clKGUIEC+d2YSLf4TBktC8bkuvjCrqZsksiirKXVq9f6Opo+r2snO9KNyROUU046MZh03em1DKejJ4YOS/oy8FEugBRZjj0m6bmxghQaWypXcN1FVLqi54X+ndpfmVR69htdNHZUfTcmVE4sQ4b+4E+rxgHVko2D1KTxEeHpjvhhtGnspisuu9AHG9Wuynb6558NYZ1Y990enwmudmr3dqyPhCCrUa8a96uA60lKGXZffDXI3b877aTWx4fjhYUHlMaJ+/v1SdN9kMbN/3pkSN0AAEAASURBVCer51qzdm3sNI29yLF69Wo755zudtxxx1izZk19JpGyCRYvXuwCMWPtySefCY/m22+/CB8A3333vTZgwAfhsu7du9nxx7cwZQOp+yp1haVMg6FDh9sFF3QPu93T/po1axGuN336pDDlMpwZY0LBjWOO2f2Bpyp6ID18+BD/4Rq9irpvCx5ed+t2rt11V5+wim6KTp3OTfYgXw+z1c1byZIlbf78+S4gM8t3Gdev391+vW+++c6uvfZGP61fLVocY126dHYZFFUtb968pqDPzJkz3fH84LMq+va9M6ybkQmdQ2RXdDVq1LCzz+7oIsjl3X7zmIJHWh45bk3//k/ZSSe1SrZbZRf16nV1snlnnNHOmjZt4s9ZXfc9/XT/cLn2o/bWH66g/P3339auXcdwXwpsXXTRBf6aWbNmrTv3EcmyrLTe6NHD3R++cn4TF110adhFo4IBV1/t/pHhXhVM+/jjT924XEODXfltakyxyDJhwm927rndw1lt27Zxx9/YBx7WrVtvN92UFOHXuD8tW7YJ6+lcevXqaTVr1vDjNekfMtrnqFGj3DUwzb75ZmBY97HHnnJd/b3s3yv7R2N2pVQU0Ljyyst9lfTcE7pXDjnk8HAXLVue4O6X81z3lqV9v7yvvPJa2K2iKmm8srvv3h1czGibaJvpOW6tF3lNacwpZUTGK5GuSeOgnRBW3b59h/u8WeI+K4b5+yhY8OijD9rpp7cL3vplRx2V9M0OzVS7yr5atSq2atUqdw19Zup+MChvvvmKHXVUc/82o86R9+ENN1wbt6vGzGiP4Ph5RQABBBBAAAEEEEAAAQQQ2H8Fup1/hQ8q7I9noAwYBTPUBZ6yI2IVPQcq4bptCx5KB3VizVdQSr2CRNZd777UvmzpCitWvKgbx6lMsmXBtjL6qq7r3n3r+RQ3k1ntlJZu8hRsykhRrz9Lli6zgs60VKmSe2xqxYqVprF/KleplKwLNgWInnj6BR+UGvDWCz7QpzZU0CmyTJ023W6+9R6f2fTx+6/FDAZF1t+fp/fmNZJRJz3PVCChVMkSe9wvse67WPtL5N6OtV4wT0EvdftX3T2Li75ugjrZ7TWRNs5ux5yR48kWofudO//14xnNmzfP3nor/geeghyR2Qa9e/eyn38eb+qqSuXtt9/1P7FAdu7cEWt2muYpaNGmzUk2aNCQcD0FkiIDIuGCVCa0zn339fXj4ihjSUWZWvqJLA0aJKUSa94pp5xsp57axgUnBvkq6l5QP7FKx44dYs1O17yrruplEydOMgVbVNROjzzyeNxtKfAXHWyKV3ngwK9MP9FFgaTHH39oD1uNj/Tqqy+EQR8F2R599Ino1eO+79mzRxhw0nVz9dW7U0C1kjKgIgNn0Rtq2LCBD1AF15y6V9RPUIKAk8b7ufPO2+yee+73i2R28823BdWSvepc4xUFpfSTUmnm+rENAk7puSfy5s1rauNnnknKzFHAJDJoktK+tSyjbaJtpOe4tV56iwLRkd3exdrOLbfcmCzYpDpqqyeeeMSNcXWTX0XtetNN/4u1ug+EBsEmVcioc8ydxJiZGe0RY7PMQgABBBBAAAEEEEAAAQQQQGCvCWg8mWBMmXg7LekeescqsebHClopY0c/OaWoe7wB73+a6umkpRu9eBtT4C4YsylWnWB4gljLgnnaRuSwFJr/118L7alnXw6z27p365yjg02Bxf7yGiu4GBx7rPsuWBb5msi9HVk/ejp//nxWc9d4X9HLeJ89BHanjuzD4ylatIgpEBDvwbuCADfffINFZ+zow+vzzz/yWSopHb6CL0ce2SiskjdvvnA6rRMKekWWM844PfJtsun8+fMnex/95pBDDvaZLeed1zXZ2DBBPXkoyBQUpXY++eRj9tRTj8WsH9RT5tPpp+/u0i2Yn97Xou6P74ABb9qDD/ZLcb/KFHr//bftjjtuTXVXykZ55ZXnfRZRdGUd/8CBH1v9+kkpz9HLlQX2wgvPWg2XXRJdWrY8wWUpfeMy5s6OXuTfKwDwyCMPxjyPM888wwYP/toOPfSQmOtqpoIGzz33tEV2A6f5aqvIscY0T+2q6zOl7cnsqquuVPV0l8jrLL33xOWXXxozY0b33vXXX+OzxFI6wIy0ibab3uPWH5nMKmpDBe8uuuh8GzlyqPXocWHMTZ92Wlv77rsv42aeaTu6tm+9NSkoFbmRjDhHtnPkNmNNZ7Q9Ym2TeQgggAACCCCAAAIIIIAAAgggkH0F1D1e0FVeSq9p6UYvs8+2UKGCPmOtTOlSMTe9ecuWMNjU4pjm1uH0tjHrMRMBBLKvQLboUi/g2bFjhx/DR13XLV++0vf9qUwRZTVFjp0T1I981brqxkxd0a1atdpHyMuWLeuCEgdY4cKFI6tm2+nly1e4SP5f/vh07Dr3eKmBSl2V09y5833XgwoKlSundarGDdxlxonLWV2P6TiVeaNxaWRcrVo1HzSITE2O3l+87s/WrlWfrUtM498oAJPog3XV1zGsX7/eH4e6ltPxJFI2bdrkugKca0uWLPZmusYSXTfYvsb7WbJkiU8dVjeIKZW1a9f5zDAdr9pUbVWhQoWYAbeUtpOWZem5J9Td5Jw5c/3AezJRl34KdCZaMtImwT7Sc9zBunv7Ve2qLiXVruXKlfHXr7qaTK1k1Dm17QfLM6M9gm3xigACCCCAAAIIIIAAAgggsH8JZFZXbfvXWWevo02kKy3aac8207OheM9E96y9f8/hGtm/2y+Ro0+kjRPZzv5SJ1t0qRdg6YOkbt06/ieYl+ir1j3ggOr+J9F1sls9BSH0k0hRYEcPtlN6uK2AiMak0XhRaS2tWp1gCmJFFzkrEKafzColSpRwfe7GToNOaR8KhKjN01MUwKxf3w38537SW/StjJo1ayS0uvqjPeywhv4noRUyoVJ67gmNnXbkkbG/ZZLIIWWkTYLtp+e4g3X39qvatVGjw/1PWvadUedE95UZ7ZHovqiHAAIIIIAAAggggAACCCCAAAIIZIaAng1REEBg/xTIVgGn/ZMw+x71smXLXHdoN6frANUtXayAU7o2xkoIIIAAAggggAACCCCAAAIIIIAAAggggAACCCCQowUS7ysrRzNwcggggAACCCCAAAIIIIAAAggggAACCCCAAAIIIIAAAukVIMMpvXL7wXoaz2nQoK/SdaRal4IAAggggAACCCCAAAIIIIAAAggggAACCCCAAAIIJCJAwCkRpf20Tp48uRMeY2hvnGL58uWsefNmflcHH3zQ3tgl+0AAAQQQQAABBBBAAAEEEEAAAQQQQAABBBBAAIG9IEDAaS8gs4skgYYNG9hbb70KBwIIIIAAAggggAACCCCAAAIIIIBAFgsUL17MZs6aY3Xr1MriPbH5WAKyVxukVmin1IRy7nKukZzbtsGZJdrGQf2c8ErAKSe0IueAAAIIIIAAAggggAACCCCAAAIIIIBAhECXc860u+552NatWx8xl8m9JaBAktogtUI7pSaUc5dzjeTctg3OLNE2DurnhNdca9au/TcnnAjngAACCCCAAAIIIIAAAggggAACCCCAAAIIIIAAAgggsG8Ecu+b3bJXBBBAAAEEEEAAAQQQQAABBBBAAAEEEEAAAQQQQACBnCJAwCmntCTngQACCCCAAAIIIIAAAggggAACCCCAAAIIIIAAAgjsIwECTvsInt0igAACCCCAAAIIIIAAAggggAACCCCAAAIIIIAAAjlFgIBTTmlJzgMBBBBAAAEEEEAAAQQQQAABBBBAAAEEEEAAAQQQ2EcCBJz2ETy7RQABBBBAAAEEEEAAAQQQQAABBBBAAAEEEEAAAQRyigABp5zSkpwHAggggAACCCCAAAIIIIAAAggggAACCCCAAAIIILCPBAg47SN4dosAAggggAACCCCAAAIIIIAAAggggAACCCCAAAII5BQBAk45pSU5DwQQQAABBBBAAAEEEEAAAQQQQAABBBBAAAEEEEBgHwkQcNpH8OwWAQQQQAABBBBAAAEEEEAAAQQQQAABBBBAAAEEEMgpAgScckpLch4IIIAAAggggAACCCCAAAIIIIAAAggggAACCCCAwD4SIOC0j+DZLQIIIIAAAggggAACCCCAAAIIIIAAAggggAACCCCQUwQIOOWUluQ8EEAAAQQQQAABBBBAAAEEEEAAAQQQQAABBBBAAIF9JEDAaR/Bs1sEEEAAAQQQQAABBBBAAAEEEEAAAQQQQAABBBBAIKcIEHDKKS3JeSCAAAIIIIAAAggggAACCCCAAAIIIIAAAggggAAC+0iAgNM+gme3CCCAAAIIIIAAAggggAACCCCAAAIIIIAAAggggEBOESDglFNakvNAAAEEEEAAAQQQQAABBBBAAAEEEEAAAQQQQAABBPaRAAGnfQTPbhFAAAEEEEAAAQQQQAABBBBAAAEEEEAAAQQQQACBnCJAwCmntCTngQACCCCAAAIIIIAAAggggAACCCCAAAIIIIAAAgjsIwECTvsInt0igAACCCCAAAIIIIAAAggggAACCCCAAAIIIIAAAjlFgIBTTmlJzgMBBBBAAAEEEEAAAQQQQAABBBBAAAEEEEAAAQQQ2EcCBJz2ETy7RQABBBBAAAEEEEAAAQQQQAABBBBAAAEEEEAAAQRyigABp5zSkpwHAggggAACCCCAAAIIIIAAAggggAACCCCAAAIIILCPBAg47SN4dosAAggggAACCCCAAAIIIIAAAggggAACCCCAAAII5BSBvNnhRD6Y9K7d+8MdtmrjyuxwOBwDAggggAACCCCAAAIIIIAAAggggAACCCCAAAIIIJBugdKFy9gdx99r5zTolu5t7G8r5lqzdu2/+/qg6z9by97p8oEdVvmIfX0o7B8BBBBAAAEEEEAAAQQQQAABBBBAAAEEEEAAAQQQyJDAxEW/2XnvnWOTe8/J0Hb2p5WzRZd6ymwi2LQ/XTYcKwIIIIAAAggggAACCCCAAAIIIIAAAggggAACCMQTUMzjv9arW7YIOMVrEOYjgAACCCCAAAIIIIAAAggggAACCCCAAAIIIIAAAghkfwECTtm/jThCBBBAAAEEEEAAAQQQQAABBBBAAAEEEEAAAQQQQCBbCxBwytbNw8EhgAACCCCAAAIIIIAAAggggAACCCCAAAIIIIAAAtlfgIBT9m8jjhABBBBAAAEEEEAAAQQQQAABBBBAAAEEEEAAAQQQyNYCBJyydfNwcAgggAACCCCAAAIIIIAAAggggAACCCCAAAIIIIBA9hcg4JT924gjRAABBBBAAAEEEEAAAQQQQAABBBBAAAEEEEAAAQSytQABp2zdPBwcAggggAACCCCAAAIIIIAAAggggAACCCCAAAIIIJD9BQg4Zf824ggRQAABBBBAAAEEEEAAAQQQQAABBBBAAAEEEEAAgWwtQMApWzcPB4cAAggggAACCCCAAAIIIIAAAggggAACCCCAAAIIZH8BAk7Zv404QgQQQAABBBBAAAEEEEAAAQQQQAABBBBAAAEEEEAgWwsQcMrWzcPBIYAAAggggAACCCCAAAIIIIAAAggggAACCCCAAALZX4CAU/ZvI44QAQQQQAABBBBAAAEEEEAAAQQQQAABBBBAAAEEEMjWAgScsnXzcHAIIIAAAggggAACCCCAAAIIIIAAAggggAACCCCAQPYXIOCU/duII0QAAQQQQAABBBBAAAEEEEAAAQQQQAABBBBAAAEEsrUAAads3TwcHAIIIIAAAggggAACCCCAAAIIIIAAAggggAACCCCQ/QUIOGX/NuIIEUAAAQQQQAABBBBAAAEEEEAAAQQQQAABBBBAAIFsLUDAKVs3DweHAAIIIIAAAggggAACCCCAAAIIIIAAAggggAACCGR/AQJO2b+NOEIEEEAAAQQQQAABBBBAAAEEEEAAAQQQQAABBBBAIFsL5M3WR5eJB/frwl/soz/et9HzfrS/1sz3W65e8gA7pkYLO7vhuXZk1SaZuDc2hQACCCCAAAIIIIAAAggggAACCCCAAAIIIIAAAgj8dwT+ExlO//vmBjv99VPs7V/fsDkrZ9v2Hdv9j6Y1T8tUh4IAAggggAACCCCAAAIIIIAAAggggAACCCCAAAL7r8C0qTMTPvhPP/om4bpUTF0gxwecug042weVRHHFUb3t20uG2tzbFvsfTWueigJPqptZZfv27fbcMy/br7/8llmbTHg7y5etsK1btyZcPydVHPfTL9491jn9NX+BX7Z40ZJYi7PlvGVLl/tjnj9vgT++Tz4caF989vU+P9aXnnvNfho9bp8fx/5+ADK8+/b7rN9dD9nfCxelejrR7R/9PtUNZKDC1198Z598+HncLfz+2x/+Wt22bVvcOiktSG37Ka2b6LKVK1fZ22+8Zzdefat9/MFnia6WqfVyyufzIvc5+u+//2aqzd7aWE75/MroPbe3vFPbT2aeR2Z/Jub0z4wd23fY0iXLUmui/+TyRD/jMIx9eaT13zext5L5c/n/WeabskUEEEAAAQQQQCA7CiiAdF/fp+3+e55O9fBU59OPv7W0BKhS3eh/vEKODjgpa2nE7GF2QKkaPtDUp3Vfa1jpcMufJ7//0bTmKfCkOqqbaKbTpRf0tjYnnhHzp9vZF9u2bdvtqUf724Txv2fKJaaHuHoos2XLlhS3t3bNWju2SWu767Z+KdbbWwtvv7mvnX5KZ9N/yIMy8bdJ9lC/x238zxOCWf61y1kX2v9uuCPZvLS+GffTeO8ea72FCxb5ZUsWL421OE3zup9ziT1w76NpWic9lRctWuyPecFfC/3qekg+MBsEnB576GkbO+aX9JwS6+wSUBDxwq6X2fQ/Z/oH95s3p3xva7Xo9o9+n5W4n3/ylb33zkdxdzH+59/8tbpta/oCTiltP9HPv7gHt2vBow88aU88/KwVKFjQVq9ak1r1DC+fOuVP0wProGS3z+fguNL6OmLYj3biUafYwE+/SuuqCdfX342nH39+j/p3/O8eu+yiq/aYn5YZafn80nUyZdLUhDevh/f6t4ECqFldMnrPBcca/Fvmgi49bcBbH9qKFSuz+tCTbT/R83j2yRdi/psrOH4FCDL7M3Fvf2boizHBF0yElNWfGU88+qwd1+zkZPtM1jj/0Tdp+YzLqYZp/eyLvFTS8++byPUzczr6nuL/Z5mpy7YQQAABBBBAAIHsK9Dx7FPtkEPr2tQpM1MMOinYpDqqe/AhdbPvCe1nR5Zjx3DSmE3KWlJ54axXfaDJv4nxS4En1Wn7Siu/TiJjOrVtd7KtX7feb03fmN+4YaNddmUP/75osaIx9pKxWXNmzbVzOpxvX3z3odU7+MC4GytWvJhde2Nva9T4sLh19uaCmrVr+AdAf06bboc2OMTv+usvv7M3X33X1jm/xk0b+Xnz5/7lg3OtTjphbx5euvc1e+YcK1e+bLrXZ0UERo0c4xH6v/SElS5TCpAUBBL9/EthEz6oN+iboXZ2lzPt1jtuTKlqpi077+weduP/rrGu53f228xun8/pPdFD6x9sva7uaUc2OSK9m0h1venTZlijI/f8O7Zk8TJb9Hfq2YCp7iDBCt9+NdgeffApmzB1dEJr6Esh8+bMt3/+2ZBQ/X1ZKTjW8y441w5v1NBnWb75+rv24nOv2nfDB1qhQgX35eHtse9GjY+wYsWK+fkjfxhto34YYzfccrUVKFDAzytRImnZHiumc4Yy+Pb2Z4aCoSpPPfeIf83qz4yTT2llBQsWsIqVyvv98StJIC2fcTnVMK2ffZHXTnb69030PRV5nJkxnei/T7L6Xs6Mc2EbCCCAAAIIIIBAThO47c6rfbApCDrpfWSJDDZFL4usx3TaBXJshtNHf7zvNdRlngJK8cpjPzzkF6lO0L1esG68dTS/49mn2wU9uvmfSpUrWuWqlcL3Z3U+I1xV2TTqLiv4Bu67b30QLtuxY6e98uKbPgOo0SHH2BU9rjF9Qze6fPn5N3Z3n/v97Juu62PKoJoyeZpN/mOqn9brtVfebPp2cu7cuW3MqLG2cMHf4WY+GPCJ3//RjVr67rvUhdfzz7yS8PK5c+b5b5RrfZ3He29/GK7b9477TeekoJsCYt8PGh4u00SL447y738e+2s4X5kxRYoUseA/pFrwy89Jy1scf7Svl9I+FajSObRu0c6Ob97G+8bLDpGdvL77eki4f02oqzrNj+4i7Gbn+2C/x5LVTeublNpV3yi/ptdN/rjV5jIbOWJUuIs1q9fanbfea7LWN/w///jLcFkwsXrlarvv7of9NtQeb7zyTrDIv44a+ZMpW0zb73R6t2Rd8KW0fz18lIm+2Xv/PY9Yx9O6+AeQO3futP5PvWinte7ozZ945Nlk+4t8o+swMvNL3/LXNme4LB4VPcBTduCrL73pp++980F/TelY1Z6R5zJ2zM/eShY9zu+1x7UV7FfXt/aherKdOX2WrVu7zs8b9v0PQTUb/N1QU2bahg1JD4I3bdrsHyTLWY66llV0jB+9/6k31PWlc5KbimwibX8Zt/u6jnUcWifWfN1/b70+QIvtyp7X+WPVN4KV4SfroGiezu23XycGs+K+vvz86/4zIPJe0H2n9fXwPrLoHFOyV13dM4GruqCLfsivz6DePa/37nKdMP63yF34gHJK92lq2w82Fu/zT8vl0+vSa/0xqA2feuw5l126Z4aVrokb3Dmo7b/8LOkzQXUDn0V/Lw5257ehzEyV4DNWXQNdffmN4bmOGbW7O8lY15HW07Wo/enhvRzV1Vesz+eU7tdE9h8euJuQh8x1L+iz5YVnd3/Ox7t2Y933wX51H0SW4PNxrbu/fh473mVfrAsXq/tY3du6Z3S/Bp/5KX2WhyuncyI4dv1NCq4DfeZFtk9qn1+6h3X9ykyfQ7qmdcwq+qx77eW3fDuqDVVP3dWm9BnvV0zhV0p/v1I6Fm0yI/ecMn90Xet6078VIj/HmzQ70tp3ONUu732Jdb+wi+nfLct2febJT5/L+pyUz8XnXZ4s40ufb/pboWX60efKpo2bvEBwHek1+DdKIufhV47x6+hjm4X/zjqycdK/67qef044T/+uUNEXgNRuOi61q/5e6loJSrx7IViu1739maG/WbfeeKf9OGKM/9H1Jsus/sxQ9rQyw4OSyN/d4L7T3/fg74g+fyP/fauAq5YF/07TZ0eQOZeWfycExxW8xruOU2rTWJ/R2l5K93HkZ5z+na57X9sJSvC3Q39bIw0TsdFniP6dpM9KuWn7uq90DrFKvM8Mfc7pOpk0cUq4mjLiNC/oejmeS3BvxvvbFu+zL6W/McFBxPv3Tbz/L6T0N1DtrX9/fPrRF/5vmj5j9H6W+9KX7hcZRv87OjiOePdUsHx/+P+Z/u2n89N5K7NX/z7U36igpPT3NZ53sC6vCCCAAAIIIIDAf0VAgaRYmU4Em7L2CsixAafR85L+43b6oWfGFez09un2+MiHLQg6BXWDdeOumIYF77z5vu8Kr0PH9pY3Tx67544H/MNwbeJ190DkkfufsMOPaGBXXtvT1NXca+4/ntElj1uvZMkSfvZBLrup4WH1/TeP9Z9QdUt3Vvuu9rN7YFChYtI3VPUgUP8pVNF/KhXAULn0iots9eo1vlus4IFaasv10OCsdt1s3ry/fAaX9q/gl8YhUflz6gx/Tgqq5c6T2wpGfSP6wIPqWpkypcMHgPoPoP6Dfv0tV/mHWsGD/LGjf/b1VD+1fV7X+xb3n+lv7IyO7fxDMgW7fhi+53/U9Z/YG6+5zbuc5L7FG1nKVyjnH4q9++buAKCCfeoiqlr1qpFV0zydUrvKf+uWrXb2uWfaNTf0sjVr17o+RZO+yawd9bmlrw9QHOMCdR3OaucfDkYfgB46/jZhot+GuirUgwu1ucofv0+2Ht2vMGWMXXBxV1u//h+76drbfbBFy1Pa/86d//rrSf+pVQZaKZd1ky9fPv8QSV1bFS9R3M6/qIv9PuEPbSpmKVW6pH84GTz0H/TN936b43Ydnx4SKMBWsWIF0/50HbZsdbzPAjmgZnV/LromdNy9LrnOFIC7wWWIHHZ4Ax/AiN6p/jOu67vugbVdvavdt7Qr2IaNG22bG0NN98bSiO4Tdc3KacvmpPHNbnLXhoI0+fPns9Pan+LaJSlQMcA9vO5zyz0uwLLYX1/FXMaiHhBpX7IpXKSw39dOFzDu47r3Uol3HPHmFyiY30qWSLqnGxx2qL+nixQp5B8czXDBkaBs3rTJn8fKFbu7ZQuWRb/WrVfHdXP4s/8Jln3jsgmnTZlutevWCmb515TsVUEPsBQwUeD64p7n+y7o1HZB0WdPr0uutSGDhtlZ53Swxi7TZezoX4LF/jWl+zS17UduKN7nnx4qn3nquTZ08Ahrf+apVqVKJXvu6Zfs4fueiFw9nNY9r6IvB+gztGatA2ytu/90nfzjrregKHvxd3d/qQSfser6cPuO7dbtgnPcw/Zp9vjDSVkIqhPrOsqVy6xU6VJabNUPqOb3V6Zsaf8+8vM5tfs1kf37je761bfPfTZ86Ei75sYr7aRTWrpAyUa/JKVrN9Z9Lys9OH37jaQvbmgjkZ+PG9zfBbmtXrXab19dB3btdJEfs/DEVsdZHXe9bXT3YWqf5X7lDPwKjl1/k3Lnym0d3Zc95syaZxd1uyx8OKyH4Cl9fi3462+r4M63x+UXWI/Lzvd/q4JgcEHX9aLudxVdM/Vdlm4u17gpfcandjop3RcpHUtG77lFfyd1N6e/D0uWLA3/TaHj1Zgm+szW35ZPXWBUf7OrHZD0d1B/C/Q3Rp+TytT7fcIk69iuq//7rXXnzJ5rDQ+v7z8TT3f3of7N88PwpC9RBNdv5L9REjkPbTcjRV0Z67iPb9nCDnP/vlJ76t9IKindC9H73JufGdp3yZIl/SEo41XXWw33GaWSlZ8Zuha0fV0Dif7dDe6766/6n038fZLF+vftDW6ZroVDGxxsxx53tP+31QXnXuqDPGn5d4IHiPgV6zpOrU1jfUZrkyndx5GfcQfWq+2N9Pc1KF8N/Cb82xppmIiNuq1UELeO+3dLt+6d3Zc7BtvoH8davL/z8T4zDq1/kP8c1vpB+dFl/emzuZ77t3RKLsG9Ge9vW7zPvnh/Y4L96zXev29i/X8htb+Bau8vB37rvgjS35o0P9JanHC0f68vQC1z/6Y7t9vZPuD36IO7/yZHHku8e0p1svv/z3RPntvxAps5Y7b7d1h3U48R+lsWdNWe2t/XWN6RNkwjgAACCCCAAAL/JYHooBPBpqxv/Rzbpd5fa+Z7vYPKH+JfFVxS+bj7F+H7n+aNtqNqHGM3HH+LnxfUDdb1MzP4q/e1l9tV113ut1KrTg3/LfnJ7oGlvqn73NMv2ymnnWT3PJA0btF2N+6THpLcdtdN/lutwa5Pbd/GPezJb8rW6OEe/gZd6qlrIZU77vmf+09XJ8ubd8/mVLaTyufffBB2j6NvnAYlteX6Bqu+pf/ec6/7/Z7j9qPMhJEjRluQyaWHiy+/2d8quwe+0UUP59qc1tqPCxGMw6I6Z3Zq77/9qge7CgYN+36knd7xNP8wL6V96uGRutG5697bwm6qprqHZHro3KZt63D3CqTpwdqxLmPqocfvtTwuGBZdOp1zps9q0bdTFWT6Yde3S9ucuns70esk8j6ldlXA7vlXnwo3U7JUCdM3fxUgzJcvr3+A37PXxb6bIFVq5L7FrW83RpbmRze1N997yc9SELHhgc3sJxewa9q8sb312rt+/rfDPrMSLkip669Jw+Ps1RfeNHX7ktL+g4drCuT16XuLFXfdM6q88sIbpqDIe5+84d+ff3E3q3dA7KxBPWzWwxT5+7ZyQT9963ycy2rTN+d/2ZXppkw2tclr77zgt6lfepCga1MPXho3PcJfd+07tA2vs7BixMRc13WVirINa9aq4af1K3LcnHBmxIQCXQqWdDnvbLv7vtsjlpj1f/JFfz0MGvFFsutG3/jVubz02jOWJ28e17drPZ/tpOBevOPQt3JVoo/v8CMa+sCjxmWL7BIq2YGk8c2xLkip4xv87VA7wT1oVTBSgVl1IRf92ZCSvbI3P3zvE7/3Lwd/HF4Heqimb0+r6F7Rt4NfftON/3HCsX5ekaJF7BE3RpLK/9m7D/ir5j+O458m0pCGhpJdKYQGKWQTkr1X9iwyQrLHPysiEhrIXhkliuwoElGk0E5KSZr/7/t7f9/rdN3x69f9/fp1f69vj+4443vOeZ5zz72/8znfz1fBqXSf00z1+0ryHlKd/9T6RuemPo/3Mh13KrrzVxeXFXCp6NYnFAXjul7T2V1gHOht9LlQ0TGQn/Lk04/Y7q1b+knVr4WC3LrbfeaMmSmPo9p1avvWoAcfekD8XJW4rEyf1zB9quUnpjzTBSad84478agwq3/W+qY6dmvm3aiQ+Lk/6pgj/M0FCjpuXq+ujXTnaBWdH6e5/vCiJbRMfGP4i6YWv6Go9Uum748w7do8d+56kW+dozp0LCj4pYut+p7NdP7S8a7/oUz7bYYNfWO4/445/+JONn/+fPvNBaWuuq5LmCTtd3d8oiQvMn0u0q3L2n7mwuq88NpT/nyu9+rbREWt//Q/lF59esZ/gzxwbx9TejHNp9L+iIPtCNfaSftWN01E01Oq5aQCnroBRL9tQon+RlGLxXTnjjDP2jwrVe+g5/r53xNz58y193Z7392kMc59x7T2n91UnwXd9BDKujhn6BjTDRkKRESPt7BOes72OSNatwLI+rxm+t4N86T6fav0fGpZ0+nc06xrt85+8sYuOKIbrj77ZLT/jOb3d0JYVuJz9DhW4CvVPl25amXKc3S632rR5e2xZytfv1rw6/yi79Yhr76d9Ls1zJfKRuck7WP9Xus34CE/+YGH7O/70QrzRp8znTP0ORvifqdfcc1l/njXd5p+k+vvhHQuYRmpvltSnftSfceE+vR85tmnpvx9k/j3glorqaT6zepHuocRH7/lz0n6bae/QS689Fy7pMv5frRubnj0ocf9DQ7R733dJJXsMxVaqqXbR+mODbU6DCXV75Ns/H0WWq7pN04LF2xTUQv2Ye5GLpV0fyvl5+8zXwkPCCCAAAIIIIBACRJQ0CkEmrTZavVEGr3COwD+G6EovGWt85oVYAqBpxBsCgGowlo55cYPJbRAUooatdzQH/ZK7ab0ZSq6cK0/ptQ3lIIF+S26GJR4QTnMqzuNdXE78cJkfseHllAvPv9qmMX/4f2ju+MulFpKKZgk2BTG77VPm3gQYuwXX/t+m3RxQIGTL92dyA223MJbtHUXg1TSLbOqC9CofP7ZF67VVSzYMNe1/tD/aDnV3UmrIMkDD/f0rXSi48Jr/aGulBPvvfO+Dwi841KutdtvL6tevVqYZI2f87NfdcH6veEjbe6c3+Ot3RSMU+BLpVmSfkuiK1LWBaZCUd8VCkrpYqQu/k10+0UXGsLxo8BIq9bNV2t9kmr5oU61FgrBJrUi0cXBQ9ofGEanfW7Rqrkfrzum9Ye/jnEFdP53232uRdNKn+5RF8R1IUBFfzwr6DnBtZCoXiPWJ5Ys1CpE+08poHS37umdTvHBMj9T5KFV6xb+eDxonw52wcVnuwv7x+Wrb60p7rOmomMwWtQCT59B9dGWGKTUhZ9KlSvanbfd42dZkpde5yd3h3+q9Ug1PLrMbL3WOeCEk492LRhfsBtvu9YH/eR/uEuVlaykste0E777wR9H4TjQMLUgCUUWKmp5Fi9q1pNXfnEtIlVSfU4z1Z9XTdontWRR0fktFF2U0QW3aS5IEgLzYdzaPOtu71B0vlNZ5Y7nVMdRmDbTc34+r6oj1fIT6z/SBU4UYJn223TXWuc0fz7TNOmO3RBwin7uNY8ugqrlkC4cq4+foW8Nj58fEwNO37tWq2qNEQ02qY5053KNz1ZRK7hQGu/Q0L/UeUWth/Nz/tJ377vunFymdBnfaiualjLUG54znePDdMmeM30uNE+qdVnbz1xYH51XE4tS6Smtns5/auWr9JEDn+3nWkls48/hLXbfLT7Ltttu7V+rJaCKzutqna3UXJu6llFqFfvPP0v9uPAQ/Y2SaTvCPGvzrJbWutlFJXyvrFixwr9P91mIBpz8xGvxkOozW9zOGdFNzO/3bpgn1e/bsI3RPt7UR5iKzglHHdvBv87v7wQ/ccJD9DhOt0/DcZD4Xb8mn2N9tyqIryDrTbdd51uY+8DcEcm/W7WqqWyUblI31agPvFDCOob30edM5wzdKKAAjL5TddONXocgcDqXcHyGZy0z+t0WXYfo61TfMdFp0r1O/Hshv9+BIchTtWqsFWDULPxmX5n3GU+3/Oi4VPso07ERfl9H60r1OnruS5wm099n4YbAJq6VYCiRn1n5+n5N9A718IwAAggggAACCCCAQGEL/HsFsbCXVMT1198klork+9nf+SUrsKTWTAo0pQo2hWnDvIW5ytH+BMq5P2b1X3f+6Y7QinmdYmdj+fNdCrcVK2MXWpLVl2l8uPCmC3FhPXVRWynf8ltauAtZKrqz9VP3X3d2qjRvuYtL/zXavnB9f6i0zLuolW6ZYZz++Azro36iTnAtrxLL0qXL3LavTBwcf6+0NWoV9ebrQ/2FNl0EUBq7tSmZ9qtSFrVqtrdPi6E0VMPfGekXpzvDQ1qvihUrrtEqKCigi6oqChBVyQvmhEr0XhdHdGEw3fLD9NFnpexQUaAlP0V/wCuQp74FFEzURaF999/bL18XpRUMUEsrFd1l2m6Pg10+/m5+vV558XU/XBYquuCpINKwt97zd9QPfuoFPzz6UMdd/H9xyFN2+JGH2kMP9LUD9z7CX/yMTpPstZxUlNonWhbn9T2iYyOxhH0bjjul2tPndetttrJU65FqeGLd2XovB+3r0Z+NsXfdsaUgwA4uDVhiyWSv1EqJx1G0jnCsbhAJxETHZ/qcZqo/Wleq138vifWnUcGlIgwlGsgMwwrzOdVxlN9lZvq85reeMJ1ayynAq7SU6hMw3D2e7tgN8yY+6zOw7wF7mzqOV5Ba6aR0cTNZ0XaEi37R8eE4KMj3h25KCClXo3WqL7GNKvy7z6Pj9FqtgVV+n/u7v+Ndr9Odv9SP3wF7H25DXnnLPvt0dMbzR7BUveFckN/v7uCR6vsr3bqs7WdO65uqqLWmWkjqbv27H7jDT/bmkKH+hgC9iQaedRODUu6FVgIKTintk24MUEtj3Tih75pUJdN2pJovW8PD/gv7Lnoez9Yy0tVT3M4Zieuan+/dxHkS34ebMaK/ZeWsssSdt9fkd0Ji3cnep9unqbzDPKovHAvpPsdK26rv1i9dX4UjXLYBfbc22fG/363J1i86LJwDQgA0Oi7Z6zB9qnOGWovrXKl1Cin/9DlWCdsYti8bx3qq75hk656fYdn+DszPMjNNE9w0XbBLd2xkqi/V+Ex/fyntoUqqv2PCsVGQ79dU68RwBBBAAAEEEEAglwVC6ya1bErWp1Mub/u62LZ/m0qsi6UX4jJbN2hjk3//yV779mXbsfbOfkkKOoUWTslaNmlaFc1b2CVcnNMd4SHlSH6WGbsUn58pY9Pogv/LL7zu+yLRRaNwMT/UkGm8+kVRUT8t+oOrIEV9YCjtllJ9KeChVB0qah2hdD1DXH52tXrRH80q6ZapNEkqLXdv/p+0UX5E3kO/gQ/5i2DqZ+axAb1NLYGSlQ4utZ8uzCqYoeXv1a5tssnyPSzTflXKRJW3R7zqW53prnDl0Nfdmltt3cCPU5rBkD7DD0jzoE6vFVxotMP2fird4ap0Lcr9Hlq9abwujuiCRbrlJ1uM0uzJRRcT81sUYFK/UbqopDRkqkPLD2m39tonloJNgT61Jnr2lQG+lYr+eN5p+5bxO9PVKk+p0Tqdf7pdfO7l9rALKCl1ZGLRNv/vvlt9C69jjzjFpYN7yTpfeZGfLPRhkzhPaJGn7dKxFEqNvFZWCpgpZUu0KK3YhPHfu/7HLv1P6ydNl2w9lFYw1fBo3dHXIcgXHZbf12rVo//DXGs9pbQ73qUMTFYy2Sv1ou6UVt9V4QJ+tJ5wLlDLtGQt8kJLl1Sf00z1R5cVfR09/2l/qOjO7tDKKfQvFpYfnTfZ63A+XOz6yipISXUcRetaZdG1jo6JHTPpPq+rT535nT7jShN57AlH2YP39fF9WnW+8mKfEi/VsRsCB8lqP/Low32aQgVCVNQnTrKiliE63nT3fjQYlO5cnqye6LDtG23r08hG61R6P921nyrwpfknTfrJV6PjIz/nr/6PP+2/f0J6K30nKfVitOhCcyiZzvFhumTP4bhM9blIty5r+5lLtj7JhpXJSxc11/WPEloHjf1yXHxS3dyg83Z918eTWmPpJoKuLp1Xp/NO99OccNTp8XR88ZkiLzJtR2TSQnmZ6TyeaaFFcc5QyrZUJdN3fKr58js8v9+76epTP3kq474eH/8tE9KD1a1bx4/L7+8EP3GGh3T7dJ47VlUSv+vX9HOslpM6docPG2Hqm1IpggtSdJNLrF/TT62LOzer6PdaqpLpnKEWhUcf38HfOKX+jvRbOqRHTueiVrD5KdFzn6ZP9R1Td/PYfs1PndFpCvt4DstK95kK04TnNT02wnypv+nDFKs/Z/r7a/uG2/kZvnJ/9ygdqIpSr4eyNt+voQ6eEUAAAQQQQACBkiIQDTaFNHphmJ7DsJLiURTbmbMtnI7Z8Xjv9/AnD9q4GV/FLRVoShZs0jSaViXMG5+pEF7oLuHDXF8IysGtnPy6cKNgygvPxoJeiYusVz92cVXTq98X9UuQn6ILhioHuZYf6l/loHYd4qnbNDzT+L3z+ka585Z7fKsV9TWki9nffhNrOaY68lP23reNDzZp2qY7NvGzqKNxFXWAq1R2oaRbpvoBqFV7M3u87wAfqNIFyA9dP0HqNyJadBH84cfu8x09q48k/bEZcruP/uxLf8e+pg93h959Zy/XSuaQ1dKgROtL9nrG9Jn+jm7d1R3+647EdPs1XAhQmpSffvzZB7pC3eoQWNumwIxSt7z3zkgfkAvjw7PSEqo/oc9df0jXXdXD33Ub+iBR3wsqN3S71R8n2i7dca5OvVXSLd9PkORhvwP38Slg7u/Z27dSUxrCdEUdhKsoFVdo3dZ2r9Y+VZP+wNY2qtSoWc0/KzWaLB9/tL9/rwddDBn65ju+Q/oFCxb6jsaVJimx6DOjC/bT3fy6MK2glQJdVV3n6wqUve3q+MG1rHrxuVe9aZhfHZlrPZ7q/6z31vGsAEup0qX8xWxdnNLnRZ81bYdSX6o1nC603nnr3abWaapXrbLmupYUqdYj1fCwHonP226/jb9wr/l0TN9/z0OrTaKgsc4V4fOX+F4TH3tCR993kPb7oXl3Oq9WiXuTzl7Thn6Z9NnRXdNqPfZlXktEjW+e10rx1hvv8sepzlvqUymUTJ/TTPWHesJzsvPf/ge286OVrlHr+Myg532fVUqdFI7zMH+q5y1dOk+VV1xQXvtT/UCsSXA11XGkFh5qIaZjcOS7o/xxpM97Ysn0eU2cPt17neOUDk3Hxh/z5plSU6oo3Vy6YzddnUpzqm3QZ0EppVKlZg0pN6/qcr3/nlBrVn1G0p3L0y1X48I57ZLzu5r6TlGQVIFsFbXkixadL58a8Kw/F9zo0gCqhLv8M52/yjqfP37/w6ZPm+H3vQIo0aI0Yyo6P+i7Q33CpDvHh3kVjA3fC+G5kbtone77K926rO1nLqxXsmd1Sh/OVddedaOf5JQzTvCBdfV1qHNs34ef8N/VN3W/3Y9X2tGQWuo3d77WOVK/T36YMCnZIuLDMm2H0vp1PPSE1c4n8Zmz8KKgn4Ww6MI8Z2gZajGr30Q6D+n7J7Fk85yRWHd+v3cT50t838S1qlW/mANdf3o6JtT/6EO9HvXnEvVhpJLf3wmJdSd7n26fpjpH67s+P5/j6PL0WdBNOz5NZ4rv1uj0qV6f7D5bCsAdffhJdvvNPa39/v+9kSbMm+m7VNMd5lL7KRCv7+Ejj4r91tPwdC4an6kknvvUOi3Vd0ymulKNL8zjOSwz02cqTBeei8vfZ21dv6YKTnY67ULf5+2ZJ5/nb6gK67mm36/qN03n1sQgYqiPZwQQQAABBBBAIFcFQmApsc8mBZlo6VR4ez1nWzjtunlzO2XX023gl0/aeS+eZX2O6hdv6ZTIqWCTplHRPJp3bUs0v3iquq68tovNc50033rj//x/Tbe3u4Ncf9QmFrVa0B/HuiCq//0GPuxasJRJnOw/73Un9YOP3mMvDH7ZX8Q42uXOf/iBx+KtXzKNV78et/3vRuvW9QZ/0UkL0IWE62686j/LSjcgXFxQS5eQxkwXq/R+yuSpvnP3MH+6ZSo92P0P/8+nYQudnOuCqFrBqDPn0u4iQijtXEubm+/obtdffZOp5Yry2qszcQVhdDfmoYcf5PubOOaEI33Q4bAUfd2E+hKfdVHogi8uW23w4Jf6W7r9eozbt0p9crjrdF3lSNfCSkV3TetO1b5PPmgXn3+Fdb/mZj9cwYPEogsow91F0T4PPuZHqX+VcMf/oYcdZBN/+NFfHAzBS124Pb3TyX7adMtPdczecMs1PtCioIP+K82W/ghOVZSKS866YLZzXn9U6gNkgLv4dJDrFyaU1nvu7gMb11zR3Q/S8a0iiwXuouM9LqimY0NFdxbffHtsOj8g72GqC9zddeu9fv00SMEG9UeiCwYXXHK2v1Aua62v1ltBBRW12nm43/3W9dJu/oKPhulY1MVpdTK9aNEi3xeO+sPRvI+5FnNynORsdcEptBRTfn6liEy1Hh+N+iTp+ml5yYpapnww4iPfOk/jQ6uBMK1aGl7dpbtdesGVNnzUEN/yMPpe0yml4c3d7/AW4e7oMH94TmevadTh9KSJP/qWHkqppvOPjru/81oCaX/c3et2u82du853rQj1GVRQOewvtShM9znNVH9Yz/Cc7PynFGD3uPRf1199s512wjl+UgU0b73rhjDbas/Rvg/CCAX4FOxWsEr/Nb/+K5CtEj2fhHmiz+mOI7UwVL9q99/9kB3X4VS7uPN5pk7KoyXT5zXT8qN1KXWqLiiFi9Q6brvffI0PcKQ7dtOl8NR+1DlqUP/BFj0/6i73aOngUu1N+Xmq/25SX086HrrdcIX/Livo90fHYzrY9N9m+HOOAh6h6LtH+z5atK1339ErfiHt9p43+ZaFmibT+Ut9qeh8u49L76l61Crxt19i+1/zK7D52ktvuM9cV79d7374RtpzvOZRCcdU7F3sccLPY9J+LtKty9p+5tIdS2oNp/8q2l59tvXbQEUptHSDS8877vfv9dCte1d/jtdrtQTtff8jPsitz04D19otpNRLtsxM26F0m2oJrQvohVHSfRYSl1fU5wx9rk489VgfrD3pmDP9d8vAZ2Pf82HdsnnOUJ3Rvvny+72b6rdCWEed+3r16WmdL7rKulx8tR+sz9ZDj90b778xv78TQp3hOdkxlW6fpjtHp/utlniO0/IVxL7jlrv9fgmtWzU8apjJRtOfd+FZVt793tNNJfpNod+vuqEn2W/6TN+lqs9/7vJ+S0dv3krnksxRdUVL4rnv7fdeSfkdE51vTV4X9HhOtv6lEr6Xwnokfqb69u8dRqV8TndsJM6U7PdJsn2ZOF+mv7/UwlS/PXUTmm4I0I10ymqgY0Yl3d9KicvS+4nuN53OrX8tWuy/y5JNwzAEEEAAAQQQQCDXBFIFm8J2KugUpqGlU1DJznOp+QsWrMpOVQWvpc5dVWza9b8XvII0c5709DE28qfYHcvn736RHb7DkdawZizvuvpsUhq90LJp763b2VMnPp+mtsIZpTt6fYqa+vX8hfJ0S1H6I/0BXabM6hf80s0THacOmw/ap4O/EBrttDhMk2q87p6f5vrO0MXJZP3bhPmz+ZxumQpKzHEpf5TyS2lD1qRE081pPl2cV5qUER+/5dOF6GKZOkQPqXMS69bdkgpoZCrp9qta9FSvUc0HmZLVo06LK1baOB4YTDXNBq41T7JWBzpOZkyfYZvVqpn0D8tMy0+2POXaV3owXUzOZtGxr1ZJyeqVodLipQqchPXQHccVXL8uoQ+fMFwXL1WH5k92AUnTabxK4rxqLbXQtVirUbO6Hx8egm3t2rVWSx+m8anWI9XwUGf0WcfntF+nW916dZLuf30udHd22J7E9+r3pm3LA3yawcSWINHl6HU6e43X52vRwr9SfubD51BGyS60hfGpPqeZ6tc6REuy85+2Xy0sNq5YIWk/QtH5U71W6wx9pnVRtKAl1XGk/alzis7bqUo4plJ9XlPNl2y4+p+YOWO2T3mWuE/CcpIdu8nqWtNh2hc6pqpVr7bad5SGR78/1uQcq8+hWl6o9Y9SdSkwH4q2Z+eGreyKqy+1M885zbfsqlq1atLzc7rzl9Zv1uw5Vtu1ekw0C8vS/EoPGy3a5/n97o7Ol+5zkWldwrwF/cxF12NNXi+Yv8DfIKPv2+g+UB2yUVrKkIoqP/Wm2w6dt9UiOdW+yE/9maZZ289CYZ4zZKN+kKLpKRO3J6x/Ns4ZiXXruM7P927ifInvtR36PtI5UAGa8J2VOF223geTVOe3VOfogn6Os7XeSlnarWsP329lqnTK4fOS6rs03bpkckk3r8YlnvvSfcdkqivV+LCOhXE8a5n5+UwlW7c1OTa0DYX595m+N/fcbT/b2t3wEw1EJ36/JtsODdP8Oq8kfo+lmp7hCCCAAAIIIIDA+i4w4btJrnFHL9+KKVPKvBB06nj0we5m80MKZdPr3lzNpl+5oFDqLo6V5nzASehXv3m5b+mUbgeoZdMdh9ydbpL1cpzuZlOLGt2B99eiv3xaMbXMefPdl13qli393W7pxq+XG53PlVZrF6USUksptQQ46dTj/Jz6A7P5jm1T1jJ63Af/CU6knJgRCBSRgIKUP7r+a/o90t++HvuNqSVGuguWRbRaLAaB/whk6xyrC3wh4HT2+Wf8ZzkMQAABBIqbgNKDzpgx07dQUUs+tZhWEHfIOy+uUVrn4rZdrM+aCWT6+0yBPvUpqD5aK1So4NOZK6WhWg2rlTgFAQQQQAABBBBAILPAS8+/me8AkgJUjRpvm7nSAk5R0gJOOZtSL7r/FUhSv0zPjxtsH00ZZb/Mj6Xpqr/JFta6QRs/Lhtp9KLLLC6v1fpl8k9TfBoM3YmtwJPS8SnYpJJpfHHZjsJYj54uBZNSNakVyPEn/ptDv5LrJ+fzr99PuUiNpyBQ3AR++nGyKQ2TUl72dCmxCDYVtz3E+gSBbJ1j1dJXx3vFShVD1TwjgAACxVpALUw+/Wi0T7erFVWfhkpBqpbelJIjkOnvL6UIVBrj3q7/M6UrVv9/SmcaUnGXHCm2FAEEEEAAAQQQKLjAmrRWKsxgU8G3YP2ds0S0cFp/d09211xpF9Klgss0PrtrUzxqK4nbXDzkWYvCEOB4LgxV6kQAAQQQQCC7AuqPR/2EFXaqweyuNbUVhkCm326ZxhfGOlEnAggggAACCCCAQHYFaOGUXU9qK0YC6YJNWs1M44vRpmRtVUriNmcNj4qKnQDHc7HbJawQAggggAAC/xEoaF+s/6mIAeu9QKbfbpnGr/cAbAACCCCAAAIIIIBAzgmUzrktYoMQQAABBBBAAAEEEEAAAQQQQAABBBBAAAEEEEAAAQSKVICAU5FyszAEEEAAAQQQQAABBBBAAAEEEEAAAQQQQAABBBBAIPcECDjl3j5lixBAAAEEEEAAAQQQQAABBBBAAAEEEEAAAQQQQACBIhUg4FSk3CwMAQQQQAABBBBAAAEEEEAAAQQQQAABBBBAAAEEEMg9AQJOubdqWvtHAABAAElEQVRP2SIEEEAAAQQQQAABBBBAAAEEEEAAAQQQQAABBBBAoEgFCDgVKTcLQwABBBBAAAEEEEAAAQQQQAABBBBAAAEEEEAAAQRyT4CAU+7tU7YIAQQQQAABBBBAAAEEEEAAAQQQQAABBBBAAAEEEChSAQJORcrNwhBAAAEEEEAAAQQQQAABBBBAAAEEEEAAAQQQQACB3BMg4JR7+5QtQgABBBBAAAEEEEAAAQQQQAABBBBAAAEEEEAAAQSKVICAU5FyszAEEEAAAQQQQAABBBBAAAEEEEAAAQQQQAABBBBAIPcECDjl3j5lixBAAAEEEEAAAQQQQAABBBBAAAEEEEAAAQQQQACBIhUg4FSk3CwMAQQQQAABBBBAAAEEEEAAAQQQQAABBBBAAAEEEMg9AQJOubdP2SIEEEAAAQQQQAABBBBAAAEEEEAAAQQQQAABBBBAoEgFCDgVKTcLQwABBBBAAAEEEEAAAQQQQAABBBBAAAEEEEAAAQRyT4CAU+7tU7YIAQQQQAABBBBAAAEEEEAAAQQQQAABBBBAAAEEEChSAQJORcrNwhBAAAEEEEAAAQQQQAABBBBAAAEEEEAAAQQQQACB3BMg4JR7+5QtQgABBBBAAAEEEEAAAQQQQAABBBBAAAEEEEAAAQSKVKBYBJw2rVDNvp4+tkg3nIUhgAACCCCAAAIIIIAAAggggAACCCCAAAIIIIAAAoUhoJiHYh8lqZQtDht7/V4328nPHGfzFv9eHFaHdUAAAQQQQAABBBBAAAEEEEAAAQQQQAABBBBAAAEECiygYJNiHyWplJq/YMGqkrTBbCsCCCCAAAIIIIAAAggggAACCCCAAAIIIIAAAggggEB2BYpFSr3sbhK1IYAAAggggAACCCCAAAIIIIAAAggggAACCCCAAAIIFKUAAaei1GZZCCCAAAIIIIAAAggggAACCCCAAAIIIIAAAggggEAOChBwysGdyiYhgAACCCCAAAIIIIAAAggggAACCCCAAAIIIIAAAkUpQMCpKLVZFgIIIIAAAggggAACCCCAAAIIIIAAAggggAACCCCQgwIEnHJwp7JJCCCAAAIIIIAAAggggAACCCCAAAIIIIAAAggggEBRChBwKkptloUAAggggAACCCCAAAIIIIAAAggggAACCCCAAAII5KAAAacc3KlsEgIIIIAAAggggAACCCCAAAIIIIAAAggggAACCCBQlAIEnIpSm2UhgAACCCCAAAIIIIAAAggggAACCCCAAAIIIIAAAjkoQMApB3cqm4QAAggggAACCCCAAAIIIIAAAggggAACCCCAAAIIFKUAAaei1GZZCCCAAAIIIIAAAggggAACCCCAAAIIIIAAAggggEAOChBwysGdyiYhgAACCCCAAAIIIIAAAggggAACCCCAAAIIIIAAAkUpQMCpKLVZFgIIIIAAAggggAACCCCAAAIIIIAAAggggAACCCCQgwIEnHJwp7JJCCCAAAIIIIAAAggggAACCCCAAAIIIIAAAggggEBRChBwKkptloUAAggggAACCCCAAAIIIIAAAggggAACCCCAAAII5KAAAacc3KlsEgIIIIAAAggggAACCCCAAAIIIIAAAggggAACCCBQlAIEnIpSm2UhgAACCCCAAAIIIIAAAggggAACCCCAAAIIIIAAAjkoQMApB3cqm4QAAggggAACCCCAAAIIIIAAAggggAACCCCAAAIIFKUAAaei1GZZCCCAAAIIIIAAAggggAACCCCAAAIIIIAAAggggEAOChBwysGdyiYhgAACCCCAAAIIIIAAAggggAACCCCAAAIIIIAAAkUpULYoF5a4rFWrVtnSZctspXumIIAAAggggAACCCCAAAIIIIAAAggggAACCCCAAAK5JFC6VCkrX66clXLPuV7WacBp+YoVNmPmTGu03Xa57sz2IYAAAggggAACCCCAAAIIIIAAAggggAACCCCAQAkTmDBxotWtU8fKlV2n4ZgiUV+nKfXUwumfpcuKZENZCAIIIIAAAggggAACCCCAAAIIIIAAAggggAACCCBQlAKKgSgWUhLKOg04lQRgthEBBBBAAAEEEEAAAQQQQAABBBBAAAEEEEAAAQQQyHUBAk65vofZPgQQQAABBBBAAAEEEEAAAQQQQAABBBBAAAEEEECgkAUIOBUyMNUjgAACCCCAAAIIIIAAAggggAACCCCAAAIIIIAAArkuQMAp1/cw24cAAggggAACCCCAAAIIIIAAAggggAACCCCAAAIIFLIAAadCBqZ6BBBAAAEEEEAAAQQQQAABBBBAAAEEEEAAAQQQQCDXBQg45foeZvsQQAABBBBAAAEEEEAAAQQQQAABBBBAAAEEEEAAgUIWIOBUyMBUjwACCCCAAAIIIIAAAggggAACCCCAAAIIIIAAAgjkugABp1zfw2wfAggggAACCCCAAAIIIIAAAggggAACCCCAAAIIIFDIAgScChmY6hFAAAEEEEAAAQQQQAABBBBAAAEEEEAAAQQQQACBXBcg4JTre5jtQwABBBBAAAEEEEAAAQQQQAABBBBAAAEEEEAAAQQKWYCAUyEDUz0CCCCAAAIIIIAAAggggAACCCCAAAIIIIAAAgggkOsCBJxyfQ+zfQgggAACCCCAAAIIIIAAAggggAACCCCAAAIIIIBAIQsQcCpkYKpHAAEEEEAAAQQQQAABBBBAAAEEEEAAAQQQQAABBHJdoGyubyDbhwACCCCAAAIIIIAAAggggAACCCBQMgXeG/mhDRz0nC34c2HJBGCrEUDAqlSuZKecfKy123vPtBqcL9LylIiR+T1WSgRGATeSgFMB4ZgNAQQQQAABBBBAAAEEEEAAAQQQQKB4CyjY1KP7lbbtNlsV7xVl7RBAoNAEJv042XrcdFfGgBPni0LbBetNxfk9VtabDVoHK0pKvXWAziIRQAABBBBAAAEEEEAAAQQQQAABBApfQC2bCDYVvjNLQKA4C+gckJ9WjpwvivNeLJp1y++xUjRrs34uhYDT+rnfWGsEEEAAAQQQQAABBBBAAAEEEEAAAQQQQAABBBBAoNgIEHAqNruCFUEAAQQQQAABBBBAAAEEEEAAAQQQQAABBBBAAAEE1k8BAk7r535jrRFAAAEEEEAAAQQQQAABBBBAAAEEEEAAAQQQQACBYiNAwKnY7ApWBAEEEEAAAQQQQAABBBBAAAEEEEAAAQQQQAABBBBYPwUIOK2f+421RgABBBBAAAEEEEAAAQQQQAABBBBAAAEEEEAAAQSKjQABp2KzKwp3RX7/fZ6de95F1rHjcTZ69BeFu7Acqx27HNuhbA4CCCCAAAIIIIAAAggggAACCCCAAAIIIIBA1gXKZr3GHK6wy+VX2fPPv5hyC3vdf7cdeeQRKccXxYiZM2fZvHnzrHLlSrb55pvHFzl8+Lv25ptv+/eP9n3cmjffLT6OF+kFsEvvw1gEEEAAAQQQQAABBBBAAAEEEEAAAQQQQAABBGjhtAbHwMoVK9JOvWpV2tFFMvLW2+60Aw86zC686LLVlrfnnq2tfv16VrHixnbEEYetNo436QWwS+/DWAQQQAABBBBAAAEEEEAAAQQQQKAoBH6aPMX69htoz73wanxxU3/5zR5+5Emb8P3E+LBsv/h89Bh7pO8Am+syCBVlWZ7hWmRRrgvLyj2Bv/9e4j9P+kwtXvx3oW3gb79N98sZ+NTzhbYMKi4+AjnZwunY406yTz75LK1y586XWBf3v6Dlphu72zbbbr3a7Nttu+1q79fFmx9+SP7lWrduHfvowxG2fPkKK1u2zLpYtfV2mditt7uOFUcAAQQQQAABBBBAAAEEEEAg6wKTf55q13a/LWm9l150jrVquWvScUU1cJW7I3rcN9/ZBhtsYA233yblYhcuWmSTJ0+1atU2tc3r1k45XX5HTJz0k91w011+8vaHHGAnnXBUfmfN93RTpvxqr77+tlWqVNGOPTqWZWjAoGfts8/H2HcTfrAH7rs933UlmzCV3V1397YlS5ZY+fLl7IzTTkg2a9aG/fHHfHvokSds/Lff28KFi6xMmTJWb/M6duvN3axK5cpZWw4VFZ3Anf97wL4aNz6+wCpVKttWW25hxx97pNWvVzc+vKhf/P333/7zpOV27NDeKlTYqFBWYfqMmX45+vycctIxhbIMKi0+AjkZcGrVqmXGgNOnn6YPSGXaRTvttKPtssvO/5ls7u+/21VXXWurVq40rcc555zlpxkx4n0bOPAp//qsTmdY6z12t3HjvrH77nvAD7vllhvtxRdftqHDhtvXX4+zAw7Yz0479WRr23bP1Zbxzjvv2gtuuvHjv7WqVavanq33sGOO6Wj6QnzOpfubMOF7P/3EiZPszDPP8a+7du1ipUqVsrvuutu/P/jgA908/37pf/75aHvooUf9cpf8s8SaNm1ixx93rOvv6d/0gAVZ19VW3L3RSez++3vbBx+Msm/c+m+11ZbWosVu1vWKzlazZk2bNm26XX99Dz9bgwZbWPfu18ar6N9/kL3//gf+/SWXXGg777yTLVr0l917Xy8bNeojv92q7/DD29uFF5xrG264oZ/2pptvsyk/T7F2++5j7fbZ2/q6dILyvfGm7vbYY4/bwj8XWqnSpe3BB+61jTaKnVQVrOzbt5+f/8AD9zft61R2H370sfXp09e+/HKMn75Zs2Z2ZdfOfv1GffiRPfF4fz88aj5gwFM2cuT7fvg999xlm2yyienHxOWXX+mHbem24/rrrvGveUAAAQQQQAABBBBAAAEEEEAAgeIlsHTpUh8I0FrVr7+5lSv77+W1jTaKXY9Yl2v8m7u+ooDYJu6i9qD+D6dclZHvf+Rb7ey9V2u7ovMFKafL74ih74yIu7zmgkKFEXBKti5HHdneB9fa7rl7stFrNCyV3dlnneyuZU2wffdps0b1renEaq11SedutiKvZdOmVTexii649qe7frVixco1rY7pi4nAnLm/+8+GrlfW2qyGzZw1x9Tq54NRn1jXyy+0vdrsUUzWtPitRrfrbrFx7rOXrpx4fEc78fh/r3Wnm5ZxhS/w7zdi4S+ryJawuwv03JthaZ0vK3jrpnRVK4AxzAWNVCpH7jr4bdo0e2f4e354+/aH+ucZLrobhoVnP8I9qI6PP/7Exn39hZUrV84Pvu32u+zhhx8Nk9gvv/zqgyd16tR2d1iUX22cgjGhzk6dzvR3Q4T32223XbwO9UmlvqmiRQEX/R8/fnw86LOm6xqtT68VbDro4MPdnTM/x0fptf4PGfKmvfXma1av3uY2duzXrnny736aLl0udSkAK/rXj7oAkLZXpVeve+2vvxa71IHt48M0XHUpgKfA1T1336lBLrDzgU2a9KO7K+Q7u7vnffG6//zzTytTukzcaPToL+PBvddffyM+/JxzOtmCBX/G30ftnnnmObvyqm5+OeFh1KgPXQDsQxs5Ypj7AtksPt+Sf5bGg3yDnnomHhj8csxY27fdPvbNN+Pj01566UWhuqw+r1wVy/lY2gUfM5X5C5fZKyOm26ixc61Ns+p2+uFbZJqF8QgggAACCCCAAAIIIIAAAgiUOIG777zR3cC6epBp8HOv2IiRH1rdOrWs+3VXmFpEqYVDGZdx5tYbr7E3337XX2huvUcL+/jT0TZjxix3DaGmdb70vNVaJH362Rf2RP/B7uL0bNeypZIpMHTqKcdZWdfiZYG7rnHl1Tf5ZRxx+MFuumdsm623tLZtdvetY7Qj5rvrGedecIVtvXUDu/Ly1a81vP7GUHt68Et+f338yed27qTJdsjB+9kRhx3kb/BVC5uxX31j//zzj2uBsbldeP6Ztu02W6XcvyvdjdfaZhUFurRstThq3Gh7Pyysb/Xqm1rtWpvZqA8/tRVunn3cNp13zmn+utUXX37l0m4NsiZNGtrMmbN9iryKG29sJ7iLyQcfuK+vJ9nDDxN/sp9+mmIKzoTWZbPnzLWHHn7cfnCtrjZw18w0/LxzTvfWDzz0mJ9+idu2DV0rsIMObOdbLalVmLZbJdFuzNhxptZVCggpyKjyi3vdq/djbv9OcUHHcu4G7sZ20QVn+e3X+Ot73GGzZ891dR9vz7oUgFOn/upaKtW1s886xZrs0FCT/Kf0uPkuH2xq3Gg763H9lUlbnOiaX7r989QzL/rja79925pMJ/042QfkTj/lePt56i/2/gcf27Jly63tnq3s4gs7+ZvUwzxrc0xqY5TqUEEUtWjZYot6dpRrNbNn65Z+O7XPBzz1nDfR8XyiawF30AHt/LhgdfWVl9jjTz5tv8/7wx7qFbu25yfIkQcd7/osrXLX6B55bIANeWOY3XNfH9up6Q7uhvQqfitTfe5/d+kcu/eImdzU4yrbrGYN693ncdeg4TvXOulQO/CAfez9UR/b08+8ZLVq1bQbu19ZoGNQK5Hp2H7+hdfszaHD/TVTBUJ17rngvDNs660a+G1YtmyZPfBQP/v4k9H+/dq0oGzSpFHGgNP4DAEpvxI8FJlA6SJbUhEuaPfdW5pS5qUqGqdp1qbccsvtdv75F8f/jxnz1dpU5/tWOvXUk+y2W2+02rVr+br0BfLpZ5/71wpIRINNe+3Vxnr0uM63oFKgZocmjVdLEVi9WjXX0qaL/6/xycqCBQus+w03xUd16HC4nX32mfH3fR9T893v4u/DC/UDlW5dw3TR58f6PRkPNmndrr76CmvaZAc/ibbz9jv+539cnHzKifHZwrZPmTI1Hlg65uiO3kotkEIASvvzpRcH20EHHeDnVRBtlvsxFi0KmIVAltZfAbojIy241BpJRSf8t94a6l9rPzRvvqt/nfgwf/58u+nmW/3gRo0a2uOPP2oP9b4/PtmT/Qfatttu4/vN0kAFoZTOUOahFZqGf+5+PKqMc/s3lP1ca6xsl8VLVtieZ7xvx14ZO54y1f/0W7/aoy/9bAsWLbd5fy7NNDnjEUAAAQQQQAABBBBAAAEEECiRAp99/qW/qKoLq2qxoLJfuzY+SPT5F2P9xfdH+va3adNn2A6Nt3fZajZxQY+Z/r0uzmsetWbR+G7X3xI3VLDnltvv9cM1fp7LjPLSK2/Yg+4irsoKd41B82gZas30408/26zZc+yHiT/G10PTaRoFvBLLRx+PjrdGWrp0mZ8uXEu5+tqb/XornZvGqe7OV1xvc10rjVRF66tpG26/rQ+Mabphw2PZXfQ6rO/X4761t4e9Z38tXuxT1L019F0XgIvduL1gwUK/HkOHjTBNp/q03b1d4CjYqq7EouCUtvPXPH/1RXPehVfYF2O+9tuofpfeGhq7CVwWCiwp2KQbvLUeL748xM07La2d5tMytD4qanF0sWuJ9P0Pk/x6qh4FCi7r4rIe5d3w+3PePNqPk1xAT9ujPqieHDA4cRP8e633nDkx43TpzTLtn3B89R/4rH373Q9+udqXCrQpwKHXSg84bPhIFxSc6Jcd5lmbY3LE+x/agEHP2RQXWKvgsghpm7/6Ona9S4GvO3s+4AN+ldx1OTnqWNYN5SrB6uLLrvGBzpkzZ/nhufqgTFQKAKro862goEq6z33NGtVtzty5/jj81qVbVHn3vQ/8ewWaVEaPHuvfK2WfSnDN7zGoefJzbCvYpGNVgVatv847A92+D0UB0fdGjPLHmYJPOocUtDR117wzlRNo3ZSJqEjH52TASYLqnylZUEnD1qbvprB3Rn/xpTtJvxX/P3v26gGOMF1+ny+95CK71aXVO+WUk1yE/7j4bHPcnRAqr7lWN6Fc7lr+DBr4hJ115uk+9do+++zlgzcXuFRyodR3dxFcfPEF/n+qgNNnn432d61onsPaH2IP9LrHul/fzbpdE0vtpuHDXQq/xJJpXROn1/uXX/63M8dnnx3k0t6dZ6+99mJ80jfffNvfNXPEEe3jw0Z9EAsCKW1dKCFIFDwU7NH+bN58Nzv/vHPCZO6EOiX+OrwYNnSITf5pgk347mtrvtuutnurVqbgl0polabWUCEwddxxx/ggWJg/+hy1U8rC/fdrZ4cddqgpEKgS+tJqf+gh8dl+/PFH34IrPsC9+Mi1YlMZOzYWsNT67LhjUz9sXT58MCZ23D19W3PrcvK263JVWDYCCCCAAAIIIIAAAggggAACxVag570P2W133uf/D3nrHb+e1atXs5NPPNq/vvu+h/1F/40rVLCzTj9pte3Yeacm9sqLA+zBvH6HFJD4ecovfhq1BFFRy4FnBj1iJxzX0b8f/u778Yv0foB7aNO6lW81cXTHw0z/1cpGRS2NVH/v++/w76MPt7n+gFrv3sIPauNaumi6Tmee7FslKWCgct01XeyJvr18f0l6/8JLr+spaVHwQmWP3Zv7/3r9gbsIrpZPieXenjfbKy/0jy//08++XG0SpR179qm+Ph1gjRqx6zYKrOW3vDZkqA+yqO+jm3tcba+9NNCeeKyXn12tpx55qKdf/guD+5n2gcqoDz/Lt52m1zJ0oV190qi+O269XoPdNaV5vj8p/ybv4fD2B9pLzz1pp58aCzCE4EJ0Gr1WOr9QatfeLLxc7VmtxvK7f5rs0Mi0jd2vvTxeh1oNvf7yoHgrrG/Gr36j+dockxMnxoImWu6AJ3r75Zx5+ol+2YOefsE/dzrjJL9fDzv0QP/+E9fCL1p0vGuaSy48Ozo4J19vuOEG/vjRxk13rRxV0n3uFZBsmXdj/LfuOFAAVOcMFQU+VSbkPYdWZX6ge8jvMajp83Ns33DtFfbc04/Zs0/3jZ+/FOBVsHX58uUui1Ms2KyWV/qsq2+7gpamroWTUualKhqnaSjFRyBnA04iTpY2L9mwguwO9cGkIE34v5lLn5atUt1FrBPLTz/+FB/Utm0sqBEfUMAXU10z2lB22bVZeOn7LApvfp4yJbxM+pxsXRMn1I8LBXJC2XrrrfzLsi7HcYsWzcNgd7fKNPdDauv48oe/G7v7RP1fqSgYoyBRtD61FqpXfxv//4gOsR9zmlYp/BKLglMhPaHGlXVN2Y8/PtZR3eTJP9t0d6L+6KNYAEjjj3D9QaUqUTv1lRXW4f33R/lZ9CWgst/+7fyzHtR31Bd5fT2FPrQ0bOHChT59oqZpf9ghVtr1KVXYZejHs+zU67+wF4ZPs+4Pf2f7nTfKevSZ4GxX2R1P/GC/zIzdYdLppjHW54XJfviAIb9Yhy6f2B6nj7Szbx5j4yYtKOzVpH4EEEAAAQQQQAABBBBAAAEEirVAyxa7uH66W/j/at0TivoVUrBEQQmVy7tc4Pqb3iCM9s+VXVoxpcdr0KC+beb6dVH5fPQY//zrr7Hgw95t97BKrruBkHpMI3WhOVoUKFLKuZ123MGnR4teV1D9CrwkFk0TptN4Taf3IeClQIrS0Gkbmu0cuzE2WUsp1asWDCFo1HD7bXx6QNWpi+FfuovQiWVT1ye5rgnt5bZNZbxrrRENTJUrV9Y23riCD4rsltd/ulqS5bf85K7xqGhdtO7aLqXbU6niur9Q1wlK23b/g4/61xq+aNGifNtp+p9dNh6VHRo3dGkNa/sUeZUqVfTDQkDIv3EPW7u+uuUZ0o2F4YnPG7j0fqEolWGysib7Z9NNN/F9nCtdYyg1a1b321mt2qZ+kK4DRcvaHJMtmseuLY7/doKddNr59sab78RTAv42LXbMvjrkbVMrplEffuIXq3SI0aJAVIcjDom3kouOy8XXoV8utQhTyfS517lGRS3Xxo+PtXLS8Rdaz81yfUPps9csL5DqJ3YP+T0GNX1+jm2l7Ht3xAd2z/197B0XBA9F5zu1tAxl33Zt/fFWpUqlMKhAz+qfacckQSUNo++mApEW6kw52YdTEAup9e69N3YXQzZS6YW6r7zyctsl70svDCvM5wV/LoxXH74U4gMK+GKxa+4bir5wQ6nkfvCEonR3a1vCjyvVo6BR9IdOyE+qcX+75rwqxx13tA/OKGXexImT4q2P1OJIQSJ1zhktSpGXWGq4PKb5KUoj+GDvPn7Sjz/51DVFHeFf77TTjrbNNlunrCIxoJW4DltsUd/P22znnX0KQDmOca2YJrkmpirHu20c8d5I35pKrbWC8/777evHF/bDH66Pph9/XWTDP5tt+7WsaROnLrJhn86yDvvUtkZbVrLX3o/9EDi49Wa2Re0KNmTUTB940rjD2ta2Z97+1brcPc6eu6ulbVq5fGGvLvUjgAACCCCAAAIIIIAAAgggUCwFruh84X/6cNKKKsixWc2a8RRpmfpT3si16lEJ1wcUxFGp4AIv/rlC7IK0Xv/j+okurBJaTESDHwr+qKRaroJN4drPldfctNqqqeVT893+vck5OjL0faV5owGn6DQhSBdSr0XHpXodbgJWYCuxqB8hpXZTUUsqpZYrSAkW6mMqlApuHyld3T9LkweLwnSpnqOBIaUo227b/16XKsj+SbW8TMPX9JhUcE+t4hTIk0Mfl0pSfUZdfEEnH5TU8pRaUduwsXPT/623bpBpNXJ2vPpuC5+bOq6/N5VMn/vddt3JT6cUk1+MiWVLOvboI+zeXn3s5Vff9OPUP1j0hns/cA0eMh3basV04aVXu+5MYoElfY6iRf2DhRI+v+H92jwrbd646/5NO6q6SKW3NqKFN2/hN6UovHXPV80htZ6CTdlIpZevheZNFAIoazJPqmm33LJBfNQnn3wWf53qRYiQpxqv4fXr14uPjvYh9G2kOe1W7i6MtS06yYV+qZSuLuQEVr0f56WU02t1nKhy6CEH+2c9/K/nvfHXId2e+l8K9Wkbvh0/1qfJU6q88L/JDo3j86V7sf3228X7khry+psWWigde8xR6WazevX+tet1/93x5Ybl937wPj+/AmTtXUs4lWFDh5tSMao0bdoknn7v/vsf9MP00LJl8/jronhx2F617ej96lq7FrEAnfpsOmLvOlZhw9jdTyccVM/22KmaffT17351LjlhGzurQwPbt0VNU79Q3/74Z1GsJstAAAEEEEAAAQQQQAABBBBAYL0SUJ9OaukRilLrhQu5YVh41kXm0P/QVltt4QerJYrKt999759Dyiy9SZVuzU/oHsqUjv1NvyRDYKpU6VJ+lsV5/ejoTe1asQw+ChjMdy2BVNSaQiVcFPdvIg9D34ndvKsWPmrlpf9hHT93fcqk2u5Qr1L/qcVTsjI+b/vVCixaVq5YGX272us6rk9ulTFjx9nyvBZmYYLX3xjqX+oivdLNhdRu6lNHJb92m9et7aef8P1En0ZsyZJ/4hfg6+Yt30+wBg8bbFDet5bSLP0HxvpCCrPrGFGqsoLsn1DHmjwX9JhUq7inB/Sxs1xaPJURIz/0z9Wrx1pUHX7YQT4FodIQ6n+05Z6fsIQ8KNCpc4KKAjZKJaiS6XOvabffbhs/7SeffmENXJcqzZo19e9Hvh/rmkQpMgtSdHypZDq2lRIytKR6YfDj9szAPv8uzn2OwvwaGFph/TtBwV8lptYjlV7BLQt7zuRn88JeahHX/9yzTxXZEjfKawKpBX7wwShTK50FCxa417ETbEFXZKcdm9izzz7vZ3+4z6OuKW55a9WqhcvxOcOqbrKJuyNgq9Wi10rVpsBUTdfSZ7NI09no8pu6OkNRsKVtmz2tmmuB9PgT/cNg23nnWOQ8PqCAL/bYvZW9+NIrfm4FkS668Dx7fcib8Tt3FNiqUqWKH7/pplXtoIMOsLffHub/a2CjRg39fz+Be9ht1138/PLt7Vooqf+kzTff3KXl+811wDjZNftu6Ztfh+nTPavl1Dfjv423btK0hx76b9Ar2byNXZPpUB7u09eUWlDrpNZXP7mO8PRDpVmzmN0BB+xvgwc/H+8bSv1H6ThROkGZqGNGlcNdCr/oHUSh/qJ4znSn1aq8JtbuBi1fypWN/RBb4e5qoCCAAAIIIIAAAggggAACCCBQUgXOveDyeGo6GVx4/pm+PxGlmlK57OJz7MkBg33wpv/AwXZOp1P9cD18MOoTf+F26i+/xfsDarZT7OLxIQftZ/2eeMpdqxhlU6b8Gu+3R2nZqrt0aPPm/RGvJ/GFWjio6KL2Ra4lwlZuni6Xnpc4me3YtLFfB/WPdMVVPaytu1B94AHt4i1/zjz7EnedaFN33WKWn1frlFjUmuirr8f7weqnRQEHlXl/zLdTz7jQb5f66dGyQrnosqtNQSG14lHZZ+89wyj/rGDX2ed38a/DsvfZq7V/36BB7Abgv1zWnmu732a33tRttXn1Rmm83hr6rmmaY084yxo13M5mz5lrfR++x6ptGgt8KBilFjzRdGCaN792B+y/jw1xKePUZ9MZnS5xXTss0ew+q0+rlrv51wV5uOC8M/x2hX2nIF4ZdzFGwb9bbrzGpwhU0EHj87N/1nQd1uaYVIumCRMmuoxBW9rs2XP9okOWpgP229sGPvW8/ywoUKKA5BTXX5n6+Gm3T5s1Xc31dnq1+NPnIQRztSFnn3Wyux4Yyx6U6XOv6RVQCp8dpdFUukgdJ/rcqKzJ8VfVzatMVGppdV2P263H9V0t07Gtz5WK5nnNpUj8/vtJ/n14UPBYQTGto1pevfn28HiavjBNQZ+VPm/8+AnWhFR6BSUskvlyvoVTkShGFlLL3Qmi4IiKmkG33nMfO+TQDvHASWTSNXp57LFHx1v1qL+hSy+73Fq2amNHHnmsvT10mK9LzbWjaf6OPe4k23ufA3zgKdnC1F/SSSce70ep5dGZZ51r6gdJ/SKpKK3cwS7wk42iFmahKHDWpu2+dtddd4dB1r376j8Qjjm6Y3ycXijNXrR06XJp/O1d/7vH17flVtv759NPP9v+mJ/6h1d8xrwXhx560GqDDjhgP/+DarWBCW8aNtzejurYwQ+V14knnmbbbd/UmjTd1RsOfva5+Bzq7ytaWu+5h38b3VcacKBbbnEtuzWONUPv9/IUe/Hdafa26wNKpfGW/6ZiLK7rznohgAACCCCAAAIIIIAAAgggkE0BXX8JRYEVBR3C/79cAKaf6x9IAYHNN69j++27l13kUoqpvDZkqGvJNC3MahtXqOAvympaXTDudnVnC10PHN7+QNNFepWfJk/xF3fr19/cTXOZH+budI09J3lUf1Bt28SuRag/oegyo5O33r2FbZnXckgtqLQtuvB9c4+r/Poo9VkI+Jx5+ok+kBadX69HffRpfNDOkX5jdBE8tHJKDOqUcxekwwVzpds747QT4nXohS6A//HHAr9svT75xKNt111iN/Uq4KaL7CpqXaQSWmr5N+5BfTedf+7pvh5tw9fjvo3f8NzxyEO9+4/uZuH+g551LYZq+tmUJkwlv3ZbbbmF269n+WVo3+sivPbnjd2v9F0r+MoSHqLHTcKo+Fttm4Jo6jtLJbQ0U91KbZiv/ZN4bCS+d/WGFl1+IZGHtTkmFQidNn2mDR02wsZ+9Y3f/5dfdr6vXX2ahcCS9r1a4+jYLOf6tioJpXRea0IFaRRsCn163dzjajvQBS9Dyfi5dxPusfu/2ZHCZyEESnXOUYvBVCXxGNRxcMxRh/vjWJ91tdTLdGxv5ho3tMsLEg8Y9Jypbzdtjy95n6Pru3WJt9ZTn1Atm8cC0anWa02G33bLdfTbtCZg62DasutgmevtIku7L7n8lM6XXWzdunWPt2jZdttt7MILz7PLLrsi5ezRfo1C893oxGr58tqrL9oNPW62N998Oz5KfQdtsUWsubUG3nH7Ldbz7vvi/R6pz6Qq7kQT/SIp49K8hXLjjdebWhQ98GCsGWcYrr6Nbuxx/Wp36YRxmdY1TBd9Vp9GQ15/yTp3udImTYrdwaLxWr/bb7/Z3X3y78lVw/feu2287yO9PywvLZ1eq6h/pZdeHGxXdL3GFICLFgX8Nq7wbw7d6Lhkr6tXr27779fO3hn+nh999FFHrjZZ+FLQwKjdbbfdbDVd67GHH350tem1Txo1jAUdNUI5fBXEGjZsuJ9OLZxUdFxo2pCfea+9Cu+OjsSfoYm/NRLf+xWMPBzZro7r8+kv15fTDPv82z98yr3bLtrBam76b4eWkcl5iQACCCCAAAIIIIAAAggggEDOCqhvnSGvpM6ms3fbPezC886Mb79a/SSbflfXH0sXd0H+T3cBWtdmokXXXi656Gw79+zTXHabmW78Jhbtf1sBnWR1hjquvPwiu+TCWKBLLWKSFQW5Hrjvdh/U2Mhduyibd91LLYKeGfiIzZ37u6kFUx2XPi6MS6xHF8ujF8yj49WiKJRoi6x7et5sG7jMPeXKlfWtqcI04VnXUZSW7Q8XANM1reh1KE2jgIyCdCFLzHnOSP+j5dCD9zf9Vx0KJVXdpIofve02W9ngpx41tSrThfPQj1R03mR20W0J0yodnIKC06bP8JmIarrsN9Hrb4P6r36tTcGBdPss1Kvpnujby/fno9RlaiUUXc9M++eKzheY/odSv17d/yz3vrtvCaNXe16bY/LojoeZ/s+aPcfvMwWgQinrgoxqZafPhTL9KNAkr9DXUKJVmC9Xnu+6/YZ8bUqmz70qkVvicXStC1YnK4muyY5BBXSVYrJ0mdLxz3mmY1vnrU5nnmx/ulZVdV3/U9HjXuuhwLlSJi74809TP2farqu6XpxsFRmWgwKl5i9YoPPuOilLXf5RdR63c5PYnQnrZCUKaaGKWH/33QSfzq6m6yQym0U5NX9zd8TopKx0eTppJxal8dPdGZu4dHv5KUoFN9XtC9WtAJa+3AurzJ0716ZNm24K9KgvpsTo+pouV62zZs6c5ZsYb7bZZv/5kbam9a3p9Mprq9R+i93dLJUrV7a6desk3SdrWm9xnP5v12/Tgr+WWY1NNnBfFolhrOK4xqwTAggggAACCCCAAAIIIIBASRboeOwZ/7k4u649et7T20Z+8LFvhaTgRkkoCjidemZsW/v3e9AFUVYPsMlA6QOVgkuBMAW8KEUnUBKOyfYdTrKXnnsiLWpxPF+kXWFGFopAfo6VNV3wV647ly1dg4zy7np+rpf/RipyfYuLaPsUuW3a9N8+krK5WAWYGjTYIm2VoT+ktBNFRqpPKLW4KYqiQJP+Z6uolZT+r6uiwN/WW2+1rhZfpMvdaMMyLsfxvy3kinThLAwBBBBAAAEEEEAAAQQQQACBHBCoXLmSb9kTbbGUA5uVdhOUNSi0tIpmkonOpFY8mqZaQmuv6DS8LhyBknhMFo4ktSKAAAEnjgEEEEAAAQQQQAABBBBAAAEEEEAAAQSKSOCcTqea/pekon5lXhjcL+0mq2+aaP80aSdmZFYFSuIxmVVAKkMAgbjAv70cxgfxAgEEEEAAAQQQQAABBBBAAAEEEEAAAQQQQAABBBBAAIH8CxBwyr8VUyKAAAIIIIAAAggggAACCCCAAAIIIIAAAggggAACCCQRIOCUBIVBCCCAAAIIIIAAAggggAACCCCAAAIIIIAAAggggAAC+Rcg4JR/K6ZEAAEEEEAAAQQQQAABBBBAAAEEEEAAAQQQQAABBBBIIkDAKQkKgxBAAAEEEEAAAQQQQAABBBBAAAEEEEAAAQQQQAABBPIvQMAp/1ZMiQACCCCAAAIIIIAAAggggAACCCCwHglUqVzJJv04eT1aY1YVAQSyLaBzgM4FmQrni0xCuT8+v8dK7ksUfAvLFnxW5kQAAQQQQAABBBBAAAEEEEAAAQQQQKD4Cpxy8rHW46a7bMGfC4vvSrJmCCBQqAIKJOlckKlwvsgklPvj83us5L5Ewbew1PwFC1YVfPa1m3PpsmX289RfbOcmO6xdRcyNAAIIIIAAAggggAACCCCAAAIIIIAAAggggAACCBQzga/Gf2tbblHfypcrV8zWLPurQ0q97JtSIwIIIIAAAggggAACCCCAAAIIIIAAAggggAACCCBQogQIOJWo3c3GIoAAAggggAACCCCAAAIIIIAAAggggAACCCCAAALZFyDglH1TakQAAQQQQAABBBBAAAEEEEAAAQQQQAABBBBAAAEESpQAAacStbvZWAQQQAABBBBAAAEEEEAAAQQQQAABBBBAAAEEEEAg+wIEnLJvSo0IIIAAAggggAACCCCAAAIIIIAAAggggAACCCCAQIkSIOBUonY3G4sAAggggAACCCCAAAIIIIAAAggggAACCCCAAAIIZF+AgFP2TakRAQQQQAABBBBAAAEEEEAAAQQQQAABBBBAAAEEEChRAgScStTuZmMRQAABBBBAAAEEEEAAAQQQQAABBBBAAAEEEEAAgewLEHDKvik1IoAAAggggAACCCCAAAIIIIAAAggggAACCCCAAAIlSoCAU4na3WwsAggggAACCCCAAAIIIIAAAggggAACCCCAAAIIIJB9AQJO2TelRgQQQAABBBBAAAEEEEAAAQQQQAABBBBAAAEEEECgRAkQcCpRu5uNRQABBBBAAAEEEEAAAQQQQAABBBBAAAEEEEAAAQSyL0DAKfum1IgAAggggAACCCCAAAIIIIAAAggggAACCCCAAAIIlCgBAk4lanezsQgggAACCCCAAAIIIIAAAggggAACCCCAAAIIIIBA9gUIOGXflBoRQAABBBBAAAEEEEAAAQQQQAABBBBAAAEEEEAAgRIlULY4bO28BQuKw2qwDggggAACCCCAAAIIIIAAAggggAACCCCAAAIIIIAAAgUQKBYBp1o1ahRg1ZkFAQQQQAABBBBAAAEEEEAAAQQQQAABBBBAAAEEECi+Ar/8+lvxXbksrxkp9bIMSnUIIIAAAggggAACCCCAAAIIIIAAAggggAACCCCAQEkTIOBU0vY424sAAggggAACCCCAAAIIIIAAAggggAACCCCAAAIIZFmAgFOWQakOAQQQQAABBBBAAAEEEEAAAQQQQAABBBBAAAEEEChpAgScStoeZ3sRQAABBBBAAAEEEEAAAQQQQAABBBBAAAEEEEAAgSwLEHDKMijVIYAAAggggAACCCCAAAIIIIAAAggggAACCCCAAAIlTYCAU0nb42wvAggggAACCCCAAAIIIIAAAggggAACCCCAAAIIIJBlAQJOWQalOgQQQAABBBBAAAEEEEAAAQQQQAABBBBAAAEEEECgpAkQcCppe5ztRQABBBBAAAEEEEAAAQQQQAABBBBAAAEEEEAAAQSyLEDAKcugVIcAAggggAACCCCAAAIIIIAAAggggAACCCCAAAIIlDQBAk4lbY+zvQgggAACCCCAAAIIIIAAAggggAACCCCAAAIIIIBAlgUIOGUZlOoQQAABBBBAAAEEEEAAAQQQQAABBBBAAAEEEEAAgZImQMCppO1xthcBBBBAAAEEEEAAAQQQQAABBBBAAAEEEEAAAQQQyLIAAacsg1IdAggggAACCCCAAAIIIIAAAggggAACCCCAAAIIIFDSBAg4lbQ9zvYigAACCCCAAAIIIIAAAggggAACCCCAAAIIIIAAAlkWIOCUZVCqQwABBBBAAAEEEEAAAQQQQAABBBBAAAEEEEAAAQRKmgABp5K2x9leBBBAAAEEEEAAAQQQQAABBBBAAAEEEEAAAQQQQCDLAgScsgxKdQgggAACCCCAAAIIIIAAAggggAACCCCAAAIIIIBASRMg4FTS9jjbiwACCCCAAAIIIIAAAggggAACCCCAAAIIIIAAAghkWYCAU5ZBqQ4BBBBAAAEEEEAAAQQQQAABBBBAAAEEEEAAAQQQKGkCZXNxgzt37mqvDRlqixbOz8XNy5ltOuCgA610uY1yZntybUMqVapoxx11hLVp3TLXNo3tQQABBBBAAAEEEEAAAQQKLDBzzhyrVaNGgednRgQQQAABBBBAIFcFcjLgpGDTRludZlWrNc3V/ZYT2zXs7U42a+YvObEtubgRf8xfYNffdCcBp1zcuWwTAggggAACCCCAAAIIIIAAAggggAACCCCQZYGcTKmnlk0bEmzK8qFCdSVNoOomVWzhwkUlbbPZXgQQQAABBBBAAAEEEEAAAQQQQAABBBBAAIECCORkwKkADsyCAAIIIIAAAggggAACCCCAAAIIIIAAAggggAACCCBQQAECTgWEYzYEEEAAAQQQQAABBBBAAAEEEEAAAQQQQAABBBBAAIGYAAEnjgQEEEAAAQQQQAABBBBAAAEEEEAAAQQQQAABBBBAAIG1EiDgtFZ8zIwAAggggAACCCCAAAIIIIAAAggggAACCCCAAAIIIEDAiWMAAQQQQAABBBBAAAEEEEAAAQQQQAABBBBAAAEEEEBgrQQIOK0VHzMjgAACCCCAAAIIIIAAAggggAACCCCAAAIIIIAAAggQcOIYQAABBBBAAAEEEEAAAQQQQAABBBBAAAEEEEAAAQQQWCsBAk5rxZd55pqbbmC9r9nVLjxu28wTM0XOCnz40WfWt99AG/XRpzm7jWwYAggggAACCCCAAAIIIIAAAggggAACCCCAQMkVKFtyN33ttrzbWY3tsL3qxCtZvmKVzfnjH3vp3d9s0BtT4sNPbb+ltWxazf/v98pkW/LPivg4XmRf4LyLutqCBX+mrPj6bl2scaPtU44vrBGffvaFjfzgY/tj/gJr07pVvhazcNEimzx5qlWrtqltXrd2vuZhIgQQQAABBBBAAAEEEEAAAQQQQAABBBBAAAEE1oUALZwKqF6lYjkrV7a0/794yQorU7qU1a9VwS47aTt77IYW8VoVgJrw85/29kczCDbFVQrvRcWNN7YqVSr7/wsXLjL9L1O6dHxY2bLrT4x15Psf2bXdb7PBz71ceGDUjAACCCCAAAIIIIAAAggggAACCCCAAAIIIIBAFgTWn6vvWdjYwqhCwaZ9zxnhqz61fQO75MTtbOftN7ETD97Cnn5rqjXcqrIPRNWouoGfZsMNytjjPVpYgzob+2CVBk7+bZFdfOcYmz1viZ9mt8ab2p2X7WSVNy5ni5cst8nT/rKt6m5sz7/zqz04eJL9r/PO1qLJpvbIiz/Zfi03s+3qV7ILbvvSdti6sp3dcWvbeKOyVqZMKfvbtaYaOGSKPeqmU3nt/jamQNnr70/3rbMqbFjWTbPc+rzwkx2zfz2rU30jW7FylRs/zW5/fIKfZ3176Hlnj/gqt+9wkn99wXln2h67N48PnzLlF3vgoX7285Spbh+Us7Ztd7dzzz7NypYpY198+ZVLfTfImjVraov/WmyffT7Gli1fZgcfuK/VqlXTXnrlDZs3b77tvFMTu/iCs6x69WrxeZo0aWgzZ862Cd9PNAW+Tji+o58vvuCEF6O/GGv9Bz5rM2fNsSVLlliNGtXs9FOPt73a7GGvvzHUnh78kp/j408+t3MnTbZDDt7PjjjsIB9Ee9Ct/1dfj/fr1qjhdnZ55wts06qbJCyBtwgggAACCCCAAAIIIIAAAggggAACCCCAAAIIFI0ALZyy6DzABXf++nu5r7HtrjX8c7Uq5X0AaFP3rFLRBYO226KSlS9X2gd3SpUy27peRevUcSs/Xg/3XNHMB4Y0TkGhpttU8XXUqbGRn6ZuzY38+y4nb287bruJKYil//vvXssqu4BSKbdXV60y28gNO6vDVlbatb5Sqb7JBn6+4w+q759D/aqn3mYVfJBK69Vx33puuWX8PLn2sODPP+3Sy6+zHyb+6INNfy1ebG+9/a6NGfO139QFCxbatOkzbMgbw+y9kR+axi9dusxeff1te6TvAJsz53dbsWKFfemmf3vYe6vNM3TYCPt63Ld++nl/zLfeDz9uv/02PSXhp59/aVOm/morV7oWci7Ypbof6N3P7btV9tHHo31gSTNr+VqnWbNm+7q6XnOjfeSCUAqEqWiZz73wqn/NAwIIIIAAAggggAACCCCAAAIIIIAAAggggAAC60KAgFOW1ef9udTXWNu1FkpW/vxrmXXpOdb2PONda3XKO/b6B7GAxF67xAJUCiaFYM85N4+21qcPt4WLY0GsxPqWLltpI0bPNgW6pkz/y+4Z+IMd2/Vja3HSO9bS1b3SBS7U0kmtoKJF8+xx2nD78rt5frDqaX/JB3bC1Z/49wpE7bFT9egsOfP6tdeH+oBRs52b2rNP97Xu113ht22ES18XLRtuuKENeKK3PftU3/jgc88+1V5/eVC8D6avvv42Pk4vNI+mH9T/Yd9aScM+d62YUpWjOx5mAx5/0F567kl75YX+Vr58Od/S6fsfJtltN3ez1rvHUjO22bOVvfLiAOt05sk2/tvvfRArLOup/n189e+7/qEoCCCAAAIIIIAAAggggAACCGRDYO7c3/3Nj2tT16JFf5lu+qQggAACCCCAQMkRIKVelvd1edevk4rS2SUrCu78vmCp9TiviSm4pFZIKuXLx56PbLe5f6/pxkz4w79etnylf058UJCp671fxQcrJd85R21trZo2dq1fVrqWM2alXbWhdVWY8JeZf5nq/23237ZrY7PlK1bazLlLbKbFUvpputAqKsyTK89Tpv7iN2XixJ/s4suuif+AnjgplnYwbGe5cmXjKeoUCFIroxrVq1spF42rVbumn0wtkaJF82y8cQU/aLdddra3hr7rUvJ9aR07HBqdLP66dq3N7P1RH9s330ywsm5epffTcv5yqfxKu36n9F9FrZ+U7k9l6i+/+udly1zgsmt3/1oP6qvq77+X2EYbbRgfxgsEEEAAAQQQQAABBBBAAIH1R0BZMj78+LP4Cm9Ws4Y1brSdnXziMVahQvKbWuMTZ/HF/AV/2umdLrHddtnJenS/Ml81/+GyfMyYOcut7/bx6S+69Gr7c+FCf5NlfCAvEEAAAQQQQCCnBQg4ZXH3KkhTzaWtU5k2e3HSmpUC77Eeza20C1yoBVIp9y9ZSRbwWen6V0pXHr+xhU+xp2mWr1jlghTJ605XR66PW7LkH7+JK1w0TsEdlbp1alvjxtv519l62HDD2HGg4FGq8sBDj5nS8KlsXKGCT9+Xatow/J9/Yi3o9D66/gp2hWWGaXlGAAEEEEAAAQQQQAABBBBYfwTmzJnrbyZUdovFi/+27yb84FO5Dxv+vj30wJ1Ws0bRZCKpUrmSdTj8YNtxxx3yjTds+EjfD/GrLjtHKMcd28HfGBne84wAAggggAACuS9AwClL+1gBpPu6NosHeV5+b1rSmk84uL4PNin13kHnv2/HHVjPLj+1YXzal979zU4/fEtfz2Ft69g7n82yDcvHWrokC0KFGRVcarrNJv5tjz7jbYhL1fd+v3a+rya1dKLEBOrUqeX7PNpu261c2rprC41l/Hff+7obNKi/2jLUMkllpdspw9/9wL++49brrMkOjezcC67wfTW5ZlR+eKm8vrcWR4JWdWrH0iOWKVPaers/OELLJz8DDwgggAACCCCAAAIIIIAAAuu1gDJcKNgTirJZnHz6BXZXzwet5509/GAN69W7r40b953rG3qlNd9tZ7v0onP8TYi//DrNBj71nO93uGrVTWz3Vs2t0xkn+fnGfvWNPTlgsPu7c6bVrlXTTjvlOGvapLFd0rmba0V1tM/QoTTut7oU71+4fourV9vUbLdm9u13P1ivB/vaYe0PdP0bv2WzZ8+1BlvUsyuvuMjfwPngQ/1s1Ief+vT1+rtWf8v2uuc213fyT/ZP3k2fWgGl2FMrrjFjx/n1btRwW7vs4nOtWrWqppsrtR5HdjjEvnbp678aN96v8xGHHWTHH3ukf80DAggggAACCBR/AQJOa7mP1N/Sx/33c+nQSoc4gf346yL7cOycpDXP+j2Wtq7yxuXsunMa274tVu9fafqcv+2vv5f7QNENLu2e/uenKKik1Hhaj+MOrG+H7FnH15GfeUvSNPvvu5e99fa7Nu6b7+zs87tYo4bb2bRpM2yrLbewC88/c60o9KNfdarMmDHLP++zV2v/7ANPrp+lz0ePtQGDnrNTToqlRNA8ulvtk0+/iAWb/NSxhx1dasQPz8g9zQAAQABJREFURn3i+4G64qoe1tb15XTA/nv7vp7UuukU90eH+qL688+FtsClPHjgvtsjc/MSAQQQQAABBBBAAAEEEEBgfReoVKmiCwo1sm/GT4hvSrfrbzUFlg4+sJ39s3SpveP+pty12Y62n/t7966eD9jMWXPsxOOP8q2l9DenyoTvJ9r1Pe7wKdtbNG9mG2ywgW9FtWrVSv+36J1uPpUt3U2T5cqV830H/zot1ue06pg2fYb17TfQWrXY1erWruUDUjfdcrc98lBPH+jaYIPyPmvH9ttv4+vRfZQ//zzVp9TzA9zDdTfcbj/+9LPt0Hh7n+VDfR5f2qWb7z85rIeCVzVqVLN992ljI11fy4OefsEOOWg/q+xaXVEQQAABBBBAoPgLEHAq4D5SOrxQypcrbXq7eMlyG+5aJN3y6HdhlLtr59/pNPCxlyeb+mnaeKOydvhedU0tnTZOSMXc6cbRduelO1n1quXti+/+cH0yVTMtY8nSWL9QkUXHl6P1UeuoYw+ob422rOzT9akfKfURldcVUHza8CJZPWFcLj1HW4Ztt+3Wdu7Zp9pjjz/lg0IhMLSta/Gkkte4KO3mly4Va3GWOJHuRPvjjwW2ZMkS/yP+hOOOtF1dzmuVNi5YpD6dZrkf/pMnT3HLKWWnnnys9Xm0v703YpQPIulH9Zw5v5s/mNw8rXdvYW+8+Y79POUX+/6HSa4VVEP3Q35Du+mGq+zWO+7zfzwoIKWitIAUBBBAAAEEEEAAAQQQQACB3BNQKr0VK1b4FkKzZs/xfyPqJsbjjungN3bSpMmuf+BPfMBp+oyZLqDT0I7ueNhqEE8Pfsm/79P7f6510783vurvVxXdzHjl5ReZAlypSo/ru/rpNP6xJ56yV1590/dBrBSA6vdJrZy6XHpe0tn1d62CTfu2a2OdL4lNM/i5l31A6fPRY2znnWI327Y/ZH8775zTfR1qRXXfA4+61IITrVXLXZPWy0AEEEAAAQQQKF4CBJwKuD+u6TXO9D9TefrNqab/oSxavNz2Ous922HrKr4l05Tpf4VR8edfZy22jpd/6N9vWqW8DXt4b/960tSF/vmkbrEgg38Tefhf/++t97OTbOftq7pA1Txbumz1XHp7nDY8MrXZLX2/9f+jA3c7cVj07Xr9esgrTyVd/8MOPdAOPXh/36HpsmXLfR7s0AFrO3cXlf5Hy0vPPRl961sn6cd9YlEdTw/o44JO861Klco+6BSmUWev/R65z+ev3mijDf3ggw/c1/Zr19Z+cy2s6tWr+5/0ePqhr1ZLuptsI1d3SJ+n9HvPDHzE5v4+z7dsqrZpVdtkkyphUTwjgAACCCCAAAIIIIAAAgjkkMDff8eCQhu6vyV/dS2bVMZ+NT7+Wlkv9F+lbZs9XPr2933K9hOO72h7t93DD5869VcfTIoGm/yIvAdl/UgXbNJkpSN3szZxQS0FnMZ8Nc7atG4VrSrp66m//OaHN9upaXz8jk3VR9QLNmXqb/GAk1pehVLT/R2topT0FAQQQAABBBBYPwQIOK2j/fTtTwtSLnnkY+1cI5dVtvCv5Va1cnk/nYJHL49I3i9UtKLFS1bYx1/PjQ7idRIB/VAujFZBarm0qQsApSoh2BTGK1WBUhakK6l+9Cufts+pnW5mxiGAAAIIIIAAAggggAACCKzXAlN//c1nu9BNiOrrSEWZPMqULeNfN2vWNP737aUXne1T3r3w0uvW857eLt3eSLv1pm5+vmzeqFixYgW/7PnzU1/b8BPkPYS+nCpW3Dg+uFKl2Ot/lv4TH8YLBBBAAAEEEFi/BQg4FcP9p4BRs4ZVTa2blPZO/T51vfcrW+JS5FGKn4CCSEp1p5ZGFAQQQAABBBBAAAEEEEAAAQSyJfDtdz/YL651UGipVKtWTV/1Lq7PpsS0eRqhmyCPOfpwO6pje3v40Sd9H8bqf6lmzeo+FZ9aSyXeCFmQdR3/7fd+tlqbxdZHb5T2L1WpXTuWxk/z7bbrzn4ybZtKqlZXfiQPCCCAAAIIILBeCRBwKoa7q0vPsX6t1G9TYlq8Yri6JX6V9ti9uek/BQEEEEAAAQQQQAABBBBAAIG1EVDQ5vMvxppaBP0w6Seftk79BZ9+6vG+2obbb+tveHzx5SG2cYUK1rRpYx+QWrZ8me25R0t78+3htvVWDVyAqYYtX77cz1O2TFnXd1Jb15fxILvhpjutY4dDrbSrs7JL465+kvJbFMDSvP/884+98NIQvx7q+0ll87p1/PPQd0ZYNZeNYye3XtHSuNF2fn2HuH6KN9ushgt6bWSDnnrep6Jv1YL+maJWvEYAAQQQQGB9FiDgVIz3HsGmYrxzWDUEEEAAAQQQQAABBBBAAAEECkHgplt6+lqVXr3Fbs3sgvPOsOrVq/lhG2xQ3rpfe7ndevu91rvP436YAlLtD9nfdm/Z3F557S2bNWuOH16+fDk7+cSjfYCn/aEH+MDUMJdi77sJE32gR0GsBlukT/HuK8p7UEq/Xg/29e+U5aPH9V2tbNnYZaV2++xp77w70h7o/Ziv+8nHevnWVmF+Tdeje1e76da7rffDsfXW+l179WVWuXIlW+ICbBQEEEAAAQQQWP8FSs1fsMAlbVs3ZemyZfbz1F+sxS7NsroCm9Wqb/XaPZbVOqks+wK/vtfJZs38JfsVU2PWBE47+xLr37dX1uqjIgQQQAABBBBAAAEEEEBgfReYOWeO1apRY51uhvp9njP3d1u6dJlrXVR7tXVRP0+zZs22evXqrhb00URqQfX7vD98f8Dq2zg/5dPPvrRbbr/H9wXVqOF2tmjRopR9Fy9e/LdVqLBRymq13rNnz7VlrvVV3Tq1/rN+KWdkBAIIIIAAAuuxwOdjxtqW7iaP8uXKrcdbkb9Vp4VT/pyYCgEEEEAAAQQQQAABBBBAAAEEECgWAuqrqWaN6knXRa2g6tf/P3v3ARhVsTVw/NB770gPRQHpAgpSpQhIUUDAQlG6gqB0HsVeEVC6giCCgCDSO6H33pTeO4RQQ39zZnOXTUhCEhIg4T/ft7v3zp07d+5v10eSs2cmU5DHNBsquPOCPCFQpWYlpQxh/eKQgk3alY5bp9SjIIAAAggggED0FAjd11mi571zVwgggAACCCCAAAIIIIAAAggggAACIQjEjx/PrtcUJw7fWQ6BiUMIIIAAAgggYAT4aYGPAQIIIIAAAggggAACCCCAAAIIIIBAkAKFCuaXv/78NchjVCKAAAIIIIAAAp4C0TLDKXGS5OJ3bpvnfbKNAAJhFPC54Cu6SC0FAQQQQAABBBBAAAEEEEAAAQQQQAABBBBAAIEHCUTLDKeaNarItBmj5cyWCw+6f44/RoHKVatI4+btHuMIuHRIAhpsKlzw+ZCacAwBBBBAAAEEEEAAAQQQQAABBBBAAAEEEEAAASsQLQNOP/74neiDggACCCCAAAIIIIAAAggggAACCCCAAAIIIIAAAgggEPkC0XJKvchn4woIIIAAAggggAACCCCAAAIIIIAAAggggAACCCCAAAKOAAEnR4JXBBBAAAEEEEAAAQQQQAABBBBAAAEEEEAAAQQQQACBcAkQcAoXGychgAACCCCAAAIIIIAAAggggAACCCCAAAIIIIAAAgg4AgScHAleEUAAAQQQQAABBBBAAAEEEEAAAQQQQAABBBBAAAEEwiVAwClcbJyEAAIIIIAAAggggAACCCCAAAIIIIAAAggggAACCCDgCBBwciR4RQABBBBAAAEEEEAAAQQQQAABBBBAAAEEEEAAAQQQCJcAAadwsXESAggggAACCCCAAAIIIIAAAggggAACCCCAAAIIIICAI0DAyZHgFQEEEEAAAQQQQAABBBBAAAEEEEAAAQQQQAABBBBAIFwCBJzCxcZJCCCAAAIIIIAAAggggAACCCCAAAIIIIAAAggggAACjgABJ0eCVwQQQAABBBBAAAEEEEAAAQQQQAABBBBAAAEEEEAAgXAJEHAKFxsnIYAAAggggAACCCCAAAIIIIAAAggggAACCCCAAAIIOAKxnQ1eEUAAAQQQcAQaN2/nbPKKAAIIIBAOgdEjBobjLE5BAAEEEEAAAQQQQAABBBBAIOoKEHCKuu8dI0cAAQQiVWDEoO8jtX86RwABBKKrQPO2n0TXW+O+EEAAAQQiSeDEiZPy7Xf9AvTeu3cPSZ4sWYA6dhBAAAEEEEAAgSdZgIDTk/zuMDYEEEAAAQQQQAABBBBAAAEEEIj2Ajdu3JCdO3cFuE+/a34iBJwCmLCDAAIIIIAAAk+2AAGnJ/v9YXQIIIAAAggggAACCCCAAAIIIBDNBbJmzSJz50yP5nfJ7SGAAAIIIIBAdBeIGd1vkPtDAAEEEEAAAQQQQAABBBBAAAEEEEAAAQQQQAABBBCIXAECTpHrS+8IIIAAAggggAACCCCAAAIIIIAAAggggAACCCCAQLQXIOAU7d9ibhABBBBAAAEEEEAAAQQQQAABBBBAAAEEEEAAAQQQiFwBAk6R60vvCCCAAAIIIIAAAggggAACCCCAAAIIIIAAAggggEC0FyDgFO3fYm4QAQQQQAABBBBAAAEEEEAAAQQQQAABBBBAAAEEEIhcAQJOketL7wgggAACCCCAAAIIIIAAAggggAACCCCAAAIIIIBAtBcg4BTt32JuEAEEEEAAAQQQQAABBBBAAAEEEEAAAQQQQAABBBCIXIHYkds9vSOAAAIIRHeBgz3jicQw/28ezqvd9NgPtl5PMV99uK+9f73aab/Ow9l39xczliRufVWrKQgggAACCCCAAAIIIIAAAggggAACCCDwGAUIOD1GfC6NAAIIRAeBO3ddASN7L2bbFT0SsZse+1p/V4NH2sSz/k7AettGG5l629i8aGfuet13irahIIAAAggggAACCCCAAAIIIIAAAggggMBjF2BKvcf+FjAABBBAIBoIaABJH/7FY9Oz2tXG/6BnG9vIVASo0760Iiz1/tfnBQEEEEAAAQQQQAABBBBAAAEEEEAAAQQerQAZTo/Wm6shgAAC0U7grmcmknN3GiiyqUxORTCv2i6orz6EVO/Zr7ajIIAAAggggAACCCCAAAIIIIAAAggggMBjFwjqz3yPfVAMAAEEEEAg6gnY2I8+eQSB3JvB1ettuhs9YNu0C9SNnk1BAAEEEEAAAQQQQAABBBBAAAEEEEAAgSdAgAynJ+BNYAgIIIBAVBa4q4Eg84jhn3mkQSHdtMV/J2WlPpIge1lXnf9Bp43foSXiu7jPvUynQGs6BZkpZfp11oNydcozAggggAACCCCAAAIIIIAAAggggAACCDxOAQJOj1OfayOAAALRQcAjwuTe1A0t/lElDTadX9T3XuxI6/2PZWi22Aac3EErPc//fA0qafF/CVDvrnM14RkBBBBAAAEEEEAAAQQQQAABBBBAAAEEHqMAAafHiM+lEUAAgeggoIEid3EiToGiQVp9da+3zYJyMqHsq6m/sLivJCvXRy5493F3c9+GdhDUJLCe177vJCoQQAABBBBAAAEEEEAAAQQQQAABBBBA4FEJBPXnu0d1ba6DAAIIIBBdBIIL/Gi9xzH3rntDxGdRH0levrdLwqPeVui+U4La9qxz2vGKAAIIIIAAAggggAACCCCAAAIIIIAAAo9cgIDTIyfngggggED0Erijay6ZwM9d59Vsa51Tf0eDQnrcaePfTuvtOWbfx0y3Fy9rOdE6z3rnHM96p189V+ujarl167Z4ey+Vvfv2RdVbCPO4f/vtd6n/5luydOnyMJ8bXU542g0uX75iPwNt2rSLLm8p94EAAggggAACCCCAAAIIIIAAAv4CBJz4KCCAAAIIRIiAjf3ok0cQyNm8tn+JZGqxWDK1NA/zmvKVPu5rahvNckqhWU6643+S/4urnX99gDp3D1Fzw3vJEnnn3Wby2muvm2Dco7+zwoVLSOYsOeX48RNBAjrHT548FeTx8FQeOnRYVq1aI2fPngvz6TrOnTt3mUCmiTSGsZw/72Pv9bm8BcN4ZsQ3fxiD4Ebz1Vff2fvT99N5FC9RWj7p1E2OHjsW3GmPpd7vup/9DKzfsPGxXJ+LIoAAAggggAACCCCAAAIIIIBA5AmwhlPk2dIzAggg8FQI2CwkEy+JEdRXGDSOYtZzOjO3j12/Sbd17abc39yVc/P72GMOkjaNn62c+B30dqpcwafg+tX6sMce7vX9mLdyennJc889K4ULFzQmgRa9esxj08trYOBJKp999qXMmDlbdv+3TRIkSPAkDe2xj+XmzRt2DGXLvizZs2eTSxcvydx582XChEmycMEimb9glqROleqxj5MBIIAAAggggAACCCCAAAIIIIBA9BYg4BS931/uDgEEEIh8Af+gks1MMnETu6tPWjziKJ715xb0lVSv9JFzC00gStuZgxcW9pXkFXvLyZHeTld6xL9D12aAA7ZD//oo+JItW1aZN3dGFBz54xnykaNPVqbO41EI+aoNG74p1atVtY10ysaaNV+Xbdt3yMwZs6Vx47dDPpmjCCCAAAIIIIAAAggggAACCCCAwEMKBPW98YfsktMRQAABBJ4mASfDSV/t+kom68izLnC9rrt0dl4fM61eb/caTtrmyn5vG1zSLCdnbSfPtZvcfZr+3fUadApH2bhxs/yvV1+TXVRCSpUub6ceW75ipbsnnbZN19qpVbuunaJM23zx5Tdy9eo1d5tvv/1BWrb6wNb9PGioNHqriQweMkxWrlwt773fSr755nt3W2dj2rQZ9tiUKf/IkSNH7bZOh+ZZbt68afvR/nRatCZNmssvv45yN9E1cD799AupULGqHVvlKjVk3LgJkT4t37///mfHq1lGalPDTAWo07fp6+QpU93jcza2bNkqnTp3E53GTv369v1Czp67fyq90aPHWju9V+1PX/v3/0l8fC7YrpYtXyG9e38m2p+W1q3b2XH89PMQu69PBw8eEl0TSM/V671Rt6GsXbvOfTwsGw/q6+LFi/L9D/3tfTvTDlarVkv+GPen3L59O8ClQmugJ+m6Vvqe6/i139atPwwwHZ7z2dm3b7/8/fc/0qxZC9smwAU9dmLHjiXlypWxNSdOnPQ4InL06FH5sF3HAF5/Tf47QJvQ3KcGtfSzru+XTnmo75PnGl36WR427Bf3f0f6vixauDjAddhBAAEEEEAAAQQQQAABBBBAAIHoI0CGU/R5L7kTBBBA4LEIaMwnhhP4CSajycl0Sl25jyT0KitHhpY3U+r1lYQ5ysm1A97uxCWfRX0lhclyuvart+tePPrVgJN75jmn3nl1tQ7Vs65JpIEkLUWKFJJYMWPZqcfixYsrpUu9ZOt17ZtJkybb7ReKFZV16zfI0KEjRM/9aWA/W69r0Oh6RHv27LUPrUyfPp3Ur19X5s1bYB+tW7eQpEmT2vb69OvI30SDXa1avi+XL1+2bXyK+biP37p1S+rWa2jbaGWGDOllzdq19vH+e03l2rVrUr1Gbdm//4AkTpzIjl/769K1h52Wr2HD+u6+InrD1/ei+76071y5ckqOHNltIOijjz6R637XpVGjN+1ljx07Lg0avmPu8Yq9hxQpUgQImnmOref/+tjdLFkyS8GCBWx/P/QbIPvMPaq1t/dSGTlqtPuUhYsW2+27/ms5aSCsUuXqtk690qZNa4NNruDGHDtO98kP2AhNX2o/YMDPtqfn8+eTpMmS2iyirl17mo95jHAZ6Get48ddbJ86zeKZ02fs9IEbNm6SZUsXSrx48WxQTT9Xe/fus++/Ng5pmjxdF0zttBQtWti+6pOe/5rJfHLeGy8ztaMG5/SxZ/de6datk20b2vvUMa1cuUo0cOgEFPW/AS3fff+jDBky3G7rf2tHjhyRjz/pavd5QgABBBBAAAEEEEAAAQQQQACB6CdAhlP0e0+5IwQQQOCRCpi/a9+X0WQzlIKq9w8QJchR7l6Wk7bTrCjzuLrP22y41nIKst8g+gzrzU6YMMme0qXLJ/LP1L9kypQJcvDAf9Kju+sP4Vu3brPBJg2ArF+30h7fuWOTDfBMnTpNTp06HeCS8U0wYNSo4bJ82SL5X89uNghQzX9aM+cP/nqCZoBocEj7LVq0SIA+nJ3xf060bTSYs3KFt6xds1x27tgsq1YusU3G/vGnDTbUrFlDNqxfbcev96Bl6LAR9jWynzTI5L14nslUmSNLvOdLvx++sZf87rt+cv36dbvdo0dvG9Bo1aq5rFm9TGZMnyKbNq2R4sVfuG94s2dPk107t8iK5Yttu1kzXdlSCxYstG3V9MjhvdZfK3QNJ90fOdIVyNBMMy29e/ewTjqmHt1dwZsxv/9hj4X2KTR95cmTW+bPmyn79+2SWbP+sQZ6bS3Lli13Xyq0BleuXJVevT+15037Z7KdZnGd+dxVeqWCaGbSfLMGk2e5aAJ/3337lSxeNFfUzrNMmjjZZl9p9l6RIiVtIEz7KV3aFUjVtl99/Z19b5o1bSyrVy215k4/mqF34MBB22Vo71Mba/DqxRdLyOS/xpv3wNtO66fZXRps0sCoBs30c6qf58GDBtj+eUIAAQQQQAABBBBAAAEEEEAAgegnQMAp+r2n3BECCCDwaAX8g0j2ov7b9iVQfZoqfWyTM3P7SurKvd1j1Cwnp+gp5zXLqYI57nG+e1M33DvOWWF7zZgxgz1ho8lQOn/elV0UK1YsSZgwga1ftMjbvr5psjTSpUtrt5MkSSLVq1ez24cPH7avztM3334pr1SsIFmzZpEUKZLb6nr1Xrev02fMcprJ/PmuAEqDBvUlZsyg//mdPn2mbd+tayfJnDmT3Y5h0rqSJ3f1O2fOPFv37jtvucermSOa2aMZKZohFdklZ04v8fLK4b5M3bqv2yCaZrfsMdkzd02kULOytLT7sI3NvNJtzcYp8Hx+3QxQ8ufL6w4m6YHnTRttq0GMB92PBricgEyjhg1E30ctTsBPM3ZCW0LbV4IECeTZZ/NInDhx3F2XL1fWbp87f96+hsVAAzNOwKZw4YL2fJ0Or3oN1+fNCQA5F/vgw9bSoEE90fdBM+o8i2Z/afaVTnnoZBtpxtft2yaaa8qNGzdslppud+zYzv051PegSZN3tNqdFRWa+7Qn+D8NHjzQBhQzZcokeu7mza4pEN9/v5noemVOefGlks4mrwgggAACCCCAAAIIIIAAAgggEM0EmFIvmr2h3A4CCCDwqAWcTCSd7s5Oead/2zbbWvSYU5+mSm/Z0cFMOmaOacApfnbNcnIFn64M87btNZh0da+3pDQBp3jmuN9+U699+T/umle7adrphr6EtZQvX9YGSDRQUbDQC9K06bvyXrMmNmCkfekaPlqm/jNdPNd1cup13RrPogGhwKVc2TI2iKIBIg0maJbHNP9gUp3arwVu7t53AiQa0Aiq7Dfr92j51mQTxYp1L2h16dIlW6+Bjkdd9P7zm6nlDh8+IsfNVHopTHBM71kzoTRQ96CiawX9YTK3du7610xvGFM0OOF33e9Bp9njmjXmlCZN33c23a83wxCAC0tf+ln4889JcuDgQXu/yZIlc19TN7Sv0Broekpa9L3X9Y+ccuGCr928HegeYsa49747bZ3Xb77+QipVqmCDfv/t3iPjzdpeurbU/gMHZOKEP0SnOtSi703gMed97jl7zPmc686D7tOeEMzTLvN+atFMKQoCCCCAAAIIIIAAAggggAACCDwdAgScno73mbtEAAEEIk/AiQL5h39sLMiJe/jHYtK+2kdOz+nrjhBpoEkDUIeGlJfU0tu1lpMTXDIjPbewr6QyazkdN3W2P2f0Hv0GqHeOh+I1derUMn3aFDv12O9myrVRo8bYx6Cf+4tOVXfl6lXbS3ITREiVMqW7R2c7c+Zn3HXBbcSOHVveMVlIOqXYkqXLpFjRInaNnFIvvSiaARJccbJSdD2poIpzPG2a1AEOa4BL1/nxzLoJ0CCInYSJEhroc6JZOU7Wl9PMz8/PBkx0X/t9UIkb1zXe27dviwaQtITmPA3evVbzDfeaRLp+0dx5893XftB1dU0rLRrQc94f55wa1V+VQoVcGUNOXUivoe1Lp1ysXqOO7UqvmyFDBvcaXk7/YTG4ds0VXNO1oDzvQbe9TGBI17UKbUmWPJmkSZPGNtfMpoIFnhfNstO1xvSzo++rlqDeG6fu6jXX5z8092k7C+bJ19cVMIvn/9kIphnVCCCAAAIIIIAAAggggAACCCAQjQQIOEWjN5NbQQABBB6HwF0NODm5RhoFCiIBI23V3rKtvclu8h/g5T3eNstJp9PTKfY0+HRkqLf/UVeWkwacNAvq2oF79e4GzoYTgHL2Q/maMmUK+fKLvtK9W2cZPeZ3+frr780aQJ/Ja69Vt9lP2k2LFu9J1aqVQ9nj/c1er1PLBpxmmj/4X7hwwTZ488269zf0qNGAi2aGaIaMBgwCF+f4Z5/3sdPOBT4eln2dFk+zkhaaTK/nTYaSZ1mxcpXd1YCKM02g5/HA2860b888k1GyZ89mDx85csRMiXdbdHq44MrMmbNssEnXdhr7+0g7FZu2LVW6vB1bcOc59U6gTIM+Q4b85FSH6zW0fWkQUcsHbVvJJ590sNP46VpLxUuUdl83e/Zsdjs0BhmNmZYK5cvZdajsTgQ9JU2a1E63qOPTz5UzpaGOS4ODzhSEerljx47Zq2bJnNm+huY+bcNgnjSzacbM2XL0qKvfYJpRjQACCCCAAAIIIIAAAggggAAC0UggiD8LRqO741YQQAABBB6BgIaR9BHThJ3Mq2cQyGynM9lNp2b3ddfbw+YpUc5ycsVMn3d1n7cdYwKvcq42/uefW9BXUpqgky1a51+v+x6b9nB4nzSg0rZNKxu80QyQs2fPSt68rqnFxv4x3k5NFt6+dVo8DeRohsn48RNtN1WqhBzActbwGfP7uCCvXcBkrGiZMGGSfX2YpyKFC9nT/546TZzsHq24c+eOTP7rb3usRPHi9tXzycese3Xz5k131bbtO0TXIVJLLy8viR8/vuTKldNmKU2fPsPdTqf7czK0nEpd80lL6VIvuoNNupbS1SuuLBunnb7Gjxff7jrrJOmOrm2l61ft2bNX1ps1uR6mhLYv5/qlXy7lDtg4Uxo61w+LQW5jpeXPCRPFyQpy+nnYVzXRYJOW3Lly2Wn0smTJbN8bZ00xPabmf/p/pnQNLS2huU/bMJgnDY5q+X3sOHdmle7r54eCAAIIIIAAAggggAACCCCAAALRU4AMp+j5vnJXCCCAwCMTuGOiPzE0AqQxJ31oMft3zVcadDddtd6y5QPX2k3Omk5pq/WRM2aKPWfJISfL6bAJQDldaSAq5Su9JeeXWmMyMH4p71rTSb8q4TSyR8L29MWX39ismvz58kpm88f3jRs22UCITnen05HVNFlO/foNkCVLlkndeo3ktRrV7AW2btsumzdvkb8mjRfNkApNadjoTdnWvZcNyDQy2wkTJgjxNA1+jTPr7kyaNFkOHTpsAzHnfXzkv/922zV42rZpaYNNmpGla/5oZpDPBR/ZunW7DRqNGf1riP17HnzvvSYyevRYa/FKpWrmPqubYFE8Wey9RDZu3Gybdu36iecpdnvd+g1Srnxl2/7O3Tui0xJqadu2tSTSafpM6drlE3nv/VbSrv3Hsm7dBkmVOpUsXrzEOtgG/k9VqlSSAQN+ljFj/hCdUu7WzVsyxvQXODClzV99tYoNXrRt216KmikKEydOLB07tJPOnT+WDh06SZ069aVN65ZmfaJs1k7fr6JFCptj7dyX1HWVmjVr4d53NjJlziSf9u0Vqr50zDpF3bff/iBv1q8nmi3086ChTlfu19AaZM2aRerVe8O+55UqV5cmTd6R5MmS2/d885Yt8lH7D0XXHQtNGT36d1m9eo1tumP7TtH3SstbjRpIunSujLke3btIy1YfSPMWbeTDD1rbz/zkKVNtRtkLxYpK2bIv23NCe5+2cRBP5cqVkSJFCtnPUs1adUX7O3f2nH0Pg2hOFQIIIIAAAggggAACCCCAAAIIRAMBAk7R4E3kFhBAAIHHKuBew8mMwhUbEltloknpa/SRk7P6uuudgJROsbf9o3tT7Gmmk06rp1lO18y6TU4/R4eVlxgmapWpxeJ7t/gQwSbtRDM8Fi5cLPPmLXD3qVPnaYBAS5w4cWT8uDHStdv/ZNmy5XbtJa3XDJ4yZV42x13/dMaOHUerJaYOMJhSo3o16W4CTlrqvuFa98dp6kxnFiPmvWRjHduM6VOkm7n22rXr3Nd+8cUS9rTs2bPZwNMnnbqKBgn0oUXPq27WLApLSZIkifz990Tp+b8+Nrg2aPC9oIlmKH3z9eeiWVqBix7LlOkZ8WyvgZ82re8FcipXfkW++LyvCcQMcQcY9B6av99URvwyyj3NnmaAad34PydKnz6f20tpwEXXD3KCXs7133mnkRw2wR0NBOoxXaNJi05dqBla6jx4yDCnuV37KGvWrHY/Vqx7xvMXLHK3cTacKQVD01ed2rVMUGetzJkzz45DPxd9+vR0j9/pM7QG2l6DXdqPrif21VffOV3Iyy+XltQmWKfF+ZzE9Pi8uBv6b2ggTB9O0fWfGjV8U+rXvzeVY7VqVaV//++lZ8/e8tPPQ5ym1vOLLz41/725Ps+hvU93B4E2dE2oEcMHS8ePu9j3TKf003vs2aOr9B/wU5jWGwvUNbsIIIAAAggggAACCCCAAAIIIPCECsS44Ovr/+fBRz/CG2ZKngPmG9zFzTeQKQgggAACT45A4+btZMSg70M1oM2tE5s/UpvJ9Gyak76a0/z3iwy9K5vauAJLrnqR9NX72LjTqTmuV6c+ca5ydl2nw0NcQSanXl8ztVws580Ue35mPSfP+hgxY8kzPe+ffi00A9dp0HTtIQ2gJEiQIMhTdIozXU8pUaJE7rWdgmwYCZVXzLRyp0+flswm+yZ27IDfD9Hp6U6fPiOnz5yRZzJmDHXGVXDD1DWmNKNK/13OaoJXmunlBB6cc9asWWcyvhqKBlJ+/WWonZbtjLl+ZrPmT+zYwa/TdOTIUbsOlGYkBVd0Sjdd60cDWRqoCKlcvHjRZIolvM9E14vSdYiuXLki2bNnC/Y9Dalv51ho+tLPhq/vRdF1q5zgoXN+4NfQGOg5fn5+9n2IZTyzZc0Womvga4R1X+/x6NGjop45cmS3GWNB9RGW+wzqfK27evWana5S39+QAmbBnR8V65u3/URGjxgYFYfOmBFAAAEEQiFw0vwMlN78vERBAAEEEEAAAQRCI7B24ybJbmY4iWu+5BzdS8C/YEX3u+X+EEAAAQQiQcBEhMxXF2zikSs5wl4jg8luOjHjU/8D/pc1jdK92lu2fmiCUDYwda9es5xSV+4tCb38s5z0UKCvRDi7Nralh50K/27C8qIZPs6aSMGdlyxZMrvuTXDHI7Nep6fLnj1bkJfQYJBOkeZMk+Y00qwtncoupKJZL5pF5Vl0/SJ9hKVotoo+HlQ0YPagokEmL68cD2pmjydNmjTIdhr00unpIqKEpq+wfDZCY6Dj1rWf8uTJHRG38MA+9B6zZcv6wHZhuc/gOtOpJDULj4IAAggggAACCCCAAAIIIIAAAtFbgIBT9H5/uTsEEEAg0gXMMj6uKfTMlTQApIEkfWSo0Ut2/1BBNHPJFlOXJHc5OWWm2HMCRZ7txfTjrOV0dp7/KeYcmw6lgSXz0GvZfVOvVU7gyWxSjEDatGmkdu2aIVpoGwoCCCCAAAIIIIAAAggggAACCCCAAAIRLUDAKaJF6Q8BBBB46gSc6I9Gh1yRoSR5ysql/5aYoFNvd1RIj2rZO8BMmefadAWP/Lf1zCt7vCVRTtfUehq08ixX93m729tgk+dBtq1AoUIF5aeB/SJFI1WqlKJrXRUpXChS+qdTBBBAAAEEEEAAgegrsHXbTlmzdoM0ebeBXcvx7NlzopnrceO6phY6f95H5sxbLDt2/ivFihaS2jVflZOnTkuG9OnChRL4euHqhJMQQAABBBBAIMwCBJzCTMYJCCCAAAKeAk62kmYouSJJMeTiv0tNwKmiqQi4ppONIcX0PNu1bTOd/OtPz+5j+3ECTk7GlLNvzyDidD9iJNfkzOklI4YPjuSr0D0CCCCAAAIIIPD0CgwaMlLWb9wsoyJwHUAfnwty4uQpyftcnscKu3HTVvln+hx5q2FduWLWd2zyfjspVqSg9OnV2Y5r4M8jZNOW7VK0cAG5cMFXJk2eJmPGTpTePT+RF4qFfd1vz+vFeQrWy3isby4XRwABBBBAwEOAgJMHBpsIIIAAAmEXuHtX12PSUJJGgfyL2bQxoQBZSjFMnQlA2ejSvXZ2yzndvNrznK48zg+u3rkkrwgggAACCCCAAAIIRGWBM2fOyvnzFyL0FuYt8JZxf06RfyaPidB+H6azZEmT2AymAgXy2W7umt8PNNj0cumS8kmHNrbu4KEjcsZkQeX0yv4wl+JcBBBAAAEEEHjEAgScHjE4l0MAAQSim4AGnNzBJhsVMnumysaKzP5dk7lk11rSClvpam7rA2HYWJRnO//jnvX+l3Ad0R0KAggggAACCCCAAALRXODU6TPSr/8Q2bf/kNy8eVNSp04pTd9tKKVLlbB3/teU6TJ/wRITpDkruXLmkPebvS1zzRR1y5avltu3b0vLNp9IjJgxZGC/L93T2OmJ16/fkHYdukuVyuVl69Ydsn3nf2bKu9jSukUTOW+yo2bOni/nzp23WUYffdhSEiSIb6+3ctU6GTVmvJw+fVZSpkwub9R5TWpUq2SP6dPOXbtl5G/jZP+Bg3ad0UQJE7qP6ZfV1m/cIqnNlM17kieTUaPH2zGuXLVWWu7Z726nGzq1XooUyeXOnTs242nR4mXie/GS5MiRVTp//IF7yr2QrhegQ3YQQAABBBBAIFIFgpjYKFKvR+cIIIAAAtFOwESITITJFXhyokX6GtNkK5l/ZmxAyr9et7WtRp78g0X2RZ8CBY+Cqnc38W+vgSgKAggggAACCCCAAALRXcDHx1dumEDTKxXLSL03aspVMy3doKEj7W1vNtlBv435U7JkeUbefau+pEmTWq5d85P48eNJvHhxbZs8eXJK7lxeZmaCgFJ3796RY8dP2OCQ76VLUtUEnrTvb3/42QR4Jpip+HLLc8/mlhUr19o1mPTs7Tt2yZff9LeBqMqvlBM/v+sydPhvsnDRMtv5pUuXpVffb+Tf//ZIuTKl5Pl8z8nefQcCXPjo0eNy5NhxW6eBJy3JkiUVHac+NLCl49KAmJbRv08QDarlzp1TXq9TXQ6ZDCidck9LaK5nG/KEAAIIIIAAApEuQIZTpBNzAQQQQCC6C8QyMSTXWk06ZZ6mM2lIyRZNbTIP155rW2NNMTzq9XdeJyZlf/81T9o+cL1Tp/067Z3LaB0FAQQQQAABBBBAAIHoKvCsCcL8+N1n7ttLliyJDBsxRg4fOSaHDh+19bo+Urasmd1tCjyfVy74XrRZTh3bt3LXB7VRp1Y1ea/pW/aQrqHkvXSljBsz1ASt4suly5el4dstZeu2nVKubCkZP+Fv226kWWsquQkStWrRWF6v31TGTZgsFSu8LEuXrzJBKD/p2qmdOwMrYcIEMvnvGfddWrOxPmrXUhZ5L5cSxYtKq+aNbRudClDXdXLK1GmzJV/ePNKzWwdbdevmLZt9pdPxheV6Tn+8IoAAAggggEDkCBBwihxXekUAAQSeGoFiv5x9au6VG0UAAQQQQAABBBBA4HEJ+Jgp7paYQNC58z5y0WQjadHp9Yq/UNhmKH3Qvqu8WqWivFmvlplyL1WYhhkz5r0JcHQKO1exXweTJIkT2907/tMLHDFBrpSmjQabtMSKFcuuteRkMR04cNjW58//nH3VJ9ear+7dMG1oAEynBdQp/r7vN8iee/TYCblx46adXi+irxemwdEYAQQQQAABBAII3PuJIkA1OwgggAACCCCAAAIIIIAAAggggAACT4KArlH0TtO2Mnb8ZNm9Z5+sXbfJNSwzDUCG9OlkQL8vpFDB/DJ77kJ5r2UH2bZ9V6QNW6e5S5jo3ppMeqEkiRPZoJBmHF25ctVeO368eBEyhus3XNPqaWexYseyj6xZM9lsqqRJEkf49SJk0HSCAAIIIIDAUypAhtNT+sZz2wgggAACCCCAAAIIIIAAAgggEDUExk+YYgc69rdBdpq71Ws2yOdf9XPNQ22O6FR6n/ftJpr5065DN/l76kx53j/DSLODIrKkT59W9u0/KLdu3ZLYsV1/Vtr17x5JYoI/msmUPXsWWbZitV3DSYNgD1ucNZ7SmKytDu3unxowoq/3sOPlfAQQQAABBJ5mAQJOT/O7z70jgAACCCCAAAIIIIAAAggggMATI6DBocVLlgcYT7asWcwUeSltna7ZpEGev/+Z6W6zZesOO8VeTq/scu3aNZNpdEfi+WcXZXomo203d/5iSZUqpRQ06zrFiRPHfW54NipVLGsDTl9+3V9qm7WfvJeskCtXr0rtmq/a7ooWKShjxk6UAT8Pl8Zvvyk+Zko8vX54i07ZV7BAPtH7/MNkeJUuVUJ0mr39Bw6Jrj0V0dcL7zg5DwEEEEAAAQRECDjxKUAAAQQQQAABBBBAAAEEEEAAAQSeEIEffhwSYCSv165ugjnVZJ2ZRq9jp172mAZZbDFT6h0+clRGjR5v1zTSuixZMsl7TRvZwxXKl5b5C73lp0G/2LWWfvtloNxbo0mbuNZpso39n5z1nJxX55hJXrLl1aoVZd+BgzJ/wRJZu941tV8xM563G9W1x71yZJO2rZrJiJG/y/c/DrbXzZc3j2zdttPpKsBrUOs7xfS/mHPsow9bSt/PvxPN9HKyvTTApgGnsF4vwMXZQQABBBBAAIEIFYhxwdfX/HjyeMoNs7jlgUOHpXiRwo9nAFwVAQQQQCBIgcbN28mIQd8HeYxKBBBAAIGQBZq3/URGjxgYciOOIoAAAghEWYGTZ85I+jRpHsv4T5w8JTrFXFBZSqdOnZH4CeJJsqRJ7xvb1avXJGHCBPfVP0yFn5+fnDh5WtKmSS2JAq3ppP3qek5nz5632VlO4Ohhrqfn+l68KD7nL0imzM9IbJP55Fki43qe/bONAAIIIIBAeAXWbtwk2U3GctyHzDIO7/Uf5XlkOD1Kba6FAAIIIIAAAggggAACCCCAAAIIhFMgQ/p0wZ6ZLl3wQbCIDjbpIOLHjy/Zs2UJdjwaZEqTJlWwx8NzQINpQQXUtK/IuF54xsg5CCCAAAIIPM0CMZ/mm+feEUAAAQQQQAABBBBAAAEEEEAAAQQQQAABBBBAAAEEHl6AgNPDG9IDAggggAACCCCAAAIIIIAAAggggAACCCCAAAIIIPBUCxBweqrffm4eAQQQQAABBBBAAAEEEEAAAQQQQAABBBBAAAEEEHh4AdZwenhDekAAAQSipYAuek9BAAEEEEAAAQQQQAABBBBAAAEEEEAAAQRCI0DAKTRKtEEAAQSeQoHRIwY+hXfNLSOAAAIPL9C4ebuH74QeEEAAAQQQQAABBBBAAAEEEIhiAkypF8XeMIaLAAIIIIAAAggggAACCCCAAAIIIIAAAggggAACCDxpAgScnrR3hPEggAACCCCAAAIIIIAAAggggAACCCCAAAIIIIAAAlFMgIBTFHvDGC4CCCCAAAIIIIAAAggggAACCCCAAAIIIIAAAggg8KQJEHB60t4RxoMAAggggAACCCCAAAIIIIAAAggggAACCCCAAAIIRDEBAk5R7A1juAgggAACCCCAAAIIIIAAAggggAACCCCAAAIIIIDAkyZAwOlJe0cYDwIIIIAAAggggAACCCCAAAIIIIAAAggggAACCCAQxQQIOEWxN4zhIoAAAggggAACCCCAAAIIIIAAAuEROHbsmNy9ezc8p3IOAggggAACCCDwQAECTg8kogECCCCAQGQJrFm7UQb8/EtkdU+/CCCAAAIIIIAAAghESYHjJ05I+QpVpEeP3hE2/vkLFkmRoi/KpElTIqzPbdt2yNmz5yKsPzpCAAEEEEAAgagtQMApar9/jB4BBBCIkgIaaHqrcVtp9G4bGWgCTl7PliTwFCXfSQaNAAIIIIAAAgggENECt27dkrZtP5KdO3fJ6dOnI6z7As/nl44d20uJEi9EWJ+169ST6TNmRlh/dIQAAggggAACUVuAgFPUfv8YPQIIIBClBDSbyQk06cDHjRks+/5dLe0+eJ/AU5R6JxksAggggAACCCCAQGQJ/PzzEDl44KBogCik0rVrT/nhh/7y7Xf95OUyFSVf/sLykzl35arV8vbbTex+02YtZO++fbYbX19fWblilfhcuGD39XxtP2jwUKlUqZpt37Nnb7l+/bo9/suvo+Sdd5sFGEKjRo1l1G9jZPOWrdK8eWu5fPmyDBwwSGrVqivj/5zof52L0rlLdyleorQULlzCZmn5+fnZY8uXr7Tn6VgbNHxHZs+eG6B/3dEp/7p37yUvlSonXjnz2n6GDQs4K8Lvv4+zx7UfvZY++vf/yd2Xt/dSea3m6/b8KlVfk7/+irisLvdF2EAAAQQQQACB+wQION1HQgUCCCCAQEQKONlMmsWk2UzFXyhsg0x/jB4kJYoXsZdqbwJOBJ4iUp2+EEAAAQQQQAABBKKiwLp1G+Srr78zQaABkjRZ0hBvYcfOnTbYtHDhYnm9Ti3JmCGDfP75V1KnTn1JmTKlvPPOWzJr1hzR4IwWDQ6tXrNWzp87b/f1fG3/y4hR8kqlilKkSGEZ8csoWWGCUloOHTosK1euttvO08JFi+WACYbFiBFDUqZKaauzZc8mhYsUktSpU9v9lq3ayuTJU6VevTfkjTdqiwauFpjp/C5evCSNm7wv5318pGfPbvZ6vhcvOl27X+/cuWODZJUrv2LadZUcObJLr96fyokTJ20bDXZ90qmr3f7wgzbic95HRo8e6w6sbdq0Wd5s8Lbs33/ABLeayaVLl6TtBx/JzJmz3ddgAwEEEEAAAQQiRyB25HRLrwgggAACT7uABpoGDvrV/FK7QUqWKGqzmZwAU3A2GnjSh2ZCaXBKH5r9pHUUBBBAAAEEEEAAAQSis8AFk4HUokUbadnyfXnpxZLyQyhutmzZl2XihD9syzx5cotmNE2aOE7KlClt6xYvXiKrV68NtqeSJYrL1KmTbADp9Okz8nyBorJ+w0apUKFcsOfogYIFnpdMz2SU3377XWrWrC5Nm7xr2+/evUf0ml9//bm7buu27TJn7jzJnz+fDXq98XptadigfrD9x4oVy31P2qhC+XI2y2nJ0mXS4M16snTpcnvuwgWzJUGCBHZ7i8mmcsrwESPt5orliyV58uTyyccfSZ5nC5gg3jCpXv1VpxmvCCCAAAIIIBAJAgScIgGVLhFAAIGnWSA8gabAXp6Bp7XrNtk1njTwpIXgU2At9hFAILQCfn7Xpc9n38lLJYtJzdequk/Tb1LrI3bsez8ar1i5VqZMnSk9un5kviWewt2WDQQQQAABBCJLoHOnbpIgYQLp1rVTqC8RM+a9iWucDCPNPnJK2rRp5KR/ZpBT5/mq13Paa1stuoZUeItmP2lZZTKjNMNIy5kzZ+0jW7asUqhQQenQsbMNgmlgLV++vLZN4Cedgk8DS9tMsCpt2rT28M0bN+3rQpMtVbRoEXewKfC5//77n+TN+5wNNukx/fe9dOmXRKfzoyCAAAIIIIBA5Arc+8kkcq9D7wgggAAC0VzAmTqv0btt7J3q+kye0+aF5/Y1uKR9OMEmzXjSNaA0Ayq8Rafi0Pngp06dFt4uOA8BBKKowF9Tpsn2HbukYEHXmhhXr16T//X5WurUayK16zaWNu26mOl6Ttm7y5fvWflv914ZOXp8FL1bho0AAgggEJUE5psgyj/TZkiGDOmlX78B8sUXX4sGTtav32i3b9y4ESVux1mrKYYJhMWJHcc+ypcrK43ffduOf+rfE6VDh3Yy00z1V6FiVRkzxpWd5Xlz165dk6LFXpTWbdqJZkdNnPSXPaxrO2nRKflu375tt4N6unLlijvY5BxPniyZza7SL5hQEEAAAQQQQCDyBO59jTPyrkHPCCCAAAJPgYATaNLp8zRIFJFFA082c8p0qlP06SO8mU66CPK+ffvNXO6XI3KI9IUAAk+4gP43P2nydDMFUD7JmiWTHW3nbn3l5Kkz0qxJI/Mt6fjm+DRp276LjP1tiCQ362ZUqVxe5s5bLA3q1zHTBmV4wu+Q4SGAAAIIRGWBuyYQkjt3LtFp7ebMnW9v5ezZc/ZV9zt2bP9Ybk/XfdKMJ88s4MADcQJBWp8xY0Z7uHSpl8waUo0CN7VZSV27fCIftG0lzd5rKT/+OFDeffetAO2m/jNd9N5nzZxqM5k0iJU1W253JlZhkyU1YeJf4ut7UZKZf689r68d5fTyEl1r6ubNWxInjuvPXqtWrxEvrxzimREW4KLsIIAAAggggECECJDhFCGMdIIAAgggsO/f1TYTSYNBXs+WtFlIGiR62OKZOeWsBaXXioyiv6x2797LZkB55cxr54ofNsyVTfXTz0PkjboNxPnWpl5/5arVUqtWXdm5c5f9luWgwUOlfIUqoue+824zOXbsmB2mLmys7fRV5+XXfrToAs5any9/YbOgcWv7LVZ7gCcEEIhwgc1bttv/TqtVfcX2vWnzNjl46Ih80LqZ1DLT61V+pZx82quL3DDT9Uyd5lpUvGrlCrbtqtXrInw8dIgAAggggICnQOXKr8iypQsDPHQauJqvVbd1zlpFnudE9rYGbrRMNMGdDWZdp169Pw1wyWQmayhx4sSyYP4ie3zPnr1SoEB+yZghgwwZOlz+/vsfOXz4iHh7L5X58xfKkSNHZfqMWbJn7z4TLPK1/y7rlH6BizO1n7Y7fvy4DDZrL3mWN9+sa3dfKlVWPvvsKylVurwcOnTY3eT112vZ7c5duttxabaYHq9f7w13GzYQQAABBBBAIHIECDhFjiu9IoAAAk+lgGYdOYEnXXtJs550+rvwTIHnGWhSzIiYou9Bb4pOsbF33z7RX/h79uwqOXJkt79Y6zR8zz6bx877vsxj7nedlm/7jp2SK1cu+0v1p59+ab6FWVg+Nt9A3bhxk/nleLi95EXz7cvVa9ZKlSo1ZMXKVXaqlHXrNsgnnbqaBYxzS48eXSVDxgyi039QEEAgcgSOHD1uO37GP1PpwEHXH6by5MnpvmCGDOlEFyo/cPCQrdPF0LU459odnhBAAAEEEHhCBZy1mGLGvLeGk+dQw5rdU6VKJZsVpGsuVate267DpFlCTtGspy6dPzYzEayzx/8xmUnx4sWTX34ZYrOiWrX+UF4oXkree7+VbN++Qy5c8JWvvvrWrKdUXooUfdFmc33//ddOd+7XsmVelooVykv79h9L4SIlbYBKDzqZTKVM9tSokcNFM53WrlsnDRu+aQNfOoWfltq1a8qHH7SWceP+tOMa+NNgafBmPWnZ8n17nCcEEEAAAQQQiDwBV25x5PVPzwgggAACT6GAM92dE2jStZc0AFX8hcIPnArPTp036Fc7bZ6T0VSieJFHoqh/aJ444d488hXKl7NZTkuWLpM3Xq9jf5GdNXO2VHqlgv0levLkqfLWWw3sVB0//viT/Qbq99+5fmm+aaYeGT78F/Oty97usX/55afy7jtv2/Z/Tphk61u0eM9O++FuxAYCCESKwJEjrozD9OlcC4870xQlTpwowPUSmm9anz133tbpNHtx48YxASfXuQEasoMAAggggEAkC0z+688QrzB92pQAx194oaicOnkv00cP/j5mpLtNIROg8Twe+Hxt6Hk8ffp0snKFtxw4cFA06yhRooD/Zmp7/Vm2adPGJhh0x/ybGU8aO7UAAEAASURBVFer7DR4a1Yvk1OnTpvM4RuSJUtmW69P2t8Fk9101XzRypl+z33Qf0MDWePGjbbT6sWPH8/+DD5k8MAAzapVqyr60KJfGPv8868kc2bXlLl6fs+e3eTjjz+So8eOSwZzH5qJRUEAAQQQQACByBcgwynyjbkCAggg8NQIOFlJOqVe42btpPqrFW2ASbOeNNikgSdnur3AKM65zlpQTkZTqlQpbF/BnRe4n4fd1ynz5s1bID/80F+WLl1uu7tpptjS+d91seNp02ea+eBvyqZNW+zCw2+8UUd8zMLFOr/9yVOn5H+9+trHOvNNT/2D9sWLF91DKvD88+555F82U6ToL76lSpWXr7/53v5C7m7IBgIIRLiALjCuQWX9w5UWZ2oi/e/bs+h6D/HiutpofWLzxzWf8xc8m7CNAAIIIIDAUyWQPXu2IINNDoL+nOwEm5w6zbbSgJVnsMk5ltxMxRdcsMlpo6+pU6cKMlC0ddt2+f77H2XWrDlmur/J0qFDJ3vaa2b6Qc+i/9bnyukVZB+e7dhGAAEEEEAAgYgTIOAUcZb0hAACCDzVAprN5BksGj1yoMncye428ZxuzzPwpOdpMMnz3D9GDxInq0n70L7amen6PM9zdxyBG9euXZOixV6U1m3aif4iO3HSX7Z3Z/qOunXr2MDSqlVrZO7ceXaKkYIFnjfrOl13j0Kn8tBH7ty5pW2bVpIkSRL3Mc+NZ555xvQxXerWfd0ulvxSqXJ2Gj7PNmwjgEDECaQzmU23b9+Wq1ev2U5Tp0ppX318fN0X0eMadE6d2nVMD/hevGS+1Z3a3YYNBBBAAAEEEHi8AhpI0vWdOnXuJh+262B+Pr8iE/4ca6a5vjdN7uMdIVdHAAEEEEDg6RVgSr2n973nzhFAAIFIEVi9ZoPNZnICRoEvooEnfWigSQNIOm2eBpOcafgCt3f2S5pp9daattp/ZJWpZt55zUqaNXOqnQpE//CcNVtucebDz5v3OdHHzFmzZfHiJdK48dt2KGnSuP4Yrd/U7NWre6iHpwsxD/q5v537/tVqNeX3seOlSJHCoT6fhgggEHqBTP5rN506fUayZ8tigsKuhdDXbdhsgsfZbEfbd/xrX5/Nk8u+Xrly1QapnLWcbCVPCCCAAAIIIPBYBTRradjQn+0YbplprHUKPQoCCCCAAAIIPBkC/Kv8ZLwPjAIBBBCI8gKBA0kaTAopkOS0f9CNO4EpbReRazpt275d5syZF+DyadOksfv6jckMGdLLn3+61lnybPT22w2le/detqqOWZBYi/6S+/rrtWXKlKlSrGgRqVixvJwza8Ds2bNHGjVqYNsEflq3boNcvHRRns2T22RcXLVZUgnixw/cjH0EEIgggWcyZrA9nThxygacvHJkE60bP2GKZMyQTpImTSL9+g+x0+69UuFl2/bkydP2NVOmjBE0CrpBAAEEEEAAgYgUINgUkZr0hQACCCCAwMMLEHB6eEN6QAABBBDwEHACSU6g6EGBJ49T3Zu6ntPAQb+6s5lCCly5TwrjxujRY0UfnuXI4b1SsUJ5ad/+Y1utQSQtzpR6ul3ztRo24FTarMHkOfd87149TJDpnPT8Xx/70LaVXqlgA04xY94/g60uvtz3089tRpW21f7at/9ANykIIBAJAgUL5LPBpEXey+WlF1+wV/i8bzfp2vMz+fYH17ek48aNI19+1sOs8+QK/i5esty2Cy5jMxKGSZcIIIAAAggggAACCCCAAAIIRFkBAk5R9q1j4AgggMCTK3Ds2Alp/Ha9AFPnOYEnHXVw0+d5Bpo8s5l0Wis9FhF/9M2WLaucOnk4WLxx40bbIFD8+PHsAsNDBg8M0Fan7dDSsEH9APW6KPLECX/IBV9fc/5ZyZY1q3t6Dw0mBb5m/fpviD6OnzghCRMmFF08mYIAApEnkDhxInm1SgWZMWu+nD/vIylTppA0aVLJr8P62/3r12+YzMZ07gHo/qw5C6RYkYI2E8p9gA0EEEAAAQQQQAABBBBAAAEEEAhSgIBTkCxUIoAAAgiERyBwwOjzPl1scEkDTJrxpEUDT05xAk+Bzxs3ZrA7uDR/4VLZuWu3e72n4i8UDjZg5fT7sK+pU6e6rwsfHx/5b/ceGTRoqOjxatWq3tdGKzRwFJbgUcYMrmm+guyMSgQQiFCB+nVr2YDT1GmzpVmTRu6+NfgUuCxavExu3Lgp77wVMLgcuB37CCCAAAIIIIAAAggggAACCCDgEiDgxCcBAQQQQCBCBLyeLenuxzNg5FQ6wSVnXwNP+tBMptVrNgS7PlOlimVEHyWLF7HT7Dnn7ft3tdPVI3ndvXuv1KpVV7JmzSJDBv9ks5IeyYW5CAIIRJiABpamTfldYsSI8cA+q5psqCqVy0tQU2I+8GQaIIAAAggggAACCCCAAAIIIPAUChBwegrfdG4ZAQQQiAwBXWdp7bpNNni02kx/p4/AQSa9rlOnr5r1pOcEFaDyHGPgDKh2bd/zPPxItkuUeEGOHd3vnibvkVyUiyCAQIQLhDaApEGp0ASmInyAdIgAAggggAACCCCAAAIIIIBAFBUg4BRF3ziGjQACCDxpAk4gyXPqPA0mhTQFnnNOcPcSOND0oMBUcP1EVH3s2PyzGVGW9IMAAggggAACCCCAAAIIIIAAAgggEL0EYkav2+FuEEAAAQQet4AGkfShU95psEmnwNPp9pxAVGjGp4Gmtxq3lUbvtrHNNdD0x+hB7nWdQtMHbRBAAAEEEEAAAQQQQAABBBBAAAEEEEDg0QkQcHp01lwJAQQQeOoEnMCTTrcXmsCTBqU0OEWg6an7qHDDCCCAAAIIIIAAAggggAACCCCAAAJRXICAUxR/Axk+AgggEBUEQgo8OdlMGmjSKfg0OKXZUWQ0RYV3ljEigAACCCCAAAIIIIAAAggggAACCCDgEmAxCj4JCCCAAAKPTMCZbk8zmTTjSR9aSpYoKo97faZHhsCFEEAAAQQQQAABBBBAAAEEEEAAAQQQiIYCBJyi4ZvKLSGAAAJPuoBn4Klk8SKszfSkv2GMDwEEEEAAAQQQQAABBBBAAAEEEEAAgQcIEHB6ABCHEUAAAQQiT0ADTxQEEEAAAQQQQAABBBBAAAEEEEAAAQQQiPoCrOEU9d9D7gABBBBAAAEEEEAAAQQQQAABBBBAAAEEEEAAAQQQeKwCBJweKz8XRwABBBBAAAEEEEAAAQQQQAABBBBAAAEEEEAAAQSivgABp6j/HnIHCCCAAAIIIIAAAggggAACCCCAAAIIIIAAAggggMBjFWANp8fKz8URQACBJ1egcfN2T+7gGBkCCCCAAAIIIIAAAggggAACCCCAAAIIPFECBJyeqLeDwSCAAAJPhsDoEQOfjIEwCgQQQAABBBBAAAEEEEAAAQQQQAABBBCIEgJMqRcl3iYGiQACCCCAQPQR2LJrV/S5Ge4EAQQQQAABBBBAAAEEEEAAAQQQQMAKEHDig4AAAggggAACCCCAAAIIIIAAAggggAACCCCAAAIIIPBQAgScHoqPkxFAAAEEEEAAAQQQQAABBBBAAAEEEEAAAQQQQAABBAg48RlAAAEEEEAAAQQQQAABBBBAAAEEEEAAAQQQQAABBBB4KAECTg/Fx8kIIIAAAggggAACCCCAAAIIIIAAAggggAACCCCAAAIEnPgMIIAAAggggAACCCCAAAIIIIAAAggggAACCCCAAAIIPJQAAaeH4uNkBBBAAAEEEEAAAQQQQAABBBBAAAEEEEAAAQQQQAABAk58BhBAAAEEEEAAAQQQQAABBBBAAAEEEEAAAQQQQAABBB5KgIDTQ/FxMgIIIIAAAggggAACCCCAAAIIIIAAAggggAACCCCAAAEnPgMIIIAAAggggAACCCCAAAIIIIAAAgEEzp49Jzdu3AxQxw4CCCCAAAIIIBCSQOyQDnIMAQQQQAABBBBAAAEEEEAAAQQQQCDyBQYNGSnLV66570L/695R8j6X5776iKz49789kjZNakmZMoXt9oLvRWnyfjspVqSg9OnVOSIvFaAvP7/r0qJ1R1s3YuiPEi9eXPdx7yUrZNgvY9z7SZMkkQrlS8srFcpKqlSucbb6oJNcvXJV+v/wuXvsesKo0eNl9ZoNMmzw9+7z2UAAAQQQQACByBcgwynyjbkCAggggAACCCCAAAIIIIAAAgggEKLAmTNn5dKly1KnVrUAjzSpU4d4XkQc7NL9M5m/cIm7q2RJk0jtmq9KtWqV3HWRsbFs+Wo573PBPpavCBhsu3T5svWoWKGM1H39NSlc+HmZPmOuNG/dwbbX8Zw+fcZuD/x5RIDh+V68JGfOng1Qxw4CCCCAAAIIRL4AGU6Rb8wVEEAAAQQQQAABBBBAAAEEEEAAgQcKxIoVS+rXrXVfu/UbNsuIX8dKn/91kgwZ0tnjg4aOlHNnz0uvnp/Ijp3/iQZdmjZuKFOmzpC9+w5I2rRppMk7DaRkiaK2vZ+fn80Y2rBhi9y8dUsKPJ9XataoKmPGTpDbt2/LpMnTZdHi5fJq1Yo22LR+4xZJnSqlSLHC9vyVq9bJqDHjTZDnrMkmSi5v1HlNavgHpP7+Z5Zs3rJdypR+USZNmWYDQblz5ZQ2rZpKlszP3Hc/TsXM2fMlT+6ccvHSJZk1Z4FUrPCyc8j9+mqVCvJMxgx2v1CB/PL5V/1k8+ZtJtvJ1VbHqGNdt36TvOA/VvfJbCCAAAIIIIDAIxUgw+mRcnMxBBBAAAEEEEAAAQQQQAABBBBAIGwCvr6X5NjxE3L5yhX3iYcOHZHde/bZfc2M0uMajLl9+45UqVRBTpw4ZQJMo93te/b+WuYvWCKxYseygaGbZn2mGDFEkidLZtukTp1S8uTJKan8p9U7evS4HDl23B7bvmOXfPlNfzl37rxUfqWc6FR4Q4f/JgsXLbPHT548LRtM0GfgoBGSOVNGeenF4qLn/DN9tvv6gTd0jSgNjFWpXF5erVJR/tu9V86f9wncLMD+lq077H7OnDnc9Zr5pFP/9RswVK5fv+GuZwMBBBBAAAEEHr0AGU6P3pwrIoAAAggggAACCCCAAAIIIIAAAvcJaKZRjdpvuesb1K8jbzeq695/0EbPbh3dGU0XfH1Fp6zTzKaTp86IrtP0Ysli0qNrhwDdpE+fTlasWivly5aSN+vVDnDM2Rk/4W+7OXLEQBOgSiqtWjSW1+s3lXETJgfISprwxwiJHz+ebasBqK3bdjpd3Pc6d763rStTuqT4mUDRyN/GybwF3qL37FnGjvtLdP0mDUhpgCpdujT3ZU21bf2eNG3ezmZrNX/vHc/T2UYAAQQQQACBRygQLQNOjc0PGRQEEEAAAQQQCJ3AaPOHAwoCCCCAwNMhsGDRUhk1epxotgQFgSdNIFmyJGZKuEbyilmz52kubzeq57795/M/594OzUaCBPHdzdKZKfW03LlzVw4dPmK3wzvl3JEjxyRliuQ22KQd6dR/Ob2y2wCQ7dj/yQk26W7aNKntVHmexz23585bJAUL5DNZVjElQfz4kitXDpkzd9F9Aad16zdLrJgx5crVq+KVI5t882Uvz27sdpo0qWywbMKkqVK5Uvn7jlOBAAIIIIAAAo9GIFoGnJSOP549mg8QV0EAAQQQiNoCfEkjar9/jB4BBBAIq4AGm/r8r7Pk8piOKqx90B6ByBLYs3e/9Pns26c64KSBnAb1g84yehj3a9f87OnJk7umzwtrXzpVXQqzbpNnSZI4kV376e7du57Vodr+9z8zfZ7PBft4482mAc7Rz4Hn/0YN6Pe5XcOpTbsuctBMI3jjxg13FpXnieqm60B998PP4uWVzfMQ2wgggAACCCDwiARYw+kRQXMZBBBAAAEEEEAAAQQQQOBxC2hmk+cfch/3eLg+Ap4C+tkk+85T5P7tq1ev3V8ZipoMZto8LZs2bQu2dUiBo/Tp04qu6XTr1i33+bv+3SNJkiQ2GUpmIagwljkmu0lLl04fSrfO7e2j08dtbd3sOQvta+CnDu1a2gDX8F9/D3zI7seJE0c+bPO+DUp5L1kZZBsqEUAAAQQQQCByBQg4Ra4vvSOAAAIIIIAAAggggAACCCCAAAIPJZAlyzP2/Bmz5snuPfvseke6nlFoy3PP5jZZQfFl7vxFMnbcJNm56z+7XpIGmZImTWKnyFu1er1dc2n/gUP3dVupYllb9+XX/W2bgT+PsFPcVSz/8n1tH1ShQavF3sulUMH88nKpklLqpeL2UfbllyRP7pzivXSFDSwF7kcDktree8kK0SyooMpLL74gz+bJFeT5QbWnDgEEEEAAAQQiVoCAU8R60hsCCCCAAAIIIIAAAggggAACCCAQoQIabNE1jjQo1LFTL1m2YrVkyZzJfY2YMUPOMoobN4581qeLJEyQQP6cOFU6d/vUrOc23gZmYptp/Oq9UdNmBnX/3xc2EOXu2H/j1aoVpdIrZWXt+k3itClWpKC83aiubRHjAdf37G/tuk32uuXLlvasttu6fteNGzdF121ySkyzxpNTWrz/jg2ODfhpuFN13+tHH7a4r44KBBBAAAEEEHg0AjEu+PqGfbLdCBrbjZs35cChw1K8SOEI6tHVja5HwRpOEUpKZwgggAAC0VTgcfybuWXXLin4XNgWwI6m/NwWAggg8MgFatR+S2ZM/eORX5cLIhBagajwGT155oykT5MmtLcUoe1OnzkrGiBKmTJFuPu9ePGSPVczmzyLZh7duXNXNDgVXPHz85MTJ09L2jSpJVGihME1ox4BBBBAAAEEPATWbtwk2bNmkbhm+tfoXmJH9xvk/hBAAAEEEEAAAQQQQAABBBBAAIHoIKCBnoctgQNNTn+xYz/4T0Q6LV/2bFmcU3hFAAEEEEAAAQQCCNzLSw5QzQ4CCCCAAAIIIIAAAggggAACCCCAAAIIIIAAAggggAACoRMg4BQ6J1ohgAACCCCAAAIIIIAAAggggAACCCCAAAIIIIAAAggEI0DAKRgYqhFAAAEEEEAAAQQQQAABBMImoOvv6IOCAAIIIIAAAggggAACT5/AgyfoffpMuGMEEEAAAQQQQAABBBBAAIEoJnD06HGZPXeh6Boz77xVL8jRr1u/STZv2S45smeTihVeDrJN4Mp/ps+R06fPSKmXSkje53IHPvzQ+5cvX5E/J02VHGZdnArlQzem8F700OGjMmv2AilX9iV57tmIv5fwjovzEEAAAQQQQAABBKKHwFMfcNqcr5XE0P+LIeahr2bDlJj2NYb/q/++ORTTtNXGtq1pF/DVv16b2D4f0C5WTEnp3ddejycEEEAAAQQQQAABBBBAAIF7Ardu3ZL3W3aQ6zduSHYTjPnysx73DgaxdfzESdHgUNy4cYINOG3YtFVmzJwnhQs9H+qA04xZ8+TEiVOSJnWqhw44nTh5ygSvzkrWrJklebKk9i6Wr1wjU/+ZZbfLvPyixI4dMb+m79m7X65evSb58j0rsWPFsv2PGTtB1qzdKDt3/Sc/9f8qCEWqEEAAAQQQQAABBBAIv0DE/CQb/us/9jPv2hHos4kSaTGbGmtyau6aLQ0e2X3zdNccsy3v+jd0nRXg2TnkOlf70h4C9uk6QXulIIAAAggggAACCCCAAAIIBBbQwMjZc+dt9dZtO+XUqTOSLl2awM2i1P6w4aNl/cYt8nGH1lK+bGk79uLFCtvMpszPZIywYJN23KX7p3Ljxk35fdQgSZEiub3WG3VqSLx48aRM6RftPk8IIIAAAggggAACCESkAAEnjQ55FicyZOv0mA0vufd00SutDfyqrTwfd/z3g3s1h01Hga5tK3lCAAEEEEAAAQQQQAABBBCYM2+RRUiTJpWcOXNO5i9cIm83quuGuXnzpvw0+FdZuWqdrcv0TAb3MWdDA1ZffztQNNsnWdIkEi9+POdQsK8a3Ppp8C82Eylzpozi4+N7X9uDBw/bax84eEjixI4jZcq8KC2bN7aZRDpt3Z8T/pZ1GzZLwgTxJU+enNL54w9k8LBRsslM56dl+C+/mzZT5aN2LeT27Tvy33975fjxk1Kvbk3xvXhROnf9VDKkTyslShSVKVNnyjlzHwXy55UP2zaXVKlSiGZ/9R84zE4PeMlMyaelpGn7QZv35KYJMg34eYQNNmn9J137mHHFlkE/fSP/7d4n+/YdlJQmAKXtteiUfnZsm7fJ9evXJUvmTNK2dTPJlTOHPf7H+MmydNkqqV3rVVlv7mn79n9N0CquNHzzdXm1akXbhicEEEAAAQQQQAABBFRA4yZPfXHCPvbVBIH0NaiHQrnautrc29ctLc5Zrj2nyunRda7Th0cbNhFAAAEEEEAAAQQQQAABBNwC1675ySYTAIllpoJr3aKJrV9gAk6eRYMkixYvEz8/P9Hg0959BzwP2+1OJtjy7397TFDntgnkXLJT493XyKPi/Hkf6f6/L2w7PefgoSO2f48mNiDU/uOeJniz1wabrly9KrPnLJSNJnNJy0AT7Fm2YrXdvmruY9Xq9WZ8t8xYl9tx6IFLly7LseMn5MqVqzbgo9v7Dxy059y+ddse00yoQUNG2rFoppLuz1/obdtcv35DvJeulAu+FyW+yVjSsa5YuVa8l6ywAbIN/mPRxpoZpv3rFx5Pnjxtt4+Y9a6c0rXHZzagpGPS66hjh0/+J2fPnrNNTpipCvV8HYtmnen9nve5IENHjJZb5roUBBBAAAEEEEAAAQQcgac+w+nO3Tt2wjubiWR+AL+j6zNpZEif7DpOImlaV5NEL+SSq+v3yjXzuLp+j1nbSQNHdyWmmWPvrp6jp7gfrkn0Yphj2oV2dUdfzSNAxtMdvRAFAQQQQAABBBBAAAEEEIhaAjVqvxXigIM7PmPqHyGe5xxcunyV3cxv1h8qUriADTxpttIBk1mk6zlphs/8BUtsm9drV5emjRvKgoVLTWbPcKcL2b5jl82M0orP+nSVQgXzy3f9BtngirtRoI0Zs+bbmvjx48tgkxGUNEkSadX2E/fUfnpw2vS5NsCj60Bpv2vXb5JPP/9eFptgj9ZpIErLl591l9y5vGxQKYHJdJo8cZS806SNDTa1/6CFlC9fWmLFjGmDOPaEIJ66d/lIXixZTHr2/kq2bN1hMpp2SIP6dSS+ydQa8MMXZi2oTHYavr/NGlC/jvrDBJxWSo1qlWXE0H7SvFVH2+OoEQMlRcrk7nWcPC+jazlpUE1Lz24dxStHNmnXsbsd419Tpksr/2CfHs+VK4f07tnJZlu179jDGhw6eES8vLLpYQoCCCCAAAIIIIAAAmQ46WdAwz4BH05Okkja1tXtx+TgewNsq9Stqtp9GyoyT/ZVa0KYHs9pY3v1yKCyHfGEAAIIIIAAAggggAACCCAQQGDefG+7/3z+52wGkAaZtDj1p06fsfv6VLFCGfPlvhiSLFkSd51uHDx01O7HjRvHBoK0TVIzrV5IRafK0/Lcs7kkbZrUNrATx5zvWQ4ecrXZbaan+/CjbvLrSFcQbfeefRInThzJljWzbd6xUy/p8+m3dvx67dgmW8spsePEsvtaH1LJkzunvbcc2bPaZnfNFya1aOZXwkQJRINC/QYMlR07/7P1mn3kuta975bGju26lm0Q6EkDeFrUSKfY0+kLNWimZf+BQ/bVecqQPp0kT5ZUnLFovX6Bk4IAAggggAACCCCAgCNw76dQp+Ype71jAkCuH/E1LHT/D/sJi+WUA8362x/aTw+eKdlGfiQJiuaUaxv22mBTmlav2n17psfpF0bMk+sb9ruzntyZTaaNzaAyV9NrUxBAAAEEEEAAAQQQQACBqCYQXKaSk9kU3PHQ3OeFC77uLKGx4/4SfThFp9Br8f47doo6p06zfYIqt8w0e1p0jaXQlpsmc0pLwgQJgj3Fz++6PXb7zh33OknPZMwgefPmtvXffNlLBg4aYae402nwWrT5WIYP+UHSpU0TbJ9hPXDixClp276Lvb4Gi3QdqPAUnUJPSzwzLZ9TEiVKaDd12j7KkyMw7s/JMu7PKQ8cUKMGr0ujBm88sB0NEEAAAQQQQACByBCIGRmdRrU+XflM97KVnDCQ85q2TXUbXEpoptVLVCyXXDFT6jnnnB06W442/0mOtvhZjrUYJMdbDpYLw+dJiuZVDIP24PTir2J27+VPBToW1eAYLwIIIIAAAggggAACCCAQwQI6NZ0WzeJ5Nk8u+9Dp3LRoBo9m82R6JoPd16ft2/91b3tuZPfPCtJzzp3z8TwU7LaTvbNj579yxwSUgioZM6a31bnNmIYN/t790GnytGjAplvn9qJT2WnGkK6vtGbNBnvMebpy5ZqzGa7XJctW2WBTTq/sMnnCKDMdXocA/cQ0U/U55eq14K+lWUtadP0mXQ9Ki5Mt5dynreTpsQuEJtikgwxtu8d+QxE8AF0n7ccfB5r/1tZFcM+u7sLb/8CfBsuyZa7/TYuUgUXjTvV/O9U9pKLHdQ2/yCrad3D/FoT2mtevu76kENr2gdvpGO5G8hfWQ+uon+XOXbpLjx695cgRVxZx4PFG5r5Op6vrCkb1curUafNveNT8UsfUqdNk3PgJUf0tMGtanrL/ZhzwXz8zyt/QE3YD934KfcIG9qiGc8eso6T/w63ZRq7XO/f2zS8Ye5v0szGj57cOkuy/fiSnh8yy0wYEPMfjXHOOE5BK1ryy6CNp80r2HL2W+zr+24/qPrnOoxfQH0oe9geTRz9qrhhdBPj8RZd3kvtAAAEEEEDg6ROYO3+xvemqlSvI99/0sY8fv/tMUqZIbuvnmeOxY8cWnW5Oy48Dh8rHnXvL198NtPvOkwZjNPtHS7MW7W2bGTPnOYeDfC3+QhFbr8GXtxq3ljbtupg/bp0K0LZSxbJ2f+u2ndK8dUc7pZ1ef9CQkXLe54K827StnUrv739miq9/ECetf3aTrkmlZeRvf0iX7p+6gzu2MgxPKc2aTFp0bP9Mmy2/+E/r53SRKlUKSZTQlanUrcfn0rlbX/Hz83MOu191+jxdr0pLs+bt7P0cPuz6I2K1qq+427Hx5Aho9mBwjydnlI9+JLdu3ZSvv/le1q5bHykXD2//X3zxtSxbHj0DTgcPHpLQ/rH2mgl8//77OKlUqZrUf/OtEN+jK1euyAcffiS58zwvmTLnkDfqNpCjR48FOGf37j1S5/U37fFMmb3k5TIV3QGQESNGykulyt33WLvW9dlYt27Dfce0/bBhv7ivsX//AalVq67p30ty5c4vHTp2Fr2HoMrCRYttf5Mn/+0+rH8zHDDgZ8mXv7BkyZrLjs8z8Pj2202CHIPeqxY9/59/ptvzdAxFipSUb7/r5x7Dg+5BrxWUgdbNnTvfPc6QHN2N/Df0va5br6Hs2vWvHV9Q/6YEPudh9s+fP2/WLtwWoIuvv/5OChUuHurPXYCTn5CdCxcuSIGCxaRTp26RNqLu3XsF+d+ZBor0M6BjCG+ZOHGyjB49NlSna7B0w4aNEpagq/533av3p6Hq/2EaHTt2zP6bcch/muSH6Ytz7xeIfX/V01ejeUY6zd1d8xTD/J/ue5YTg6bLycEzJEnxPJLOf00ne45ppNlKzjmuPlwT8/lt2Cfxi3rJ9Y37JX4RL4lhAk++I1z/o27+3TBT9Hlege2wCGzevEWumV+WXixZIsTTLl++LO+8+56kSZ1Khg8fHGLbiD547tw5yZuvsCROnFh27dxsftGNe98l9NsMZ86ckbRp05m53u/9p/i/Xn3NtzR3ynfffSk5vbzuOy+yK34d+ZvMmDFb2rdrK+XKlYnsy0VI/9u27bD/IL3wQlHp3q1zhPQZ1TupUqWGbN22XZYvW2QWeM4Z1W+H8SOAAAIIIIDAUyJw+sxZ84fF4/ZuXyxZLMBdv/RScdGA0fKVa6RD+1byv+4dTdDmMzl2/IQcMH/4LGF+Fly2YrX7HM006turi3z+ZT+bGXXG9J0/33Oyfccud5vAG/ny5pGmjRvKmLETbdaPruOUIUM6G9iJ4Z81lDuXl7Rs/q4N8mjAxwlIaRaW/lwfz0zxp1PpiXlollalV8ra9ZH0WrVrVjN/rNtts4k0k0j/YBczZqBfDoP4ZdHJWIoRw/Wd0bIvvySTp8yw9/7LqD/M7w3ZA9+KvP1WXRk1erwNgl02f8DVL0DGCHStePHiymd9usinX/xg79e5l2ZNGomun2VLEONxLhbTfzzOPq8RKxDUNHrOtJWeV2IaPU8Nth+VgAbTtIwYMSTES+ofnN9t/J6kTJlSNIjge9GVTRncSU2btZA9u/fKF1/0lYQmcD5ixK9SpWoNWbtmuckgTSQaDHq1Wi0pU6a0jBo53P7dZe8+1xp62meRIoXsenq6revMffHFN7ppMk5T29cMGdJLi+bv2W19+uOP8fZ35wxmalQtF3x9pVLl6lKoUAH59Zeh5osDvvLlV9/aP9Lr9TyLZkm0aNHWrNV3WS5euuQ+pJltek7Pnt0kt/l9fM6ceTZYM2/eTClY4HkTDKgn58+dd7fXjS5de0iSJK51BrXfYcN/lXr13pDs2bPJOhNI/eGH/pLATPf64Qetzb9LId9DpkzPBLhH7X/N2nUyZcpUt82DHPUcz7LYe4nd/W3UCEmVKpXnoUjZ/mfaDPn8869l396d7v6rV3/Vfkkio/975T4QhTaSJk0q3bp2Ev37VWSVEydPigaEAxcfHx/Zt2+/zbwOfCwy9vfs2SvVqteWxYv+3959AFo9/nEc/5bKKhWVlpQWGqSBiIrMJKOsKJREKrIjaYm/LUoRkWRFMrPSXkSIFKGtkna0/s/nOfc5nXs6d9S9161730/dM3779/r9zu/8zvN9xseu2eGke4o0VvTzzz+7fNLMa4I4jdUxOosEduRyZ9EK9vTFhj6con0suQ2Ou92P7sLaaXPsQNesXokO5/iaTr7qU8zUCkLp9l/PRa870+bVvtnyuptz9fmk99u2j/FTa/l+fYo87Ubq3fsBe6p/yl/og5592pXEOG83lpw5syxevNhWuZJ9Rx11pPvxtKMSXaLtLl2qlA9qdO3axfSFmFbSzcmZZ0X2bdyXn1rVqpF20hPNp7bVJ02abFrHf52ee/5Fv8pOLmgTG2xSiZgnnnza3nVfnLrIh1SlSmUfKDn77DN9sEnbvXHDziUQw/RZ+awvJa3/issv8aVWKlWu5m+eRr41wk46qX501QqY3eVKTShdc/VVVq3a0dFxqo6tkkhKEyZ8YZUrpS9wphu7Ra7k0uGHl/M3jdEFpvFi3fp1fpvT6gQ6pcUkOjdjp83uz5RKHakU7xFHVIjdrFRft2/f1m7s2MWdb/2t/1OPpzotIxFAAAEEEEAAgT1FQAGelPp/ur5da9NfSEWKFPbN2SnzsqDLhFRw547bbgqj/bOCJq8NH+yDLqGGVLIJEry56IKmdsH559j69Rtc5l/BBFOYnXfumXbu2U1sicsU1L2vtvuAA/b30w4e8Khv7k6BsHKHlfHbFRaigNawoQNcxuVqK1z4IN9XsMbF7rO2M/a9xisIpr+QFChSc35av/pfSrRv2kbVUtJ+hPvkeEMt76gjq9irLz9rK1astA0bNlrpMqUsn7MM6dabbzD9hZTH/caN374wjufMFUhv83iabnf6bVKNk5deGma/upoLSpe0vNhlkN/pM/m/+XaW3de9p93fs7s98/RAW+l+iw9/Zai1bHmFXe1+/6m2yNgvx/n52ra92v0mjHw2O9zQyQrkz+9qdzzigrFLrbsrUDljxtc+M16/37t27Ww1a9Swtm2vt1atLncZ6hf6ZfTq9YB99/33fh367aPaFF263Oqm72KHHVbWBgwcZO+//6H7rXi4nXnG6da5c0cb8sJQe3X4a/bOO28ky3vQAlVDpFu3+/w2qvmqQw452K69po3pd5LS8OEjXM2jSXbqqQ2cwSs2Z87PdoZb7s1dbrKn3f6OGzfBFIDQ9p7WuJGfRw8//TTHFBCZ5jLvy5Yta93uvsMHPjROrUyoWb93Ro32JfqbN2+mwdE0ecpUe+ihR00ZqsqvUMCkW7c7fEFT/RZucfFl1qbNlXbFFZdZp063+N/F2n+l4KEAhjKq9T6RSXRlcS9U27JP3342duw42+z6bjvnnLPs3nvv8pn3qZ0HIQ9D9mri7vjj69ntt91iqmny+Rdf+rWoJpDyA/r27Rm31sjbKlWq2JTJ4/31tP31HW3mzG+STRd7HFX49ssvx9tLQ12Q6cwmfrrjah1rteucaK+OeN3aXnu19XJ5Ygo4KBgU8pxkGVLt2seZ/tT8Wteud7h93NfeeH24D9xoGuU9yVnplVciwaaBA56yZued64cNffFlnwfy7MCnrVixSGBFga/rO9xkKuxao0Y1P508OnW+xU4+ub4PKPmB7mGDa8a1b98H/bmm4JCSzq2JLp/l0UefsKEvPhddlx/pHr7+eqZ/qXNUSQGlD95/x7/WQ1MXaHnllRHus/SVH5bWPlSoUD66v34G9zBmzKc+fyxYpeUYe1xUa+z1N97yi2pzdTuX15nXHn/8YX++K/8mpfP0zjvvsTLOWwUr3nn7XVu8ZIld4D4X9957d7TvQDWDqdpgqjlV1X0fKR9N56mablMgT+dXXved9NqIl021USZOmmI33RT5TlJzsA+4wN6nn33uz+uTTj7RXbfu8cFF1arZletVonO9T+8e/nqogGaP+3rZzG++dd/dhX0wL5xD2scqrvlfff5HjhzlA4Jvvz3Kih5c1B7s1yfwu8DpEPvk08/8Ne5Ld30pcWgJl8cWGa181D59H/KBxaJFi7r8uEvtqquu8LWkU/rcRhecgRfa9kPcOb7qr1X24Ycf2/7uPqZN6ytdEHVHQPbd0e+7z9oLJoNTTmlgCxYu9CZabUrXeF0zVePvxaEv+61T3tRBLpjaq3cPd/2v7hw+tyddXtVs13xxJZdf2KPHPWlWKtCC9Jkb+Oxge/PNt+2PPxZY/fonWL8HelmZMmVS3RbNq2BbH/e51H6WKFEiSwN+Wl9uT7k+4OTDQ9vzJIsyRWotuQt8x2a29On3fADJTeGfl7n3Nb8f4PpySgp0aIRLG2fMM/XnpBBSbB0pvd/41TwraqFPJ02dNJNe7kb6d/NmP5eCFIkixOXKHbYbS828We5zF2FdkH6bP8eXvghLDtvdqNGpdkSFCu6Gc437oI/xbX+O+eRT+3Lsp9Ev8zBP/LNKAmh+VbEuXbp0/Og94r2qpuomQumqKy+PbpMuhqp+HKprHnvsMVa+/OH+oqfSO3/+uTw67Z7yQj8mdWOkUjBTpkxLFnD64YfZNmzYcL+p5dwPgNiA03fffeeH6+YsvcEmzaAbEJXq0c1guAnyC8rih3Bu7qmfKZXeOvroI230u2l3EhyoFHS+r0cve+ONkXbLzZ13KVgVlsEzAggggAACCCCwNwgUdr8R0kqJAjKpzaNMzJSCTWE+TVMmhVLWasqvQvlyYdKdnhUsy4wU+mBKaVkKwoVgU0rThOEhYzW853nPEUgtwJeoxlN6t3zuvHlWy9UGucwVNlQgRa1dnHDi8T4zfI0LUEyZOs1l+jf1v9P1O1wZqhqmP/2ebelqX7zlfivedde9duGFza2Iy4gdN268r4WibVCB0U0u0/eKKy515+FBPvPx3nvvt0kTx7pg6VJTpqwCTspEVMakMpd//HGOz9BXk2BaT6XKFX3gSb+Z77zjNlc7ZrWtdgFbpW+/meVrpqgGijJpY5O2VRmk+j2rDPGPP/7Et4rRrFlTn5m/cNHiyO/cyVPtooua+8+yfvfqT/vaunUrG/zcEF/DIjbg9OabI32w5rJLW9oLL75sLVpebvN//clnwCqDXs2e1atXxxk2tY8+HhO7ST4voGTJQ12tx8a+abRnBgyyQ13GZ79+vX2Gr1qoUBNiCjgpY1sZ4CHptTxWrFjhB+l3cyKTMH38c/vrb3SZ2V/Z9de3s39czUoVYj7RHeumTc+x1M6DwS6jWUG0+7p385nRCght2bLVZ6ZrHQrk6RxSACSllNa1NPY4znPnpFL16jsKtGrZBQsWdIG6uX6cgoGtr2rlPWc5L9VcquWCUqr9E5IKAqhZPgUtJk78ImHrMTrf7767uw15/llTzZmQfnLBRxVcjr0mVq8eCTL94s6pEHBSE3xffTXTn8+qwRSSChso1XKfkZCUt6IgmGp7JUoDBw72+3j++U0TjfZBOn0+6p94QrLxKe1DsoncG32+1fSfgoL58kWygtNyjD0uKthQpEgRv1h99vXdotpmaZ2nP8ye7T4nL3nPSy9r6QpY/+A+Vy9YYxeQaNy4oQ/gNTv/Ir/v+hyqiVcVkjjAHUstX0nnl5IMFztbFZDevHmzD1h16NDRBy8ULCzoAhoKJH/77Xc29osxu3y9SulcV1DrzDPPs0NdgKhzp44+KKTPnwqMa1jYR22jPvs6D3XNUS23O27v6mv2aZyuJzVcsEX+2oe6dSJN+OqzrRp1KvShQHDlypX8tVDzpPa51fiMJm37tGkz/PVc12kFFdXqkj5/9eufaGphql27Dv74dehwnSs4P99/DnUOKKV0jdc1U/sZzplqrnZ5sWLFvI2uQ2pSUtdZBdxVaKBr1zv85yit/VGQXYUTrnR5rS0uvtCefmagPfPMIF8bMrVt0XJvcev44IOP7GI3X3UXINd5Sco6gVwfcIrUcIo0i5fHBZ7c9cv/Kdik6JGq37qh0RpJJTqeZ8ueed/WT//ZT6jplUp0ONfXZFJwabubb+WzH/laTRq9f51KPugUalMpIKVlqgm+jKRrrmltV7e5KiOLyJJ5/1iwMNXl6ubpPHdTo6QSJ2ef3czfJL47+r1oqaiUFqAL1ohXIxHylKbJ7uEvuptOpeuuuzbZTa8u2go2nda4kT38sErklM7uTU3X+k9r3NDfdI8bNyFaakUzfpVUAkev4ztmVXBK6bym5/rn9D6otEt2pj3xM6Xgqm4sdzXld6UKO97YwXrc39uXAHnowb67ugimRwABBBBAAAEEdlkgtYzxXV4YMyCAQJYK9Lw/0mKFVqIaQZ+M+cw+cyXPQ00PDVcG9VVXtnLNcOWLBkBuvfVmu839KVWqVNGudbWVZrlMXhUaVEHS0EykCiW+/NIQP50eFBRSEEC1c853gR9lyKrljHnzfvG/eRRUmD5jRlLAaYLPBFXGvwo7KnNSmYyx6cEH+9gtt3T2v61jgzOaRhnir7/2SnTyxo0aWr3j3fa5gNilrjmzkL76arKvJaPMXhWc7dq1i6/Bo/H6LaZtVIZzvnz7+FnUhHvnzh396yZNTjdllqsGl/b96f4D/TaHgoLt2l1jh5bcEXjWemPXrX6JRr/3vg84VahQ3qZOGe+DYX7haTykZJJoNgVqvnC1kRTYCnlICm4pIKaAU2rnwby583xms2qxxbbe0uO+e+yzz76wI12tNb3OSIo9jsuW/ekXVahQ8oIEythXbQodZ/0+Hupq5imzOaSKFY+wUe+8GW027xNXqFnBJqWTTmrkz1cdWwUtlHS8FWxSuuba9v6c/9/D/XzQVM3ZxQabNE0hF8xQCtunjPj7e/bxtZXip12+PFKY+CBXizU2FXUBm1AAOXa4WplR83F33nFrtNZP7Hh9Rjp3udVv06Uu0BlSavsQpgnPap5PqcXFF/nn9DjGHhcFG7QdCpjd0+3OhNvpF5zg4QRXK061EGWvgtY1ata2GW45jRu7frMGDfZzjB/nal/F5JEpKPuXq5GigtspnV9z3XVDNWVuvOF6V5Pybr8cBQMVAJ840QV06kaarEvv9Sqlc101AHXOjX73LV/o/6qrrvDXis+/GGsKPCup8PKrw1+KBl51vura8fnnY32AY/bsH/2xj/2s+Rndw9vuPNWxfHZgf4utFZnW5zbMn9Hnk092TfS+OcIv5qabbvB9jqn2pwJOLw971Q8fO/YTXytbb5a4fDu1aqWU6jX+/PP8NWOMq1l3Q4f20QoTquWoa/2wl1/wQanq1arZec0u9E1lptWqz2OPRWoiPvy/SHOem12e8qBBz7kg1H2pbovyxxRs6uT2r5s7f5UUHFRzf6SsEcj1ASexKu6jr5zwXOam8zXYFvYf5ZvEi40LlbyhqX1T7Xp/odTF0v9zM/824wkr/3xn+6Ptk36Yajsd6AJNB9Sp7JelGlD/ZVKHhoru6gtLTduFpFIA17W/0Uf61UyYSinoZk9VUBVlVpuzivTedfftrp3xen42VWtV55sqvaRSSc89/4KvxqvSBqpyf6278YiUZJrgquh+4iPgmlFR8H1cgEjVn8MNWdiO8KwAUqPGDX3AaUlSKRCN042BLrqq4q1SFaqSvp/bVrUNrIuT2jp/zr3WRUNJ+6Xqqe+9/6H/AtS2q/REoqSSBP97+HFfokA3JRdd2NyXStAX1QPuZjp8yalElCLeb731jl+mSig0Pfccu/XWLtHqo4mWP23aDD+4wcknRUfrS/mjj8b4908++ehONy/RCVN5oWrZjzzyhKu2PtZVO/3RV0M9vclp1sXd7Oo4Kq1Zs9Zu6nSzL0Hx2KMPRZemWle6QSnrqpn26XN/dLhukoa65gPUxJ9KJp15ZhP/RRedwL04OWk/VJpKNyWh1NDUKZGgkm6uVFJGwUMdT6UJ7stJqXHjhu7RfHXoV1551ZfW0g2WvlxUekXV4fXFrJJnI1593X9pa3qdbyqpo6YYQnvQOsYDXQmi8eMn+JJcKiGh6rwK7MUmHV/dTKmqefw5Gjvdrr7Ojs/US+7YqJ1lJVU1bt2mrX+t6tVnnHG67xT19dff9J8Pfd5PcP2aNTz1lOgPsXDswvHwM/OAAAIIIIAAAggggAACCDgB/eZVDQ39xlLp8/yuZp5qJMUmNX+nYFNsUi2EkNT0l5KWpRSf+a7fKR99/Inrv3hFtGaSftudcUYTnyH7jfu9rzwHNbOkGiCTXXNZV115hW+urYtr3k7p0ktaWv+nB9iCPxbajTde738Labi2Q7/TU0rKN1DBye9ccEVNKCmpObnYlDdvXv/2YNf8lVIISOh18eKRfkS2bttq+SwScFLTXiGFmi6q1VW7di3fXNj5zc8LoxM+//rrfF/bSgGxFStX+qb1woRqASW9KSWTe+65z/VZt6NmVCtXa0GZ2Uqy1fqVdDz0p5TaeaCA1GvuN+fJDRr7TONLL23h3f2McQ8TJ06yN13+SUjFXB5DyNwNwxI9xx5HNV2npOBGbNro9ml/d7z/TTp+J55Qz7Xoca+VPPRQGzXqXet6653+HLnfDVM6wY1/d9RbPnN8xGtvuDygx3zNkfNdJriSapm+/fbrPo9DGeIvvviyHey2V02gHeiaFQs1yfzE7iFsj/JDFIBUvpqCh2eddcZO/eGodo7SP67ZxNikvsiVFxKflPehpCYmEyX1BfXzz3Ndk3LDopn+mi61fYhdjgJoqvmjwEyo8Zoex9jjEru8XX2tZtrC5yr0zaP8I6UfXJ+KypcL+XC7suz5Sefy8cfXjc5Wp04kyKQ8phBw0n6ElNr1KqVzXctSUpOOIek4qhnOkMqUKR0NNmnYUUcd6QMs7yfVqNE5pnkUOI9P8+ZGlq/8nNikvFqllD63fmQmPIR8VS1KeYsKxHz6yWe+dpZqpKllLTUBHFJ8340pXePD9PHPOpfVvJ4CtkrKZ1RSwYPUAk5qEk+Bv6XLlvlaWJpH54Cub2vWrPG1qVLalhDorVs3ed+gWgYpawSS3zVkzTr26KWqFI+Sbo0UdNqmsJMbpjpIGheGKxxV2tV6WqIm9pLm0Xx+psgibMP0uVbs+rNt+YAPfV9O69z7DS7QdEDdSnbIdWfbovZPR/t40rryxi7HLyzzHnQx0BeK2kjWhS4kRfkV1VUEWxcS3dg1bHSGH62SQ4rCK7CgNlLHj/vMBwPUlrCCJfpT0g3kwQcf7L/wVF1c7ZKqvWYFQlQFNSQFcJTCjWcYHvssyy8+H+sHhS8GvdGFVetTB3Ohr6Nw4/qpW64uMqp2Hy6M/fo97G8uNK9uUlUKoosLsMSnSZOn2AUXXuIH60vtQHczo30I6dauN0e/6G6++TbTjYmSLrjTps3wJWhU9X/AM0+GWXZ6lqlS2bJlouPUzq+Sqm6G/YiOTMcLtT2rvqt0YdaXlPZRX25quk/tG7876k0f7Nm8+V/vpmMZm9Q+tDx1Mx4CTosWLbKLXBvRstT0Km02KKnUS+y8qvKvLxgFudTWsko56LipvWYNP/nk+n4+bZveb9682QegtIwTk6p7P+eqDut80L4Hy6FDh/kSdFOnjjd9wcb2SxZbzXywW46qw5/fvIUP/Gm52t7JLuClv9iAk/ZRfymdo5p3d1N2fKYU8JS7ko6T9k3pRHcjovP/Gtd2uEqm6VxWyZKxY8f5H1Oh5F/ZsqX99PoMxQYE/UAeEEAAAQQQQAABBBBAIFcLqGaS8gfUj1G+ffL5EvjHHlMz00z0W6VJk3P877c6dY5zTU9Fftvo92StWsf437YqMKjfPA0bnuJqPtQw/Q5XJqd+/6ivJiU1u6SuA1Sj5cqrrvHN96X2m1zzKBOzTt36PqCj36zKiFRKlp/jh+z+Q6jxs3z5Ch+E0JKUkZpSGv7qa37/FFwr7TKoQ789KU2f2vCUTOa5336h9oHm/8vVRFDgTSlP3ryWP1+k0G6jhqd6Uw1P7TxQQUc1ef/Y40/55u8VHFH+Q3wThlqO+qYLv1/1PgQX9Dq9SXlSSitdMC7knei3rFpDKemCmyHjW3kPofl+BWrUPOGUpEKxml95Vscff7Be+oKZxxxb1/XnNT7a33m+fPmizdOpFZrx4yfamI8/9QEnrUd5DTpXQqBE26OkfXriiaf8Z6VBg5Nd/kq/6Dn17rvv+9fhvA2BPj+je1j+558uvyl5Xo0y0ZUPo31Q04DxSXlSA9y+qTC2PiOxKbV9iJ0u9KMT+hzSuPQ6xi4nK16vX7/eSpUsuVuL1mdcqdBBOz5z4fO3aWPknN+VBad0rofPj4LEIdiiJh1VqzG1pCbqunW7z/fppRpsKrAfCovHzqc+yZXCMQnjwnpT+tyG6RI9K3C7cuVfPi8ttsDAsmV/+skTbUdYjpop/vXX+f7t2rVrXT7xoWHUTs+pXeN3mjhpgPI3lcK1KH+h/D4YWrlypaQpEj8pXzOkMK/6h9OfaiCmti2qXKFUsNDOAd+wTJ4zV4CAk/NU8CeSttthnS7wLxc+Ncp9sYShkSbwCtatYnPbRIITGqU4Ux73BbQ9acJlA963CkO6uJpN82zDV3PdciO9OW2YPs8FnFzTerUr2aavf4muLylOFVnJbjyOGPGGzfz6m2RzXulKAtWtW9vXRtKXkmoKqcp3SB98+JF/eflll/hnlZRQ6tXzPrv22ja+2rlu4nr27OtLePTtu6PTR2Xy9+//WLQfH2WG33nnPa7a8mgfcFI1V/1VrHS0vzmM78NJ61F6zZUK0E2I2l0e9e5oH43WhT3RxVptMaumjqLQCrQkSqqlo9JOGv/pJx9YhQrl/WSjRo32pU78m6QH1eRSuuvO21xA6ib/WtWXW15yRbKqzeogVV/sCtCoVIyCLqo9VOu4433zcmq/WMPi07///utvhDRcN5Ah/fb77/6lbpJ3J73s+kpSQEfBmleGDfWlUnTDrICRgjPqmLBly0jV6PQu/447uvnjpFIuunnRjZRuiK69tr0POsYuR23T6phNdu1bK+AkM/0AOMl10Kdjoxsk3Szrpm/WrO/8rLqpD20197j/Xtfu88PRGyh9cVarfpy3UjBEpYKWLf3D14pTMwbxfTgpeKr9VG2oV4a96G+MdfOn8yM2pXWOxk6b6PWe9pn64vOPo0FhHfvQNIO2XcFTfaGeemqDZE1FqLRVSLE/AtT8gDrbJSGAAAIIIIAAAggggECtXhfHAABAAElEQVTOE9jVvpyUoahgk34LqiluJTVrpMzNzEpq6khp0qSxvqUMZeqrX2P99lRmebNmTX1Tb9+7JvMGDXratbZSzf/OVKsq+i2u339Ked02qU+lVq0us4cfedwXvFQ+R2q/b9RKin7ffvD+O77Apn6DHl6+il+3X2gmPIQaDvqdr/wB5UmoAG9KafDgIb6GQ+gmQLVuBg5UEcvEaa37zZ1SSskkLDt2PrVmo3TySfWjrWGE8ek5D5RXo79x4yb4Pqs+++wLX5hWy9jiCkKGpH6Q9JeRpIKUShNdIFIFqJW+dfkzSgrUhWc1EXj33Xf49yrkrLyBUHvFD4x5UFcZSjJLlJS3EJuOqVnTXn55uP8trjwOJW2Pkt5/7Qri6tycNi3SGokf4R5+/vln13LQob6GXrFih/jmG6+66go/WuefCuFe7loriU2hybJrr2kdO9i/lnfnzl2tffu20c/oThMlDYjfhzCd8m103qmZzPj8KHnuimNYZvxzaudp/LTx71WjRdugFn0UJIlP2v6UUtmyZfwoXzA6qbCz8geVyu5m3keic71s2Ug+ivJRwzXJrySNB/Xj1q3bfT5vVflpD//vgYRzHHZYJJ9QeWonuc9oSKHWV6LPbZgmpecKrrak7KZPn+7z8DSdzpHRLiiqczOl/FUVbFawVS1fKVVz57vy6JTXGQLsfkTSQ2rX+NjpYs9PnYeqdaqguYJ46U0hICuX7t3v3mm21LYlBKfV/Gl8P2g7LYgBmSKQ6wNOoY8mBZD09/eUH61cp+bRvpvUz5LiSQXrVfXgYXpf88l9WLe5kb4vpqQJD3RN6M2f/ni0KT59nemra4Pr22m/2hVt44y5PkCldeXdlvxLza9gFx50IQ0X0zCbOvisW7e2/xLUF6EuamrbV1/aKhWi5uGUFEBQVHmMq9appBu38EFXs3EKOM1xX5axqeYxNZJd/NR0l5JqE+1K0pdsqP0U5lMpFl3Y4lOXzjft9IUcP42+7JX0JVyhQnn3KpJiL9QaoovttGkz/Eh1lBmSqq3rL1Sx1HC1W62k9lhDYElVj/UlrVJJmjYM9xMmPfyxIGKhi7eaGQwplCIo5IbvTtKXglLXW7pEq0CrxM7NN3fyQZr3P/hwlwJOutjrS0RJgbdQakdfPDrO8TfJOtaPuBt73fCo3eNQEquea7qwdlIHjrJVqZwwb5PTT/PL10OlihWjr/VCVZoVZHrzzZG2yjX3l1bSjwUltRUcbpK0zaEDwjB/Rs/RvekzdVjSTY+Cf/qhE27GQ5AvmITrgM7Z1H6Qhel5zp0C3/74Y+7ccfYaAQQQQAABBBDIYQKXX3phuvaoaNEifroFCxaamtyaMmWqyz/4KdriR7oWkmCiDjd08s3hP/bY/3xzZ5pELZiodZKXXL87sUk1QUKz4XXr1PG/dStWPMLeeGOkde50o59U+Rhvv/2uVala2deE2OwyPpX2cX0qqRDs8FdG+KbRQrNZs1xwQr99Qu0a9fOiQIQKF2ZGevnlV1zT7Qf4gNjjjz/lFxma0Tv77DP8tquJ+AauAObo0R8kW2U+l7m60gXB1HfTQtfiiAJ+IallmRauQKlqoajf66OOrOr79VGwSE3kD3vl1TCpz9tJySQ6UcyLmjVdjSpXgHjAwEEuo/lAH4D79df5vnUS1TxTSuk8UJ6RapBUPOII32yVpt03qYkyZb7rvFEeQP58+fxyNX5XU+xx1DLVRUKfPg+636+H+XyV2++422eQh2CWClrfdvtdvpm8c885y/WD9UGkILPrU0tJeTbK71JAZfXqNf480fB2rjsIJRXeVFOSx7gadTqWml8FYUO/MM2aNbVbb7vT1Kx+3z73+36bevV6wPfHrfwIBTtjC3YrL6t0mQqu+4Wbo31kqRUgtaajYM/xrnk/FQhXUhOHIWkbn312sC9EGgJbYZwKHLdoebk/bie5Qr+ffPJZGOXz/Ga7lnVS24cw8etvvOXzwtq1uzYMij6n5Rh7XJTHlSildp4mmj5+mJo4VMDppk63mGoN7bNPXncdKOz7cQtNTCrgoWBDHdfST2yq6QKDCkw/N/gFK+OCEApYPeJaAdK2KnCUnhR7vUrpXD/DdWXRu/cD1qNHb1NeovJVlNeqoJbOoZSSrkHqi0pNx2k7jzuuVsJJdd0Iy7/hhvZ+2nXr1rsaenVT/Nw2cduUWjrP5V0qoH2HqyTQwW2zgjRvuPw31RTs3Lljsll1jVFlBNWge81dJ5V3eolrOlOp8WmNfMCpY8cudpU7PtOnz/DdPlSqFMnjU5OWSild47XfSqoMoaCrPtNNXVBax1z9jbdscbE/5t9/H+mnLwSVFi9eHG3hxy/APagQ9oWuS5SRI9/x58JpbttUi2vu3Lk+3zi1bdH26hqoz5v6UtOx0flNyjqBXB9wSqqmlCScx1ZP/cm/Lnz8kbZm6hwfhVJYSK8L1Zvjm9Vb3D+S+b3jsGiKPHboDefanwMiNxSRIQo2bbfi15/jJ13p+nVSJrmCTS607FftR+zmw+233eJKp0RKS4RFxGY2qySFaiB99NEYH3Ca6m4CdOFQUEAXYt1ghHRFq8gXb3iv5y2bt8S+3el1oUI7qq3uNDKVAY883M+316yghzLKh7naOyo98ssv8+3tka8lmzNPXq+VbFj8G13olY50N2SpJbXzqaQbmHAzmtL083/7zY8a+fYoG+dKYYX0m7tRVtq6NbHN+vUb/Pj99tvXP4eHUC1cN4q7k0KbsfH7GJpLnDt33i4tVhdvnQu6mQ9t+Ka2gFq1jvVf2rqR3Lhxo+/vS9Mr2FTG9QulQJVKqylNnDDZP596agP/rAf9SFAtrMnuZnTd2rWmGwd9IaU3qaSQUtjf9M63q+fo3vSZ0k2Ognb6fJ9y6ul2jrvRbt++bbTvtWCkHxRKqqpOQiAlgWOOipTcS2k8wxFAAAEEEEAAAQT2bIH33nlllzZQrSGoMKEKFr744st27LHH2BEVytt2V1tEKVFtkFBQ0U+QwoNapgjNNak2x8cuYNGo8Zl+ajUppaS8AKUGDU7yz1p3+F2qTERl/p95ZhM/TrVXlDEYml3Xb88HHujlMw9/+mmOb/VBmbPKZFaH8E8+9Yzvi6dP7/t9gEA1RJSUUakU1p3X5c0kSomGqxmtsO9qclDBEP2eVnriiUeiBSz7PdDbBz4ee+xJ18LHk/73mrY3pFtu6ewDGbXrnOh/QysDOhTgXetaVFELFnNcoEFJ+TaffT7Wmp4XaYUn1ELTuNRMND4+6Xg899wAU+b69R0iLb3Iq+ON17smD09L9TwYO3ac78Mp7K9qeSjIo3R1m6t8TQV1yaCWUOLzc+K3Q+8TnVfxx/FZ19/4Nde2dwZt/CJk+NZbI6L9SV/mtmHuvHn2sMtQ159S69atXJPzbfxr1WxTxnJo0k77qnMm5KcoT+NVF5RSJn9I8lb/VEpq2uy90W9bm6vb2jnnRs4bBcHUH3d6UycXMF24aLHdc2+P6CyPP/5wsqCcmuDTNup3fHyaNes7P0gBgqtaJw8WqdZeWvugmXWePPXkM/6zrcz6+JSWY/xxiZ9f71M7TxNNHz+shet24lf3edfn9j0X+NOx6tWzuw84nXP2Wa6Q8tu+kLWGT582Idn5o6binn/uWdfP+42+r3ctW+fK0Bef84FKBTjSSrHXq5TOdZ2zOnZdutwa7T5CgZQ+fXqmtXjXmlILX+BehdnDNSR+JhXQfnZgf98PWfh86tqpoFlqn9v45cS+V4HkQe5zdEvXO3zgNIzT50T9wMcmNUMo+yee6O8HX+s+Ry0uvsi/1nbrPBg4cLAPgCswWtMF2VQjTSmta7ym17VXx1d/6ofsEtcnn5Y5aNDz/k/LUXC4vmtBKaRp02a4CgPJPxf6TKq1KTVvqc9V+GwpqKftSG1bVOBh+PChvvlQBZOVdO6Ssk4gjytFEfmmz7p1pLjkfzdvtvmu5Em9FKK8Kc6YxojW7TrZ0MFPpjFVZPQXFVr5F5Gbijy+ZpKCTYd3jnypr5k2x3zzei5MpPuR4+c8b9OPbBcNHOmCodsUPR/7w0CbVeOG6PswvESHc31fThtc7Sa/Hjetaj7lcaVbKk5/JLIhu/DY/b6e7svzOevXr3e09ESi2dXk2lFHH+uDCpMmjnXVjbtbpL3dt3ykXDWfGp92lr+gN2506k6LUJBB0XUFCZo3j3SGqAt3SPpirFa9lr/RmzlzahicYpN6Ybufe26gndc0EoTTTCpxUqVqdT//D9/P9F8QujlTqaA+fe63ttdeHV22XoQm+37/7WcfOGrXroOPuL809PnoTammi98+BThOOPGUqIemCUlN6qkvpE8/+dB/sV19zXW+tJG+lEOUPEyr5+7uIqcM//i0atUqO/KoY/zghQt+ifYxpRtkBf/Ob9bUXVCfiZ8t2Xv1MTVp0uTotmjkoSUjpQLm/DQrWa0e3ZzWrXdS9Bjownt0tZ2PiUqsqc1ifSlOmzrBl8bQTb8u/mq2LTbd2/1+f9F/uv/j0WryGn/ddTf4LxjdRKqUhM4vHS+ljjd18SW5pk4Z70rvNPDH8Pvvvo5+oWrfQ+kBBblWu9Jb4ebv7bdfj1ZpDccyvkm9sP+zvp3h+xnzK4152NVzNGZW/zKcm3viZyr0sxbfpJ42XDeQao9ZPxKDp25We97fPbqL+oxqnI5zfKmp6ES8yNUCu/Kdmauh2HkEEEAghwio2a1dzZjOIbvObuwlAnvDObp0+XIrWbx4lovuSjN5u/u5VsG0DRs2Rps/z+hO/eNqbSh/pECBAtFFqcBjceelTL/dTVru4sVLTIUXtXwl/R5SxvuBB0YK2WmY+v+N7bNEv4VUIFQZ1pmVtF4t92DXn3W+fDuX45apAluJ1qnCmMtcYVjVOAj7EbZLzfirEHEYrn1Z4FpRUa2A2H0K0ycyCeMSPWub1PqKmsdSTZ3YlNp5oBo8ynso47oNiD2uml/L1DFQoebdTYmOo5YlYwUNypaNNJ0Wv3ytV0GdUknNGcaPV7Py2ldZJ/JTXtTyFct97Zj9998/fna/bwsWLPTHJLa5+p0mTGWAMuaVHyPvROdKKrOma1Ra+5CehaTkmNJxiV9mWudp/PSJ3utzoeOtGi6h9aUwnc7N2M94GB6edQ6qr3UVmte5kiioGaaNf46/XqV2rmsbVTtRn9FDDtkRSI5fZkbe//nnch9832+//aKLSfS5Vf5mSgG1smXLRru30DbruilDnYPxjmpGVcPUFKfyM7XeRJ8FfY7Wrl2b4n6ndY3XOaZrR+yxDeddGdev2a5eP1QjdMWKFVb+8MN3+lyltS3az4IFCyW8JkTRs+jFtK9nWgWXL1sgA9+FWbRpmb7Ynb8ZM30Ve/YC3XXJfZm7L0m3mbpl0bNqOSno9P0V/azwCUfZiT8PsdlXPmRrXfBpUf93XS2n82zddNW4UIDKPblUyDW5t/SZ9/VtG+3TScPVxJ6Wud4Fm8Ly1bOTeoWKrE1TZU1Sk2tqAk7VT2fP/tH3l6SAQ926tf0KdbOgpE4LBw8e4F9nx4NKj6hqo0puaDvTW/U1bKtKqWgfFyxcGAYlfA4BIpWW0pdyfId8sTOFap8drr/O1xyJHZfaa92E6KZSpX90UQ/LOeqoI/1s6iiwp+svK1FzfKktV9F+lXbSMosUiTR9oOllpnRExQr+OTz8u/nf8DLhs9rJVdJNo76A0nPj0/i0Rj7g9N57H/r+pFq02NFUQ726dX3ASQFNJVV1DzfJas4gBJu+/WZ6dN9VLX7o0GF++rQeFCjRuaEvjlBbLK15smL8nvaZ0o2Uqupf5Wo6fvDhx74DWgWjVdKsQoXyvhkB3bQpxf+g8AN5QAABBBBAAIFcJ1C4cCFXMvxX19n6Eblu39nhPV9A56bOUVJEQM3jDR8xMk2O9Dajl2hBymyMz4RMNF16h4XaTbHTK8M/o0nLrVChfLLF6PdQ/LbHBxZU4yGzk9YbmuxLtOz4bYqdRr+91UpIohRqeYVx2pfw2z0Mi31OZBI7Pv61fqOnlBeR2nmgTOIKFcrHL86/1zJ3NbM4fkGJjqOmSevYKWM89M0Sv0y9T6lPpzCt8oRSyxfSvmX0d7RsUjuGYVt29zmtfUjPclNyTOm4xC8zrfM0fvpE7/W5SO3cTDRPGKbjpDzF3Unx16vUznVtY2jmb3fWlZ55El1XEn1uVQNQeWSJ0rCXX/A1FzVO25zeczi1oKqCRakF2dK6xicKYqV03iXap/hh6sIkthuT2PFpbUtq+xm7HF5nTICAkwJESUGnPK4fJtVXqtD5Qvv9yXdslevP6W8XfDrIBZMUUd7m+lxa8OQoO6zT+VbqxvN8yGgHfx5b74JQ29x0sX06KTClP9Vs0tJVs0nr84EqvcjipOqbCsZ0u6eHLy1wnWu3VV8aSgpc6KL8889zfRNpIRCV0U1S6SEFXNSWZkolUWLXofZCQ+BkVzrgC8sItTaGDh3m2sO9LNpcnmrgxCZdaE8+ub5NmDDJ+vTt59ri7ekvvlq/anvFpmpHH+3fvuTaZ1Z/V7rApzdVdVVXVS13kQuOhICTql+rirlqLt3YsbM99dRjO30hqiRFbLR/c0zQqLZrq1YBp1dHvO6qF98X3ZRXh7/mX9dOqiUYviwVZFDJpRCcUY2i2KRSC7LWsR81arRddFGkRp/O8xCgiJ1er089JdJEXggqHV+vXnSS2rVr+deDXJVYpUYNT/XPelDAScnXFnMlj0JS0C8+hS+h5a7EYGxSUwP6Mn0xqamHXTkescvJjNf/9WcqlGxZuGBRipuvc1vB5U8/+cw3d6DjWqFCeR+g1Ey6UU9Uuk7jSAgggAACCCCQuwSubn259ej1kCuAtTZ37Th7u1cIKNikc5QUEbj80otMfyQEEEAAAQSCwKh33nR51FvD22TPBx6Y/tqcatFp37guQZItjDcI7KYAAScfBooJJrgY0N9Tf4w2qSdX1Xg6yNV4Wu36cdKUC54a5QJH7pX7H5riUwZ47dnP2pJn3nNTKJCUtEz3UrGKyJBIv00Kaul9RtNLL73iOmicttNi1ARdCB41PPUUn9msQIeS2s6MTXe5zg5v6nSzbxf4po4dXE2ZI+y33363WbO+852wqdPDXU3nutotCv5c1/5Gvx3K6L4tZjlDhgy1yZOm+MV+9/33rl3OGf71lVdenmKJhtS2oXHjhr4dXAV5zj7nfB8gUtVKbUN8UieQpzc5x4/TeGXEJwqwNG9+nutg71HfkV3z5i2s2flN/aJmffudfT3zGxv1zhuu+vzB8Yv376u6QI625RdXOq/+iSdEp1EzZ80vaOEDXrVqHe/72pG3qljPdMs86aT69tijD1n16kf7wNT99/fxnYW2bHmR3XRTB19LSAGd1X+vtlqu7yQZqsaUUvv2bf2zrE89tYFvHlBN4Knda9ViCjWM/ERJD93uvsN30HrDjZ19p3/FihWzzz77wr755tvYyaKvVToo1DTSwBBk0msF2WKTgmshneA6yNR26Tir08Libj3a7nBOhun03LhxQx8w6d27n33rzkHt64MP9vFtcQ8bNtxGvPaGPz8bNDjJNem3yn507b6mp51oLTs9aU/8TFWoUN4HLhW4U5ODJd1xUIBR1xwFRGvUqO7bol7smhJ47fU3/W7qHFKa52rzKYW2qv0bHhBAAAEEEEAgVwuc3vgU0x8JAQQQQAABBBBAYO8TiK8Nubt7kJ2tXe3uNjPf3iFAwMnV6FDwx9c8Snr+a/JsO7zTBVauU3Mr4prUU/rONa+nQNE2N3XkORJS2ubGRUJL2+3n1q6zyBdusXltYvpl0si46FJYn6/qpIXvZlKNj0RVKBXwCUlVW9XJ21P9B/jaPaFZuTD+4osv8O3tqnkzTROSOu0MVUXVQaZSqBkVpgnP+Qskb4e5TesrfZDjiy++9IEX1byITQo0xAYbtK4rW13mOmhsGZ0srCs8R0fEvAjjVKvnhSGDrHOXrj5AJBMFONSZ3COPPmGx21ehQnl7/723beTId3zfVKpqeZELwj3V/xkfECmQtC9qW1r9CN12+10+eDNlaiSwp+U2bHiKqxmVfJ9jNst1CnixDXcdUA55YagpiBZSjRrVXP9J412Ten3tvfc/NC0zLLeiCzxVqxY513S8VAtL4xSQUsBJVe4/+vBdVzuqiw8qhMCCAkDqaym2ausNHdr7oExYvoJq6si0W7f7wqb457POOsP3A/bkE09Hg3MKFCl4pWbZ8uXb+fKgDkWDb2yQSdOe1riR70BRy4itll7AVb19oG8v10nnQ9EOPRu5PsPUod/w4SOSbVNjtww11ffGGyP9NqiGmNoN1vPHH4222267K5lbCGzt6jmabKUxb/bUz1T3e+/257JqKyr17tXDatSs7tujHjBgUHQPVItMzUCGJhoUpFNSx64kBBBAAAEEEEAAAQQQQAABBBBAAAEEEEAgKwXyuI624sIhWbm65Mv+d/Nmm+9K7ddLag4s+djdf7crHaCPKXeZDxiptoD/c+9UI0mvi55wtA84FXG1myIBp8hwBZwi00fea0tDTaeqQ2/1G16oXhXfp9OfqvEUXXbs/O61awf3yK8e3/0dzcQ5Q+d36khO7cuGps0ysgo1mab2auPbUM7IMtOaV7WFli9f4TrVLJtigCx+GQpo1KhZ29d0+vWXH3dqA1qd0an2iNo0Dk3kxS8j/r063ps2bYa9/fbryWo5xU6nJv9Uu0rbmshb+5KoLWR1OLlo0SLfcWii9l21DjWNN3fuPD+/+urS+ZpaUi0otWOqzg+zKoVtOtRV2Y0NSCVanzo/VBODidq+1jmq5gJT6jg10fKyY1hWfKbUuWFh11ZtCLZqv9R545w5c12QqVSyWne//jrfTqx/qm+6cdq0if/p5zA7vFnn7gvsynfm7q+FORFAAAEEEEAAgZwjsNQ1AV6yePGcs0PsCQIIIIAAAghkqcC0r2daBVegvoCr5JDT085VGHL6HsftnzLBQ40j99L3rRSe/5r8g+vHabYdO/xu34+TmtZTtn2kNyYfdvL9NSkvXzWdynZsZmunz7El/Uf7DP4qL3a1dXUqu76d5rqZ3MKTMv21Rt8k33bNtWck1VAJNZoya4vSCipk1npil6MATWpBIQUqtmzZbKrZpCCMgkkvvvCSD/yon6REAY7UOqOLXXfs606dOlqrVm18LZ3YZvVip1GTfCk1y6fpEgWbNFwdKabUmaLGK2nfdqU/rPR2IhhZ+u497so2hX6LEq1JxygrO91MtM7dGZYVn6lEnRuqBplqz8WnIUNe9INuvrkTwaZ4HN4jgAACCCCAAAIIIIAAAggggAACCCCAQKYLEHBypAoiKeikQFLkOdLHkq8T4gb8/uTbvk8nhZhi09ppc2zhU+9G5nHTae5103727zXd2umR12Gpfl43neJOWg/pvxd4/Y23rHfvB3yTe5UqVUzWX9EDD/TKtA06rXFDU0b/xo0bbfPmLWT4Z5osC0qvwEGuJtT117fzTRSmdx6mQwABBBBAAAEEEEAAAQQQQAABBBBAAAEEdleAgJOqM8UlDYn26eSCQ+rT6e8pP7qheZKazlPQKKmGk3+O1HBa42pAlbnpfFsz9WErVK+qlbqxqX19dPvkYSrFrMIqE6w7blN4m8kCF114vqnG0tRp03yTdzVrVLeax9S0zp1utMys5aMmz+68I9K8YibvAotDIF0Ct992S7qmYyIEEEAAAQQQQAABBBBAAAEEEEAAAQQQQCAzBAg4+eiPokA7UiQmtN0FilxNJxccCjWSQqxox9RJkaPtboj7v8bVeDrI/dX9abCp9tOc1o/4hWqq6Lxugdu1QA0LgSf/jof/QkBN6V155eX+779YH+tAAAEEEEAAAQQQQAABBBBAAAEEEEAAAQQQQCA3CBBw2qaIkvvzQaNIIEhN4KmPJQWb8rpBIeiUx02XVK/JB5A0deQvabhbxoInR7lm9kbF1IDSNHl8H0953IK2qUaUAk3uQa9JCCCAAAIIIIAAAggggAACCCCAAAIIIIAAAggggMDeLqCW43J1Uuwn/k8gGqbHSP9L/k3kwY8Ic8QM8lPHvHeThHnD1Duew5jI9DwigAACCCCAAAIIIIAAAggggAACe6PA0qXL7LHHnrT583/bGzefbUYAAQQQQACBTBSghpOqL6WRNEW0Tyf3Ov69Zt/m/lRfaZsbG63RFDM8MlfyGk3btmsuEgIIIIAAAggggAACCCCAAAIIILDrAhdceIktW7bMz3jgAQfYWWedYeedd65VqVJ51xe2m3MsWrTI+j34sNWqdaxVqFB+N5fCbAgggAACCCCQEwRyfQ2nPPs4grzuzz+7gJDa0Isd5l7n2UfDXBgpaTr/7F5H5o1MHxnnponOq2UlLVvLjK4jaV2ajoQAAggggAACCCCAAAIIIIAAAgjspsDPP/9spUqVtK63dLZLL2tpkyZPsQannGazZ/+4m0tkNgQQQAABBBBAYPcFcn0Np6YLX999PeZEAAEEEEAAAQQQQAABBBBAAAEEMkFg69atNvDZwfbmm2/bH38ssPr1T7B+D/SyMmXK2DffzrL7uve0+3t2t2eeHmgr//rL3npzhF9r1SpV7KKLLvCv69Wta6c3Odu+nfWdHX30UX7Y2LHj7JFHH3dBqJ+sUqWK1q7t1XbxxRf6cUuWLLXu3e+3GTO+tjVr11rVqlWsa9fOdlrjRvbPP/9Yy5ZXWMebbrBx48bblMlTbciQQVaw4IHWp++D9uGHH1uJEiWsbt3aflk8IIAAAggggAACVLPhHEAAAQQQQAABBBBAAAEEEEAAAQSyWWDAwEHWs2dfq127lq+x9PXXM+2ZZwb5rVqzeo1NmTrNzjyzqU2cNNnXagqbu2XrFtu8ebMtWLDQnntuiB8cgkAzZ35jl1zayn79db61a3eNrXVBpRs7drH33//QT/eXC1xtcoGlK6641O64vav9/fffdu+99/tx27Zt8+ts1aqNDRr0vB1S7BDLnz+/3dL1Dnv55eHWsOGp1rLFRaaAFgkBBBBAAAEEEJBArq/hxGmAAAIIIIAAAggggAACCCCAAAIIZLfAY489Zc1c/0sP/6+f35TNW7a4QM9z1qvXfdFN69u3p111ZSsX+NmRnTN06DDTX0hXt7nKKlWs6N8OGhwJQE2c8IUVKVLEbu3axaoeWdOefuZZO/fcs61ataPt5Zci02iGokWLuhpNXWz+/N+sZMlD/TJatLjQ+vTuaYULH2QLFy6yDz74yDq5Wk/dut3px9erV8fOObe5f80DAggggAACCORugR13KLnbgb1HAAEEEEAAAQQQQAABBBBAAAEEskVg1apVtm7dOlu6bJnd65q4U5rvaiWtWLHS1qxZE92mmjVqJAs2aUST0xtb27bX+FpOqm303PMvWOkypX1Q6Kef5vim9RRsUsqXL5+dfHJ9mzBhkn+vB9Vy+ujjT2z58hW2+u/VfrhqTIVUtWpVH2zS+3nzfvGD69atE0bzjAACCCCAAAIIRAUIOEUpeIEAAggggAACCCCAAAIIIIAAAgj89wKbNv0TXWn+fPn96yqubyb9FSpUKDou0Yty5cq55u1O8aOaNDnNZn33nQ0bNtwHnNavX+/7gIqdr0jhwj64pSbzvv9htjVpco6VLlXK6tQ5zn6Y/aOfdPv27bGzRF+rnyelgoUKRofxAgEEEEAAAQQQCAIEnIIEzwgggAACCCCAAAIIIIAAAggggEA2CBQvXsyvtXTp0ta9+90Z2oJ8LmD1++9/mIJGalrvs8+/cLWftkRrRk2eMtUqVjzC8ubN65vs08omTRpr+++/v40fP9EubnGZ5cmTR4N3SpUrRZrqmzHja6t/4gk7jWcAAggggAACCORuAQJOufv4s/cIIIAAAggggAACCCCAAAIIIJDNAmrq7sILm9vIke9YndrH2WmnNbKVK/+yuXPn2uWXX5rq1i1YuNCmT//KNm/Z7ANGkyZNtttvu8UHjS688HwfcLr9jrut1RWX2kcfjfHBqLvuvM0vs+ShkX6a1GdT/vz57aWXhqW6rkou4KTaUM8+O9iKumb6SpQobi+8+FKq8zASAQQQQAABBHKPAAGn3HOs2VMEEEAAAQQQQAABBBBAAAEEENhDBe7r3s0FmVbaPff28H/aTPXPpICTaiOllMaM+dT0p1SvXh3r3auHXXZZS/++efNmpn6cnuo/wIYPH+GHXXpJC2vfvq1/rWV/7OZt1PhM//6Slhf7Z9WOSlTLSUGp4cOH2rVtr7dbb7vTT9uq1eX+mQcEEEAAAQQQQCDP36tXJ26Y9z+w+dd1QjnfVfOud1ytTF1b63adbOjgJzN1mSwMAQQQQACBnCjAd2ZOPKrsEwIIIIAAAghkpcDS5cutZPHiWbYKl09jK1assPKHH26q+ZQZaePGjbZw0WIrVfJQK1hw5/6XFi9ebMXdPimglN60atUqt6xC0ab60jsf0yGAAAIIIJDbBKZ9PdMqHF7OCuzC9+zeapQ5dy57696z3QgggAACCCCAAAIIIIAAAggggMAeJFCkcGHTX2Ym9c8U+l9KtFz1HbWrqWjRors6C9MjgAACCCCAQA4XyLEBJ5XYJiGAAAIIIIAAAggggAACCCCAAAIIIIAAAggggAACCGS9QI4MONGcXtafOKwBAQQQQAABBBBAAAEEEEAAAQQQQAABBBBAAAEEEAgCKfc6GabgGQEEEEAAAQQQQAABBBBAAAEEEEAAAQQQQAABBBBAAIFUBAg4pYLDKAQQQAABBBBAAAEEEEAAAQQQQAABBBBAAAEEEEAAgbQFCDilbcQUCCCAAAIIIIAAAggggAACCCCAAAIIIIAAAggggAACqQgQcEoFh1EIIIAAAggggAACCCCAAAIIIIAAAggggAACCCCAAAJpCxBwStuIKRBAAAEEEEAAAQQQQAABBBBAAAEEEEAAAQQQQAABBFIRIOCUCg6jEEAAAQQQQAABBBBAAAEEEEAAAQQQQAABBBBAAAEE0hYg4JS2EVMggAACCCCAAAIIIIAAAggggAACCCCAAAIIIIAAAgikIkDAKRUcRiGAAAIIIIAAAggggAACCCCAAAIIIIAAAggggAACCKQtQMApbSOmQAABBBBAAAEEEEAAAQQQQAABBBBAAAEEEEAAAQQQSEUgXyrj9tpRn34+zl4YOtxWr1671+4DG571AoULF7KrW19upzc+JetXxhoQQAABBBBAAAEEEEAAAQQQQAABBBBAAAEEEMjBAjky4KRgU497b7fKlY7IwYeOXcuowNx5v1qPXg8RcMooJPMjgAACCCCAAAIIIIAAAggggAACCCCAAAII5HqBHNmknmo2EWzK9ed2mgA6R6gFlyYTEyCAAAIIIIAAAggggAACCCCAAAIIIIAAAgggkKZAjgw4pbnXTIAAAggggAACCCCAAAIIIIAAAggggAACCCCAAAIIIJBpAgScMo2SBSGAAAIIIIAAAggggAACCCCAAAIIIIAAAggggAACuVOAgFPuPO7sNQIIIIAAAggggAACCCCAAAIIIIAAAggggAACCCCQaQIEnDKNkgUhgAACCCCAAAIIIIAAAggggAACCCCAAAIIIIAAArlTgIBT7jzu7DUCCCCAAAIIIIAAAggggAACCCCAAAIIIIAAAgggkGkCBJwyjZIFIYAAAggggAACCCCAAAIIIIAAAggggAACCCCAAAK5U4CA024c96bNrzD9kRBAAAEEEEAAAQQQQAABBBBAAAEEEEAAAQQQQAABBMzygbB3CWzZutVeeHG43+gWFzWzIkUK77QD6Zlmp5lSGbBu3Xob8cY7dkT5cta4UYNUpmQUAggggAACCCCAAAIIIIAAAggggAACCCCAAAII5EYBAk57wFHv/cBj9sPsn2yfvHlt8MDHbP/990txq7Zu2WqjRn/kxzc5vWHCgFN6plmydJn9+ecKO/zww6xI4YNSXJ9GTJg01d4Z9YGf5pQGJ1q+fJw2qYIxEgEEEEAAAQQQQAABBBBAAAEEEEAAAQQQQACBXCZAk3rZfMBXr1ljU6bOsLVr19nfq9fYuPGT/5MtenbQUOvWva/N/GZWmuurV6eWr9nUutUlBJvS1GICBBBAAAEEEEAAAQQQQAABBBBAAAEEEEAAAQRynwBVVbL5mH8xdqLfguLFD7Hly1faR598bmee0SjZVql20ZsjR9uGjRvtyKqVk40Lb9IzTZj2if6DbOa33/u3g5572Ua89o516XSdlS5d0m6/s6eVcc/nNzvbXhj6qlWqWMEannqSzZkzzxYvXmotLm7m59u4cZP975H+9s2s7+2A/fe3BiefaF/PnGW1jq1u11/Xxk8zcdI0G/z8y7bq79VWvdqRtm+BArbILeOeu2+2w8qWsW3bttmw4W/ap599aavXrLVSpQ61zh3b2VFHVvHz39ujn6+FdeftnWyIa0Zw5V+r7JknH/TjeEAAAQQQQAABBBBAAAEEEEAAAQQQQAABBBBAAIE9R4CAUzYfizGfjvVb0OnGdqYAy9y5v9qqVX9b0aJF/PAJE6facy+84l/vs88+Nuu72f517EN6pomd/vMvJthW1xeUkmpW6W/9+g2mpvgWLV7i/6bNmOnHFypU0NSHk4YXKJDfD9PDkKHDLUyzdes2G/3+x35ckSKR5vk0zwMPPeGHabu/nfWDf62HTZv+8a+fGzLM3n0vMp/Ws3DhYnv0iYE2eMCjfvz8+b/7Wl83dbnLv49dvx/AAwIIIIAAAggggAACCCCAAAIIIIAAAggggAACCOwRAgScUjkMTZtfkcpYs5TGv/dOJECU6sxu5LI/l9sffyz0gZxjj6lulSsf4QNOX3w50S5sfq6fXTWblKpWqWR9et7lgkPr7ep2nfyw8JCeacK0en7r9RfsyjY3+EBT547XWaNGJ/v+oxToCqnBSSdYzZpHW+lSJU21meLT9OmRgFT7dlfZeeeeaQMHD7X33h8TnUy1nZQOdoGzAf3/Z/vsk9cuvvTa6PgtLuAVgk39n+hn5V1fUu1vuNUHtlasWGnFih0SndbXsjqlfsL+qqIT8QIBBBBAAAEEEEAAAQQQQAABBBBAAAEEEEAAAQSyTYCAU7bRm2tKbpxfu5rJW+36b6pR7SgfcPp4zBfRgNPCRUv8NA1OPsH2228/y5Nn52630jNN7G7mczWOQsqXfx+LfR+Gt72mlR1ySFH/dsrUr8Jg/7xy5SpbsfIv//qkE+v55wMPOCDZNNOmf+3f16xxtB14YPJxGrH8zxXR6R957Bn/evmKyLCfXS2v2ICTAlqnNW4QnZ4XCCCAAAIIIIAAAggggAACCCCAAAIIIIAAAgggsGcJEHBK5XikVFMp1GxKaXwqi0w26pOk5vTUTF4rV+MoJDVft2TpMitV8lDXz1Gk6bv9XbAppZSeaVKaN6PDN2/ZkmwR8QGxzZuTjw8Tb/on0qye3v/772Y/uHixYv65ZMkS/pkHBBBAAAEEEEAAAQQQQAABBBBAAAEEEEAAAQQQ2DsEdq4us3ds916/lb/99ke0lpCay1MtJ/2pvyOlUPupTOlS/v233+3oA8kPiHlIzzQxkyd7uX79xmTv0/NGNZ+KHXKwn3TMJ2Nt+/btvt8pDdi+fZsffny92v75m2+/tz+Xr7DVa9b49+GhVExQ6fZbO9qzzzwc/TuiwuFhMp4RQAABBBBAAAEEEEAAAQQQQCAbBNTcfSggmg2rZ5UIIIAAAgggsBcKUMMpmw7amKTaTaVKHWqPPHR/dCsefXyAfT52gqn205VXtLATjq9j811watz4yfbr/N9t3dp10WnDi/RME6YNz9WrHWmTp8ywIS++YuMnTLarWl3ialSlv2bRiSfUtdHvf2yvvfGO/wvLDc/H1arpX67fsMGuadc5DI4+q3nAakdXtR9mz7Fbbutumj5fvn38Pva+/y5fuys6MS8QQAABBBBAAAEEEEAAAQQQyOECTw8YYhMmTd1pL++9+xY7+qiqOw3PzAE/zZlrJYoXs4MPjjSt/7dr9r9N205W57hjrEf32zNzVX5Zyk8YPmKkPfVY32RN6v889xe7r+dD1rljO58fMtb1cf3scy9F139QoULW2PVDfXrjU6PdAFzf8TZT38+33ryj5ZjoDLxAAAEEEEAAgf9UgBpO/yn3jpV99vl4/+ZEF1CKTSefdLx/+9eqv32g6fJLL7QTT4hMs3DhYqtSuaIVKJDfT5M3Tx7/nJ5pYteh182bnWNFCh/kSysp6LNp0yZzHUTFT+bf58278/CrW19m557dxBQwU/9Kx9Ss5qctUKCAf1a/TX17dfO1tiqUL2fqEyqk/Pkj23/bLTf6m8KtW7fa9BkzfQBsldvvfPsQBw1WPCOAAAIIIIAAAggggAACCOQOgeWudZC1rpDpBeefk+wvND+flQp33N3LPvnsy+gqCh9UyOUbnG3nnNMkOiwzX6xbt97va3wz/Zs2/eOHb9gQaY1l7bp1/v1pjU+xiy88z2rVqmGj3/vY2nW42ZRvovTnn8vtr79WZcrmbXMtuOgvvWnKrJXW9ZFvrF3P6bZw2Yb0zsZ0CCCAAAII5FgBcvaz6dC+NnxwwjXXq3ucxfcN1e3Om11ASH0ebTfVDIpPeVygKK1p4udR7aJhQwfY33+vtsIu8KRlKMWvW8MSbZOCUB3at9Fon1SiSKlsmdL+WQ9Hu3U8/GAP/14BpZDUN5VSsWKH2OOP9DbdQP65bIUVOqigFXfDwrZo+0gIIIAAAggggAACCCCAAAII5BYBNbPf8uLzd9rdGV99Y4OfH2Y97r3NF/zUBE8PHGIrV/xl3e+51bce8mT/wabCoSPfec/m/TLfSpQobm2uvNTVFIo0ea+Cpqot9NVX35oCPTVrHG3Nmp5lLw17zVQQ9I23RtvnX0yws886zQebZnz9baQ5/Tq1/PZMmjzdXnjpVRfgWeFqQhWxiy44z5omBaTeHvWBqUn9U04+0d4Y+a4PAlWpXMluuP5qK3dYmZ32Z1cHnH1mYwvdCRxbs7r1fuBR++ab71xtpwa7uqhUp2/TfZrN/mW1fdD/FCtx8M75L7Ezr1m32Tr2+8oPOrpiYduwKdIHd+w0vEYAAQQQQCC3CRBw2kuO+H777ZvmlqZnmviFFClSOH5Qut7/75GnbfpXM92NY1lbsmSZqek8pXPPPt0/L3MljK69rou/OS1UqKCvraURJ9WvZ/vuG6kF5Sd0D4UKFvR/4T3PCCCAAAIIIIAAAggggAACCCCwQ2D16rW2aPESW7d+fXTg778vsMWLl/r3qhml8QrEqJ/oM5s0tg8++tQFmIZGA0733NfP1HRe8eKHuJZU6ppqVKnsaZHCkXyBYsUO9q2qHJLUrJ5aWVmwaLFf/vc//Gh9H3zct7hyxukNfdN/Awe9aPu7QrFq9WTp0j/tKxegUtCpXt1avjUTNYc3avSHdtMNbaPbnBkvvp0V6eO6UqUjMmNxu72M6T/85ee9oWUlu6Z59m7Lbu8EMyKAAAIIIJDJAgScdgM0US2g3VjMXj1L/fp1baWrsj533q++JJSa1uvY4VorWzZSw6nggQdaw1NPslnuRlB9UKkZwIannGTXtb1yr95vNh4BBBBAAAEEEEAAAQQQQACBrBJQTaOmza+ILv7SlhdYq8svjr5P68U9d90SDTD9vXq167N5im9Cf+my5T7YpCb71UJKbCrpWiGZOHmaNXK/4S9p0Tx2VPT1q6+97V8PGfykb57/+uta24Utr7bhr73lA05hwtdeGexaZokUmFUAatZ3s8OoDD0PG/6mqf+mOT/P87W3Dj20eKbUnEpto+YvWm93PzXLTqld3NZv3GJjJi21w0sfaPd3qG7LVm6yp1+f62cf8dEf9smUZfZI12Nt3h/rbMAb82zuH2utXKkD7KqmFax5o4zX8EptOxmHAAIIIIDAniRAwGlPOhp70bac2qC+6W+7a9tYf3nzJu8OTH04hQ47t7gb5nyuWQASAggggAACCCCAAAIIIIAAAgikLtDq8hbRCWpUPyr6Oj0v9t9/RzNwh7om9ZS2bdtuv/+xwL+um9Q8nn+zCw8LFiyyg4sW8cEmzaam/ypVrOCDP7GLCcEmDStRvJitWbs2dvRuv54+4xvbx+U7qHWVikeUtwf7dt/tZaV3xo3/bPWBo9Wu6bxLzjzMalQuYl9+9ad9OGGJNaxTwiodVsj+WLLBDz/uqKK2fNU/dssjM+3ggwrYDZdUtvfGLbLeg3+wkofsZyfUPCS9q2U6BBBAAAEE9mqB5FGCvXpX2PjsEFB/S/HBpvjtINgUL8J7BBBAAAEEEEAAAQQQQAABBHYWUCDn0pbNo3/qfzkz0saNm/xidrdZ/X/++dcOcAVLY1Ohggf6Fk9UCHVXU+ifetWqv5PNuvKvSDN1++6bvFuBJx7tbeoLu1y5svaba0rw33//TTZfVr6pV/1ga31eBWvR5DC/GgWgKh5W0E5MCiIdX+Ngu+Kcw+2n+Wv8+EvPKmfXnF/B2l5Q0b+fNGtFVm4ey0YAAQQQQGCPEiDgtEcdDjYGAQQQQAABBBBAAAEEEEAAAQQQSCywYcPGxCPSGFrKNZunNHPmdylOmVrgqGTJEqY+nbZs2RKd/8ef5pr6bFZB1F1NZUqX9LOMnzA12azjx0/x78uUKZVseHhzc6f2Psg16PmXw6D/7DmuYZed1rvV1SRT2mefiEe+pGfVMCMhgAACCCCQWwRoUi+3HGn2EwEEEEAAAQQQQAABBBBAAAEE9kqBcuUi/QC998EYU7N5EyZO9c3ZHbD//unan6OOrOL6VtrPPv7kczvwwP3tuFo1beGiJdbktFPtoIMK+SbyJk+ZYUcfVdUKuppLR1Q4PNlyNd0vv/5mffs9bs3PP8fGfjnRN2/XvNnZyaZL75uaNar57fngo09dqyl5rJbbnkmTptm0GTNN/TMd7moyJUqVKx1hDU46wa///PPOMr1XWr5ipX3x5YRksxxbs7oVdc0A/lep1pFF/apGfrbQCh2Q30Z+vtC/r33Uwf/VJrAeBBBAAAEEsl2AgFO2HwI2AAEEEEAAAQQQQAABBBBAAAEEEEhZQIGVypWPMAWF9Fe8+CFW7rCytsIFWpQUtEktFSiQ33r1uMP6PPCYjXj9Hf+n2kmNG55s+fLlsxYXNbM33nrX7r63jzU99wy7vl3rZIs7+6zT7Jf5v9knn37pg0IaWee4Y6zV5Rf76fKksf5kC3Nv1NeTtueBB5+wUaM/8n+apmzZ0nbPnTfvVGsqb54dDfRc1/ZKmzRluj3x1CDr/0Q/v+glS5bZI48N8K/DQ+/778pAwGmHZ6JXYR2xz0dVOMjuuPooe/CFH63v87P9qKtd03qN6paInYzXCCCAAAII5GiBPH+vXp1tdXv/3bzZ5v/+h9U7rlamIjdtfoW9984rmbpMFpYzBThXcuZxZa8QQAABBBBAAAEEEEAAgawSWLp8uZUsXjyrFp/qcv9cvsLUT/LBB0dq06Q6cQoj16xZ68eoZlNsUnN5av5NwamU0qZNm2zJ0j+tRPFirqZU8j6dUponteFqxm/lyr9shfs7tETxDASIUlvLfztu85ZttnzVP3ZI4X1t3wI7AmX/7VawNgQQQACBPUlg2tczrcLh5axA/pS/Y/ek7c3ItuTIGk6FCxeyufN+jVatzggQ8+ZcAZ0jOldICCCAAAIIIIAAAggggAACCOwNAgr0ZDTFB5rC8lTTKa2kZvkqlC+X1mTpHq/+n4oVO8T/pXumPXzC/PnyWuni6WvqcA/fFTYPAQQQQACBXRZI+25ilxeZ/TNc3fpy69HrIVu9OlJqJ/u3iC3YEwUUbNK5QkIAAQQQQAABBBBAAAEEEEAAAQQQQAABBBBAAIGMCeTIgNPpjU8x/ZEQQAABBBBAAAEEEEAAAQQQQAABBBBAAAEEEEAAAQSyXoDGZLPemDUggAACCCCAAAIIIIAAAggggAACCCCAAAIIIIAAAjlagIBTjj687BwCCCCAAAIIIIAAAggggAACCCCAAAIIIIAAAgggkPUCBJyy3pg1IIAAAggggAACCCCAAAIIIIAAAggggAACCCCAAAI5WoCAU44+vOwcAggggAACCCCAAAIIIIAAAggggAACCCCAAAIIIJD1AgScst6YNSCAAAIIIIAAAggggAACCCCAAAIIIIAAAggggAACOVqAgFOOPrzsHAIIIIAAAggggAACCCCAAAIIIIAAAggggAACCCCQ9QIEnLLemDUggAACCCCAAAIIIIAAAggggAACCCCAAAIIIIAAAjlagIBTjj687BwCCCCAAAIIIIAAAggggAACCCCAAAIIIIAAAgggkPUCBJyy3pg1IIAAAggggAACCCCAAAIIIIAAAggggAACCCCAAAI5WoCAU44+vOwcAggggAACCCCAAAIIIIAAAggggAACCCCAAAIIIJD1AgScst6YNSCAAAIIIIAAAggggAACCCCAAAIIIIAAAggggAACOVqAgFOOPrzsHAIIIIAAAggggAACCCCAAAIIIIAAAggggAACCCCQ9QIEnLLemDUggAACCCCAAAIIIIAAAggggAACCCCAAAIIIIAAAjlagIBTjj687BwCCCCAAAIIIIAAAggggAACCCCAAAIIIIAAAgggkPUCBJyy3pg1IIAAAggggAACCCCAAAIIIIAAAggggAACCCCAAAI5WiBfjt47dg4BBBBAAAEEEEAAAQQQQAABBBDYwwWWLFlqD/3v0WRbed993axI4cLJhvEGAQQQQAABBBDYkwUIOO3JR4dtQwABBBBAAAEEEEAAAQQQQACBHC/w77//2uzZPybbz00bN5kRcEpmwhsEEEAAAQQQ2LMFCDjt2ceHrUMAAQQQQAABBBBAAAEEEEAAgRwucPjh5ezjj0bn8L1k9xBAAAEEEEAgpwvQh1NOP8LsHwIIIIAAAggggAACCCCAAAIIIIAAAggggAACCCCQxQIEnLIYmMUjgAACCCCAAAIIIIAAAggggAACCCCAAAIIIIAAAjldgIBTTj/C7B8CCCCAAAIIIIAAAggggAACCCCAAAIIIIAAAgggkMUCBJyyGJjFI4AAAggggAACCCCAAAIIIIAAAggggAACCCCAAAI5XYCAU04/wuwfAggggAACCCCAAAIIIIAAAggggAACCCCAAAIIIJDFAgScshiYxSOAAAIIIIAAAggggAACCCCAAAIIIIAAAggggAACOV2AgFNOP8LsHwIIIIAAAggggAACCCCAAAIIIIAAAggggAACCCCQxQIEnLIYmMUjgAACCCCAAAIIIIAAAggggAACCCCAAAIIIIAAAjldgIBTTj/C7B8CCCCAAAIIIIAAAggggAACCCCAAAIIIIAAAgggkMUCBJyyGJjFI4AAAggggAACCCCAAAIIIIAAAggggAACCCCAAAI5XYCAU04/wuwfAggggAACCCCAAAIIIIAAAggggAACCCCAAAIIIJDFAgScshiYxSOAAAIIIIAAAggggAACCCCAAAIIIIAAAggggAACOV2AgFNOP8LsHwIIIIAAAggggAACCCCAAAIIIIAAAggggAACCCCQxQIEnLIYmMUjgAACCCCAAAIIIIAAAggggAACCCCAAAIIIIAAAjldgIBTTj/C7B8CCCCAAAIIIIAAAggggAACCCCAAAIIIIAAAgggkMUCBJyyGJjFI4AAAggggAACCCCAAAIIIIAAAggggAACCCCAAAI5XYCAU04/wuwfAggggAACCCCAAAIIIIAAAggggAACCCCAAAIIIJDFAgScshiYxSOAAAIIIIAAAggggAACCCCAAAIIIIAAAggggAACOV2AgFNOP8LsHwIIIIAAAggggAACCCCAvWpdXAAAB2hJREFUAAIIZJpAyeLFM21ZLAgBBBBAAAEEEMhJAgScctLRZF8QQAABBBBAAAEEEEAAAQQQQAABBBBAAAEEEEAAgWwQIOCUDeisEgEEEEAAAQQQQAABBBBAAAEEEEAAAQQQQAABBBDISQIEnHLS0WRfEEAAAQQQQAABBBBAAAEEEEAAAQQQQAABBBBAAIFsECDglA3orBIBBBBAAAEEEEAAAQQQQAABBBBAAAEEEEAAAQQQyEkCBJxy0tFkXxBAAAEEEEAAAQQQQAABBBBAAAEEEEAAAQQQQACBbBAg4JQN6KwSAQQQQAABBBBAAAEEEEAAAQQQQAABBBBAAAEEEMhJAgScctLRZF8QQAABBBBAAAEEEEAAAQQQQAABBBBAAAEEEEAAgWwQIOCUDeisEgEEEEAAAQQQQAABBBBAAAEEEEAAAQQQQAABBBDISQIEnHLS0WRfEEAAAQQQQAABBBBAAAEEEEAAAQQQQAABBBBAAIFsECDglA3orBIBBBBAAAEEEEAAAQQQQAABBBBAAAEEEEAAAQQQyEkCBJxy0tFkXxBAAAEEEEAAAQQQQAABBBBAAAEEEEAAAQQQQACBbBAg4JQN6KwSAQQQQAABBBBAAAEEEEAAAQQQQAABBBBAAAEEEMhJAgScctLRZF8QQAABBBBAAAEEEEAAAQQQQAABBBBAAAEEEEAAgWwQIOCUDeisEgEEEEAAAQQQQAABBBBAAAEEEEAAAQQQQAABBBDISQIEnHLS0WRfEEAAAQQQQAABBBBAAAEEEEAAAQQQQAABBBBAAIFsECDglA3orBIBBBBAAAEEEEAAAQQQQAABBBBAAAEEEEAAAQQQyEkCBJxy0tFkXxBAAAEEEEAAAQQQQAABBBBAAAEEEEAAAQQQQACBbBAg4JQN6KwSAQQQQAABBBBAAAEEEEAAAQQQQAABBBBAAAEEEMhJAgScctLRZF8QQAABBBBAAAEEEEAAAQQQQAABBBBAAAEEEEAAgWwQyJcN64yuMk+ePLZvgfw2/M2RtnzlX7Z169boOF4ggAACCCCAAAIIIIAAAggggAACCCCAAAIIIIAAAnujwD777GPFih1i1atWNsVCckPK8/fq1duza0e3b99u/27ebBs3bfLP5t6TEEAAAQQQQAABBBBAAAEEEEAAAQQQQAABBBBAAIG9WUBBpvz589v+++1nBdxzbgg67QE1nAq4Wk4F9ubzhm1HAAEEEEAAAQQQQAABBBBAAAEEEEAAAQQQQAABBHK1AH045erDz84jgAACCCCAAAIIIIAAAggggAACCCCAAAIIIIAAAhkXIOCUcUOWgAACCCCAAAIIIIAAAggggAACCCCAAAIIIIAAAgjkagECTrn68LPzCCCAAAIIIIAAAggggAACCCCAAAIIIIAAAggggEDGBQg4ZdyQJSCAAAIIIIAAAggggAACCCCAAAIIIIAAAggggAACuVqAgFOuPvzsPAIIIIAAAggggAACCCCAAAIIIIAAAggggAACCCCQcQECThk3ZAkIIIAAAggggAACCCCAAAIIIIAAAggggAACCCCAQK4WIOCUqw8/O48AAggggAACCCCAAAIIIIAAAggggAACCCCAAAIIZFyAgFPGDVkCAggggAACCCCAAAIIIIAAAggggAACCCCAAAIIIJCrBQg45erDz84jgAACCCCAAAIIIIAAAggggAACCCCAAAIIIIAAAhkXIOCUcUOWgAACCCCAAAIIIIAAAggggAACCCCAAAIIIIAAAgjkagECTrn68LPzCCCAAAIIIIAAAggggAACCCCAAAIIIIAAAggggEDGBQg4ZdyQJSCAAAIIIIAAAggggAACCCCAAAIIIIAAAggggAACuVqAgFOuPvzsPAIIIIAAAggggAACCCCAAAIIIIAAAggggAACCCCQcQECThk3ZAkIIIAAAggggAACCCCAAAIIIIAAAggggAACCCCAQK4WIOCUqw8/O48AAggggAACCCCAAAIIIIAAAggggAACCCCAAAIIZFyAgFPGDVkCAggggAACCCCAAAIIIIAAAggggAACCCCAAAIIIJCrBQg45erDz84jgAACCCCAAAIIIIAAAggggAACCCCAAAIIIIAAAhkXIOCUcUOWgAACCCCAAAIIIIAAAggggAACCCCAAAIIIIAAAgjkagECTrn68LPzCCCAAAIIIIAAAggggAACCCCAAAIIIIAAAggggEDGBQg4ZdyQJSCAAAIIIIAAAggggAACCCCAAAIIIIAAAggggAACuVqAgFOuPvzsPAIIIIAAAggggAACCCCAAAIIIIAAAggggAACCCCQcQECThk3ZAkIIIAAAggggAACCCCAAAIIIIAAAggggAACCCCAQK4WIOCUqw8/O48AAggggAACCCCAAAIIIIAAAggggAACCCCAAAIIZFyAgFPGDVkCAggggAACCCCAAAIIIIAAAggggAACCCCAAAIIIJCrBQg45erDz84jgAACCCCAAAIIIIAAAggggAACCCCAAAIIIIAAAhkX+D+uvhvLFmyQzQAAAABJRU5ErkJggg==;" vertex="1" parent="1">
                    <mxGeometry x="70" y="120" width="1692" height="610" as="geometry"/>
                </mxCell>
            </root>
        </mxGraphModel>
    </diagram>
</mxfile>